Caveat-Regular.ufo
<glyph name="numbersign" format="1">
  <advance width="559"/>
  <unicode hex="0023"/>
  <outline>
    <contour>
      <point x="389" y="-140" type="curve"/>
      <point x="399" y="-135"/>
      <point x="399" y="-129"/>
      <point x="399" y="-97" type="curve"/>
      <point x="399" y="-60"/>
      <point x="460" y="134"/>
      <point x="482" y="208" type="curve"/>
      <point x="492" y="235"/>
      <point x="498" y="256"/>
      <point x="498" y="261" type="curve"/>
      <point x="498" y="261"/>
      <point x="498" y="272"/>
      <point x="503" y="272" type="curve"/>
      <point x="508" y="277"/>
      <point x="508" y="283"/>
      <point x="508" y="288" type="curve"/>
      <point x="508" y="293"/>
      <point x="540" y="368"/>
      <point x="551" y="389" type="curve"/>
      <point x="556" y="405"/>
      <point x="562" y="416"/>
      <point x="562" y="421" type="curve"/>
      <point x="562" y="426"/>
      <point x="627" y="573"/>
      <point x="638" y="600" type="curve"/>
      <point x="675" y="679"/>
      <point x="681" y="685"/>
      <point x="681" y="711" type="curve"/>
      <point x="681" y="727"/>
      <point x="681" y="738"/>
      <point x="670" y="748" type="curve"/>
      <point x="659" y="759"/>
      <point x="654" y="764"/>
      <point x="654" y="764" type="curve"/>
      <point x="649" y="764"/>
      <point x="642" y="763"/>
      <point x="638" y="759" type="curve"/>
      <point x="627" y="759"/>
      <point x="622" y="754"/>
      <point x="622" y="743" type="curve"/>
      <point x="622" y="727"/>
      <point x="498" y="405"/>
      <point x="476" y="363" type="curve"/>
      <point x="476" y="357"/>
      <point x="471" y="352"/>
      <point x="471" y="347" type="curve"/>
      <point x="471" y="341"/>
      <point x="466" y="331"/>
      <point x="466" y="325" type="curve"/>
      <point x="460" y="320"/>
      <point x="455" y="304"/>
      <point x="455" y="293" type="curve"/>
      <point x="455" y="283"/>
      <point x="450" y="272"/>
      <point x="445" y="272" type="curve"/>
      <point x="439" y="261"/>
      <point x="367" y="41"/>
      <point x="362" y="14" type="curve"/>
      <point x="362" y="4"/>
      <point x="357" y="-12"/>
      <point x="351" y="-28" type="curve"/>
      <point x="335" y="-103"/>
      <point x="351" y="-150"/>
    </contour>
    <contour>
      <point x="146" y="178" type="curve"/>
      <point x="184" y="178"/>
      <point x="519" y="182"/>
      <point x="534" y="183" type="curve"/>
      <point x="558" y="185"/>
      <point x="587" y="187"/>
      <point x="597" y="188" type="curve"/>
      <point x="627" y="183"/>
      <point x="633" y="206"/>
      <point x="613" y="226" type="curve"/>
      <point x="598" y="240"/>
      <point x="592" y="241"/>
      <point x="558" y="241" type="curve"/>
      <point x="504" y="241"/>
      <point x="171" y="237"/>
      <point x="126" y="227" type="curve"/>
      <point x="77" y="222"/>
      <point x="67" y="217"/>
      <point x="82" y="197" type="curve"/>
      <point x="87" y="188"/>
      <point x="91" y="183"/>
      <point x="111" y="183" type="curve"/>
      <point x="126" y="178"/>
      <point x="138" y="178"/>
    </contour>
    <contour>
      <point x="169" y="-140" type="curve"/>
      <point x="179" y="-135"/>
      <point x="179" y="-129"/>
      <point x="179" y="-97" type="curve"/>
      <point x="179" y="-60"/>
      <point x="240" y="134"/>
      <point x="262" y="208" type="curve"/>
      <point x="272" y="235"/>
      <point x="278" y="256"/>
      <point x="278" y="261" type="curve"/>
      <point x="278" y="261"/>
      <point x="278" y="272"/>
      <point x="283" y="272" type="curve"/>
      <point x="288" y="277"/>
      <point x="288" y="283"/>
      <point x="288" y="288" type="curve"/>
      <point x="288" y="293"/>
      <point x="320" y="368"/>
      <point x="331" y="389" type="curve"/>
      <point x="336" y="405"/>
      <point x="342" y="416"/>
      <point x="342" y="421" type="curve"/>
      <point x="342" y="426"/>
      <point x="407" y="573"/>
      <point x="418" y="600" type="curve"/>
      <point x="455" y="679"/>
      <point x="461" y="685"/>
      <point x="461" y="711" type="curve"/>
      <point x="461" y="727"/>
      <point x="461" y="738"/>
      <point x="450" y="748" type="curve"/>
      <point x="439" y="759"/>
      <point x="434" y="764"/>
      <point x="434" y="764" type="curve"/>
      <point x="429" y="764"/>
      <point x="422" y="763"/>
      <point x="418" y="759" type="curve"/>
      <point x="407" y="759"/>
      <point x="402" y="754"/>
      <point x="402" y="743" type="curve"/>
      <point x="402" y="727"/>
      <point x="278" y="405"/>
      <point x="256" y="363" type="curve"/>
      <point x="256" y="357"/>
      <point x="251" y="352"/>
      <point x="251" y="347" type="curve"/>
      <point x="251" y="341"/>
      <point x="246" y="331"/>
      <point x="246" y="325" type="curve"/>
      <point x="240" y="320"/>
      <point x="235" y="304"/>
      <point x="235" y="293" type="curve"/>
      <point x="235" y="283"/>
      <point x="230" y="272"/>
      <point x="225" y="272" type="curve"/>
      <point x="219" y="261"/>
      <point x="147" y="41"/>
      <point x="142" y="14" type="curve"/>
      <point x="142" y="4"/>
      <point x="137" y="-12"/>
      <point x="131" y="-28" type="curve"/>
      <point x="115" y="-103"/>
      <point x="131" y="-150"/>
    </contour>
    <contour>
      <point x="207" y="378" type="curve"/>
      <point x="245" y="378"/>
      <point x="580" y="382"/>
      <point x="595" y="383" type="curve"/>
      <point x="619" y="385"/>
      <point x="648" y="387"/>
      <point x="658" y="388" type="curve"/>
      <point x="688" y="383"/>
      <point x="694" y="406"/>
      <point x="674" y="426" type="curve"/>
      <point x="659" y="440"/>
      <point x="653" y="441"/>
      <point x="619" y="441" type="curve"/>
      <point x="565" y="441"/>
      <point x="232" y="437"/>
      <point x="187" y="427" type="curve"/>
      <point x="138" y="422"/>
      <point x="128" y="417"/>
      <point x="143" y="397" type="curve"/>
      <point x="148" y="388"/>
      <point x="152" y="383"/>
      <point x="172" y="383" type="curve"/>
      <point x="187" y="378"/>
      <point x="199" y="378"/>
    </contour>
  </outline>
</glyph>
<glyph name="dollar" format="1">
  <advance width="450"/>
  <unicode hex="0024"/>
  <outline>
    <contour>
      <point x="178" y="-124" type="curve"/>
      <point x="190" y="-121"/>
      <point x="192" y="-115"/>
      <point x="194" y="-83" type="curve"/>
      <point x="199" y="-47"/>
      <point x="279" y="140"/>
      <point x="308" y="214" type="curve"/>
      <point x="323" y="236"/>
      <point x="329" y="256"/>
      <point x="329" y="261" type="curve"/>
      <point x="329" y="261"/>
      <point x="330" y="272"/>
      <point x="335" y="272" type="curve"/>
      <point x="340" y="277"/>
      <point x="344" y="283"/>
      <point x="344" y="288" type="curve"/>
      <point x="345" y="293"/>
      <point x="383" y="363"/>
      <point x="395" y="384" type="curve"/>
      <point x="405" y="400"/>
      <point x="411" y="410"/>
      <point x="411" y="415" type="curve"/>
      <point x="411" y="420"/>
      <point x="491" y="561"/>
      <point x="505" y="586" type="curve"/>
      <point x="547" y="662"/>
      <point x="555" y="666"/>
      <point x="560" y="692" type="curve"/>
      <point x="561" y="707"/>
      <point x="560" y="719"/>
      <point x="553" y="731" type="curve"/>
      <point x="544" y="740"/>
      <point x="539" y="745"/>
      <point x="539" y="745" type="curve"/>
      <point x="534" y="747"/>
      <point x="527" y="747"/>
      <point x="523" y="743" type="curve"/>
      <point x="512" y="745"/>
      <point x="507" y="740"/>
      <point x="503" y="730" type="curve"/>
      <point x="502" y="714"/>
      <point x="355" y="405"/>
      <point x="328" y="363" type="curve"/>
      <point x="328" y="357"/>
      <point x="323" y="355"/>
      <point x="322" y="351" type="curve"/>
      <point x="322" y="346"/>
      <point x="313" y="336"/>
      <point x="313" y="330" type="curve"/>
      <point x="306" y="326"/>
      <point x="301" y="310"/>
      <point x="301" y="299" type="curve"/>
      <point x="300" y="289"/>
      <point x="291" y="278"/>
      <point x="286" y="278" type="curve"/>
      <point x="279" y="267"/>
      <point x="187" y="59"/>
      <point x="178" y="33" type="curve"/>
      <point x="177" y="23"/>
      <point x="173" y="6"/>
      <point x="161" y="-11" type="curve"/>
      <point x="139" y="-84"/>
      <point x="140" y="-132"/>
    </contour>
    <contour>
      <point x="120" y="55" type="curve"/>
      <point x="134" y="45"/>
      <point x="231" y="47"/>
      <point x="271" y="59" type="curve"/>
      <point x="314" y="66"/>
      <point x="377" y="102"/>
      <point x="400" y="120" type="curve"/>
      <point x="422" y="137"/>
      <point x="440" y="159"/>
      <point x="440" y="176" type="curve"/>
      <point x="440" y="193"/>
      <point x="433" y="244"/>
      <point x="426" y="249" type="curve"/>
      <point x="420" y="258"/>
      <point x="417" y="264"/>
      <point x="417" y="264" type="curve"/>
      <point x="417" y="270"/>
      <point x="389" y="307"/>
      <point x="387" y="307" type="curve"/>
      <point x="387" y="307"/>
      <point x="387" y="307"/>
      <point x="387" y="311" type="curve"/>
      <point x="387" y="316"/>
      <point x="363" y="335"/>
      <point x="308" y="393" type="curve"/>
      <point x="298" y="406"/>
      <point x="293" y="420"/>
      <point x="291" y="427" type="curve"/>
      <point x="291" y="443"/>
      <point x="304" y="467"/>
      <point x="339" y="489" type="curve"/>
      <point x="367" y="521"/>
      <point x="414" y="536"/>
      <point x="458" y="538" type="curve"/>
      <point x="504" y="541"/>
      <point x="529" y="511"/>
      <point x="551" y="516" type="curve"/>
      <point x="594" y="547"/>
      <point x="535" y="579"/>
      <point x="502" y="586" type="curve"/>
      <point x="465" y="589"/>
      <point x="465" y="589"/>
      <point x="430" y="580" type="curve"/>
      <point x="430" y="580" type="line" smooth="yes"/>
      <point x="430" y="580" type="line"/>
      <point x="412" y="580"/>
      <point x="394" y="572"/>
      <point x="378" y="569" type="curve"/>
      <point x="365" y="563"/>
      <point x="355" y="560"/>
      <point x="355" y="560" type="curve"/>
      <point x="348" y="560"/>
      <point x="296" y="525"/>
      <point x="280" y="506" type="curve"/>
      <point x="237" y="469"/>
      <point x="221" y="423"/>
      <point x="240" y="393" type="curve"/>
      <point x="244" y="386"/>
      <point x="248" y="381"/>
      <point x="248" y="381" type="curve"/>
      <point x="252" y="379"/>
      <point x="257" y="364"/>
      <point x="263" y="358" type="curve"/>
      <point x="280" y="349"/>
      <point x="294" y="326"/>
      <point x="304" y="310" type="curve"/>
      <point x="322" y="295"/>
      <point x="348" y="275"/>
      <point x="348" y="269" type="curve"/>
      <point x="376" y="225"/>
      <point x="376" y="225"/>
      <point x="378" y="194" type="curve"/>
      <point x="378" y="172"/>
      <point x="380" y="168"/>
      <point x="364" y="153" type="curve"/>
      <point x="354" y="136"/>
      <point x="319" y="118"/>
      <point x="282" y="107" type="curve"/>
      <point x="272" y="101"/>
      <point x="248" y="99"/>
      <point x="218" y="98" type="curve"/>
      <point x="189" y="94"/>
      <point x="172" y="93"/>
      <point x="149" y="96" type="curve"/>
      <point x="98" y="104"/>
      <point x="101" y="118"/>
      <point x="115" y="149" type="curve"/>
      <point x="85" y="165"/>
      <point x="55" y="134"/>
      <point x="55" y="126" type="curve"/>
      <point x="57" y="95"/>
      <point x="72" y="80"/>
      <point x="99" y="67" type="curve"/>
      <point x="108" y="60"/>
      <point x="113" y="57"/>
    </contour>
  </outline>
</glyph>
<glyph name="percent" format="1">
  <advance width="600"/>
  <unicode hex="0025"/>
  <outline>
    <contour>
      <point x="125" y="-94" type="curve"/>
      <point x="134" y="-93"/>
      <point x="138" y="-88"/>
      <point x="149" y="-62" type="curve"/>
      <point x="165" y="-30"/>
      <point x="283" y="115"/>
      <point x="328" y="169" type="curve"/>
      <point x="350" y="188"/>
      <point x="362" y="205"/>
      <point x="362" y="210" type="curve"/>
      <point x="362" y="210"/>
      <point x="365" y="216"/>
      <point x="366" y="215" type="curve"/>
      <point x="374" y="218"/>
      <point x="379" y="220"/>
      <point x="382" y="224" type="curve"/>
      <point x="383" y="229"/>
      <point x="438" y="281"/>
      <point x="455" y="298" type="curve"/>
      <point x="462" y="312"/>
      <point x="469" y="317"/>
      <point x="475" y="318" type="curve"/>
      <point x="477" y="323"/>
      <point x="585" y="424"/>
      <point x="604" y="445" type="curve"/>
      <point x="663" y="499"/>
      <point x="670" y="502"/>
      <point x="681" y="525" type="curve"/>
      <point x="689" y="538"/>
      <point x="691" y="547"/>
      <point x="684" y="560" type="curve"/>
      <point x="678" y="573"/>
      <point x="677" y="579"/>
      <point x="677" y="579" type="curve"/>
      <point x="672" y="581"/>
      <point x="665" y="581"/>
      <point x="661" y="579" type="curve"/>
      <point x="653" y="583"/>
      <point x="647" y="582"/>
      <point x="642" y="572" type="curve"/>
      <point x="635" y="558"/>
      <point x="414" y="332"/>
      <point x="379" y="302" type="curve"/>
      <point x="378" y="296"/>
      <point x="371" y="293"/>
      <point x="370" y="288" type="curve"/>
      <point x="368" y="282"/>
      <point x="364" y="279"/>
      <point x="361" y="273" type="curve"/>
      <point x="352" y="271"/>
      <point x="341" y="262"/>
      <point x="337" y="251" type="curve"/>
      <point x="334" y="241"/>
      <point x="326" y="232"/>
      <point x="321" y="234" type="curve"/>
      <point x="316" y="224"/>
      <point x="173" y="69"/>
      <point x="158" y="45" type="curve"/>
      <point x="155" y="36"/>
      <point x="145" y="27"/>
      <point x="133" y="17" type="curve"/>
      <point x="90" y="-44"/>
      <point x="89" y="-88"/>
    </contour>
    <contour>
      <point x="476" y="33" type="curve"/>
      <point x="409" y="-39"/>
      <point x="374" y="-7"/>
      <point x="397" y="48" type="curve"/>
      <point x="420" y="97"/>
      <point x="441" y="139"/>
      <point x="474" y="165" type="curve"/>
      <point x="493" y="183"/>
      <point x="512" y="184"/>
      <point x="525" y="177" type="curve"/>
      <point x="531" y="173"/>
      <point x="531" y="136"/>
      <point x="526" y="119" type="curve"/>
      <point x="513" y="81"/>
      <point x="500" y="60"/>
    </contour>
    <contour>
      <point x="400" y="-58" type="curve"/>
      <point x="424" y="-57"/>
      <point x="440" y="-50"/>
      <point x="463" y="-35" type="curve"/>
      <point x="493" y="-17"/>
      <point x="513" y="-3"/>
      <point x="540" y="35" type="curve"/>
      <point x="582" y="96"/>
      <point x="584" y="134"/>
      <point x="581" y="166" type="curve"/>
      <point x="578" y="195"/>
      <point x="568" y="208"/>
      <point x="544" y="218" type="curve"/>
      <point x="528" y="235"/>
      <point x="524" y="233"/>
      <point x="500" y="227" type="curve"/>
      <point x="476" y="222"/>
      <point x="459" y="213"/>
      <point x="432" y="190" type="curve"/>
      <point x="412" y="174"/>
      <point x="385" y="138"/>
      <point x="376" y="122" type="curve"/>
      <point x="360" y="96"/>
      <point x="347" y="61"/>
      <point x="349" y="53" type="curve"/>
      <point x="350" y="48"/>
      <point x="350" y="44"/>
      <point x="346" y="44" type="curve"/>
      <point x="344" y="40"/>
      <point x="340" y="40"/>
      <point x="345" y="34" type="curve"/>
      <point x="345" y="34"/>
      <point x="347" y="25"/>
      <point x="344" y="16" type="curve"/>
      <point x="340" y="-2"/>
      <point x="348" y="-22"/>
      <point x="369" y="-43" type="curve"/>
      <point x="380" y="-53"/>
      <point x="386" y="-58"/>
    </contour>
    <contour>
      <point x="337" y="402" type="curve"/>
      <point x="270" y="330"/>
      <point x="235" y="362"/>
      <point x="258" y="417" type="curve"/>
      <point x="281" y="466"/>
      <point x="302" y="508"/>
      <point x="335" y="534" type="curve"/>
      <point x="354" y="552"/>
      <point x="373" y="553"/>
      <point x="386" y="546" type="curve"/>
      <point x="392" y="542"/>
      <point x="392" y="505"/>
      <point x="387" y="488" type="curve"/>
      <point x="374" y="450"/>
      <point x="361" y="429"/>
    </contour>
    <contour>
      <point x="260" y="312" type="curve"/>
      <point x="284" y="313"/>
      <point x="300" y="320"/>
      <point x="323" y="335" type="curve"/>
      <point x="353" y="353"/>
      <point x="373" y="367"/>
      <point x="400" y="405" type="curve"/>
      <point x="442" y="466"/>
      <point x="444" y="504"/>
      <point x="441" y="536" type="curve"/>
      <point x="438" y="565"/>
      <point x="428" y="578"/>
      <point x="404" y="588" type="curve"/>
      <point x="388" y="605"/>
      <point x="384" y="603"/>
      <point x="360" y="597" type="curve"/>
      <point x="336" y="592"/>
      <point x="319" y="583"/>
      <point x="292" y="560" type="curve"/>
      <point x="272" y="544"/>
      <point x="245" y="508"/>
      <point x="236" y="492" type="curve"/>
      <point x="220" y="466"/>
      <point x="207" y="431"/>
      <point x="209" y="423" type="curve"/>
      <point x="210" y="418"/>
      <point x="210" y="414"/>
      <point x="206" y="414" type="curve"/>
      <point x="204" y="410"/>
      <point x="200" y="410"/>
      <point x="205" y="404" type="curve"/>
      <point x="205" y="404"/>
      <point x="207" y="395"/>
      <point x="204" y="386" type="curve"/>
      <point x="200" y="368"/>
      <point x="208" y="348"/>
      <point x="229" y="327" type="curve"/>
      <point x="240" y="317"/>
      <point x="246" y="312"/>
    </contour>
  </outline>
</glyph>
<glyph name="ampersand" format="1">
  <advance width="564"/>
  <unicode hex="0026"/>
  <outline>
    <contour>
      <point x="657" y="-54" type="curve"/>
      <point x="655" y="-25"/>
      <point x="636" y="-7"/>
      <point x="595" y="7" type="curve"/>
      <point x="564" y="17"/>
      <point x="547" y="31"/>
      <point x="503" y="76" type="curve"/>
      <point x="487" y="91"/>
      <point x="466" y="116"/>
      <point x="466" y="116" type="curve"/>
      <point x="505" y="156"/>
      <point x="602" y="235"/>
      <point x="638" y="281" type="curve"/>
      <point x="640" y="283"/>
      <point x="658" y="319"/>
      <point x="632" y="324" type="curve"/>
      <point x="617" y="338"/>
      <point x="617" y="338"/>
      <point x="568" y="286" type="curve"/>
      <point x="519" y="240"/>
      <point x="471" y="201"/>
      <point x="427" y="159" type="curve"/>
      <point x="414" y="159"/>
      <point x="310" y="294"/>
      <point x="313" y="302" type="curve"/>
      <point x="314" y="307"/>
      <point x="374" y="361"/>
      <point x="397" y="381" type="curve"/>
      <point x="407" y="385"/>
      <point x="415" y="396"/>
      <point x="415" y="402" type="curve"/>
      <point x="415" y="402"/>
      <point x="437" y="422"/>
      <point x="455" y="443" type="curve"/>
      <point x="500" y="483"/>
      <point x="530" y="523"/>
      <point x="530" y="540" type="curve"/>
      <point x="530" y="558"/>
      <point x="521" y="581"/>
      <point x="492" y="603" type="curve"/>
      <point x="476" y="621"/>
      <point x="463" y="623"/>
      <point x="415" y="629" type="curve"/>
      <point x="388" y="638"/>
      <point x="354" y="641"/>
      <point x="347" y="637" type="curve"/>
      <point x="342" y="637"/>
      <point x="336" y="631"/>
      <point x="331" y="640" type="curve"/>
      <point x="327" y="646"/>
      <point x="262" y="585"/>
      <point x="236" y="543" type="curve"/>
      <point x="179" y="442"/>
      <point x="182" y="391"/>
      <point x="231" y="321" type="curve"/>
      <point x="162" y="252"/>
      <point x="82" y="143"/>
      <point x="75" y="119" type="curve"/>
      <point x="73" y="112"/>
      <point x="65" y="76"/>
      <point x="75" y="70" type="curve"/>
      <point x="85" y="59"/>
      <point x="121" y="29"/>
      <point x="137" y="24" type="curve"/>
      <point x="175" y="11"/>
      <point x="212" y="7"/>
      <point x="258" y="11" type="curve"/>
      <point x="313" y="27"/>
      <point x="337" y="41"/>
      <point x="417" y="85" type="curve"/>
      <point x="469" y="23"/>
      <point x="518" y="-23"/>
      <point x="543" y="-30" type="curve"/>
      <point x="583" y="-54"/>
      <point x="660" y="-87"/>
    </contour>
    <contour>
      <point x="166" y="67" type="curve"/>
      <point x="146" y="80"/>
      <point x="142" y="97"/>
      <point x="156" y="130" type="curve"/>
      <point x="176" y="161"/>
      <point x="187" y="182"/>
      <point x="218" y="206" type="curve"/>
      <point x="230" y="226"/>
      <point x="265" y="263"/>
      <point x="271" y="263" type="curve"/>
      <point x="271" y="263"/>
      <point x="282" y="241"/>
      <point x="302" y="223" type="curve"/>
      <point x="320" y="200"/>
      <point x="341" y="171"/>
      <point x="351" y="160" type="curve"/>
      <point x="376" y="131" type="line"/>
      <point x="357" y="117" type="line"/>
      <point x="280" y="65"/>
      <point x="225" y="49"/>
    </contour>
    <contour>
      <point x="280" y="357" type="curve"/>
      <point x="240" y="403"/>
      <point x="251" y="461"/>
      <point x="285" y="510" type="curve"/>
      <point x="316" y="554"/>
      <point x="352" y="589"/>
      <point x="379" y="587" type="curve"/>
      <point x="402" y="588"/>
      <point x="452" y="566"/>
      <point x="457" y="558" type="curve"/>
      <point x="472" y="502"/>
      <point x="317" y="397"/>
    </contour>
  </outline>
</glyph>
<glyph name="quotesingle" format="1">
  <advance width="117"/>
  <unicode hex="0027"/>
  <outline>
    <contour>
      <point x="189" y="440" type="curve"/>
      <point x="204" y="445"/>
      <point x="214" y="445"/>
      <point x="213" y="450" type="curve"/>
      <point x="236" y="476"/>
      <point x="256" y="500"/>
      <point x="264" y="530" type="curve"/>
      <point x="272" y="556"/>
      <point x="285" y="583"/>
      <point x="288" y="615" type="curve"/>
      <point x="292" y="637"/>
      <point x="265" y="646"/>
      <point x="247" y="655" type="curve"/>
      <point x="237" y="660"/>
      <point x="234" y="637"/>
      <point x="235" y="628" type="curve"/>
      <point x="235" y="603"/>
      <point x="226" y="577"/>
      <point x="224" y="563" type="curve"/>
      <point x="217" y="543"/>
      <point x="192" y="499"/>
      <point x="176" y="473" type="curve"/>
      <point x="169" y="463"/>
      <point x="164" y="456"/>
      <point x="166" y="447" type="curve"/>
      <point x="175" y="439"/>
      <point x="175" y="439"/>
    </contour>
  </outline>
</glyph>
<glyph name="parenright" format="1">
  <advance width="330"/>
  <unicode hex="0029"/>
  <outline>
    <contour>
      <point x="72" y="-120" type="curve"/>
      <point x="99" y="-128"/>
      <point x="144" y="-101"/>
      <point x="175" y="-59" type="curve"/>
      <point x="198" y="-21"/>
      <point x="254" y="56"/>
      <point x="248" y="55" type="curve"/>
      <point x="268" y="86"/>
      <point x="323" y="228"/>
      <point x="341" y="298" type="curve"/>
      <point x="354" y="361"/>
      <point x="368" y="456"/>
      <point x="369" y="527" type="curve"/>
      <point x="375" y="623"/>
      <point x="375" y="623"/>
      <point x="359" y="660" type="curve"/>
      <point x="345" y="699"/>
      <point x="333" y="717"/>
      <point x="328" y="712" type="curve"/>
      <point x="324" y="717"/>
      <point x="310" y="727"/>
      <point x="301" y="727" type="curve"/>
      <point x="289" y="728"/>
      <point x="284" y="719"/>
      <point x="285" y="714" type="curve"/>
      <point x="279" y="695"/>
      <point x="287" y="683"/>
      <point x="291" y="683" type="curve"/>
      <point x="297" y="683"/>
      <point x="302" y="671"/>
      <point x="308" y="651" type="curve"/>
      <point x="323" y="626"/>
      <point x="318" y="614"/>
      <point x="315" y="525" type="curve"/>
      <point x="309" y="419"/>
      <point x="306" y="383"/>
      <point x="284" y="311" type="curve"/>
      <point x="282" y="283"/>
      <point x="265" y="250"/>
      <point x="265" y="246" type="curve"/>
      <point x="266" y="231"/>
      <point x="259" y="215"/>
      <point x="251" y="211" type="curve"/>
      <point x="252" y="198"/>
      <point x="246" y="187"/>
      <point x="246" y="187" type="curve"/>
      <point x="246" y="180"/>
      <point x="230" y="155"/>
      <point x="215" y="122" type="curve"/>
      <point x="199" y="96"/>
      <point x="197" y="77"/>
      <point x="197" y="71" type="curve"/>
      <point x="189" y="58"/>
      <point x="182" y="46"/>
      <point x="161" y="31" type="curve"/>
      <point x="154" y="13"/>
      <point x="130" y="-17"/>
      <point x="116" y="-37" type="curve"/>
      <point x="96" y="-60"/>
      <point x="91" y="-65"/>
      <point x="65" y="-63" type="curve"/>
      <point x="44" y="-69"/>
      <point x="36" y="-61"/>
      <point x="36" y="-61" type="curve"/>
      <point x="31" y="-70"/>
      <point x="32" y="-78"/>
      <point x="31" y="-82" type="curve"/>
      <point x="32" y="-102"/>
      <point x="47" y="-113"/>
    </contour>
  </outline>
</glyph>
<glyph name="asterisk" format="1">
  <advance width="363"/>
  <unicode hex="002A"/>
  <outline>
    <contour>
      <point x="422" y="407" type="curve"/>
      <point x="427" y="407"/>
      <point x="442" y="434"/>
      <point x="435" y="436" type="curve"/>
      <point x="435" y="436"/>
      <point x="435" y="442"/>
      <point x="435" y="442" type="curve"/>
      <point x="439" y="445"/>
      <point x="427" y="463"/>
      <point x="422" y="463" type="curve"/>
      <point x="418" y="463"/>
      <point x="413" y="463"/>
      <point x="413" y="459" type="curve"/>
      <point x="413" y="453"/>
      <point x="413" y="453"/>
      <point x="409" y="453" type="curve"/>
      <point x="408" y="453"/>
      <point x="405" y="472"/>
      <point x="398" y="497" type="curve"/>
      <point x="397" y="511"/>
      <point x="397" y="524"/>
      <point x="395" y="532" type="curve"/>
      <point x="388" y="542"/>
      <point x="388" y="549"/>
      <point x="395" y="549" type="curve"/>
      <point x="397" y="555"/>
      <point x="427" y="565"/>
      <point x="460" y="575" type="curve"/>
      <point x="495" y="586"/>
      <point x="520" y="600"/>
      <point x="522" y="601" type="curve"/>
      <point x="522" y="607"/>
      <point x="518" y="628"/>
      <point x="508" y="638" type="curve"/>
      <point x="501" y="642"/>
      <point x="495" y="642"/>
      <point x="484" y="638" type="curve"/>
      <point x="476" y="633"/>
      <point x="465" y="629"/>
      <point x="460" y="629" type="curve"/>
      <point x="457" y="628"/>
      <point x="442" y="625"/>
      <point x="427" y="618" type="curve"/>
      <point x="413" y="615"/>
      <point x="398" y="608"/>
      <point x="398" y="608" type="curve"/>
      <point x="395" y="608"/>
      <point x="409" y="652"/>
      <point x="439" y="696" type="curve"/>
      <point x="452" y="713" type="line"/>
      <point x="442" y="729" type="line" smooth="yes"/>
      <point x="439" y="739"/>
      <point x="432" y="742"/>
      <point x="427" y="749" type="curve"/>
      <point x="424" y="751"/>
      <point x="422" y="751"/>
      <point x="413" y="740" type="curve"/>
      <point x="413" y="740" type="line" smooth="yes"/>
      <point x="413" y="740" type="line"/>
      <point x="408" y="739"/>
      <point x="405" y="729"/>
      <point x="405" y="729" type="curve"/>
      <point x="405" y="729"/>
      <point x="398" y="721"/>
      <point x="395" y="713" type="curve"/>
      <point x="388" y="704"/>
      <point x="374" y="677"/>
      <point x="356" y="652" type="curve"/>
      <point x="353" y="628"/>
      <point x="339" y="607"/>
      <point x="339" y="607" type="curve"/>
      <point x="329" y="607"/>
      <point x="321" y="617"/>
      <point x="311" y="638" type="curve"/>
      <point x="301" y="652"/>
      <point x="296" y="662"/>
      <point x="291" y="662" type="curve"/>
      <point x="285" y="667"/>
      <point x="282" y="667"/>
      <point x="282" y="667" type="curve"/>
      <point x="277" y="662"/>
      <point x="277" y="633"/>
      <point x="285" y="628" type="curve"/>
      <point x="285" y="628"/>
      <point x="285" y="625"/>
      <point x="285" y="618" type="curve"/>
      <point x="285" y="615"/>
      <point x="287" y="607"/>
      <point x="291" y="601" type="curve"/>
      <point x="296" y="600"/>
      <point x="296" y="594"/>
      <point x="296" y="594" type="curve"/>
      <point x="291" y="594"/>
      <point x="296" y="590"/>
      <point x="301" y="584" type="curve"/>
      <point x="312" y="574"/>
      <point x="312" y="573"/>
      <point x="301" y="563" type="curve"/>
      <point x="291" y="555"/>
      <point x="205" y="469"/>
      <point x="191" y="452" type="curve"/>
      <point x="187" y="442"/>
      <point x="187" y="425"/>
      <point x="189" y="421" type="curve"/>
      <point x="189" y="420"/>
      <point x="191" y="411"/>
      <point x="200" y="410" type="curve"/>
      <point x="208" y="409"/>
      <point x="214" y="410"/>
      <point x="252" y="445" type="curve"/>
      <point x="312" y="505"/>
      <point x="353" y="532"/>
      <point x="354" y="531" type="curve"/>
      <point x="354" y="531"/>
      <point x="355" y="511"/>
      <point x="356" y="494" type="curve"/>
      <point x="364" y="472"/>
      <point x="370" y="453"/>
      <point x="374" y="444" type="curve"/>
      <point x="387" y="420"/>
      <point x="408" y="398"/>
    </contour>
  </outline>
</glyph>
<glyph name="plus" format="2">
  <advance width="446"/>
  <unicode hex="002B"/>
  <outline>
    <contour>
      <point x="178" y="178" type="curve"/>
      <point x="216" y="178"/>
      <point x="371" y="182"/>
      <point x="386" y="183" type="curve"/>
      <point x="410" y="185"/>
      <point x="439" y="187"/>
      <point x="449" y="188" type="curve"/>
      <point x="479" y="183"/>
      <point x="485" y="206"/>
      <point x="465" y="226" type="curve"/>
      <point x="450" y="240"/>
      <point x="444" y="241"/>
      <point x="410" y="241" type="curve"/>
      <point x="356" y="241"/>
      <point x="203" y="237"/>
      <point x="158" y="227" type="curve"/>
      <point x="109" y="222"/>
      <point x="99" y="217"/>
      <point x="114" y="197" type="curve"/>
      <point x="119" y="188"/>
      <point x="123" y="183"/>
      <point x="143" y="183" type="curve"/>
      <point x="158" y="178"/>
      <point x="170" y="178"/>
    </contour>
    <contour>
      <point x="304" y="31" type="curve"/>
      <point x="313" y="36"/>
      <point x="318" y="40"/>
      <point x="318" y="60" type="curve"/>
      <point x="323" y="75"/>
      <point x="323" y="87"/>
      <point x="323" y="95" type="curve"/>
      <point x="323" y="133"/>
      <point x="319" y="288"/>
      <point x="318" y="303" type="curve"/>
      <point x="316" y="327"/>
      <point x="314" y="356"/>
      <point x="313" y="366" type="curve"/>
      <point x="318" y="396"/>
      <point x="295" y="402"/>
      <point x="275" y="382" type="curve"/>
      <point x="261" y="367"/>
      <point x="260" y="361"/>
      <point x="260" y="327" type="curve"/>
      <point x="260" y="273"/>
      <point x="264" y="120"/>
      <point x="274" y="75" type="curve"/>
      <point x="279" y="26"/>
      <point x="284" y="16"/>
    </contour>
  </outline>
</glyph>
<glyph name="comma" format="2">
  <advance width="198"/>
  <unicode hex="002C"/>
  <outline>
    <contour>
      <point x="52" y="-79" type="curve"/>
      <point x="67" y="-79"/>
      <point x="77" y="-79"/>
      <point x="82" y="-74" type="curve"/>
      <point x="87" y="-69"/>
      <point x="91" y="-65"/>
      <point x="96" y="-65" type="curve"/>
      <point x="101" y="-65"/>
      <point x="140" y="-20"/>
      <point x="145" y="-6" type="curve"/>
      <point x="160" y="29"/>
      <point x="165" y="48"/>
      <point x="160" y="78" type="curve"/>
      <point x="155" y="122"/>
      <point x="145" y="131"/>
      <point x="131" y="117" type="curve"/>
      <point x="126" y="112"/>
      <point x="126" y="102"/>
      <point x="126" y="92" type="curve"/>
      <point x="121" y="68"/>
      <point x="116" y="48"/>
      <point x="111" y="33" type="curve"/>
      <point x="101" y="14"/>
      <point x="67" y="-25"/>
      <point x="47" y="-45" type="curve"/>
      <point x="38" y="-55"/>
      <point x="33" y="-60"/>
      <point x="33" y="-69" type="curve"/>
      <point x="38" y="-79"/>
      <point x="38" y="-79"/>
    </contour>
  </outline>
</glyph>
<glyph name="hyphen" format="1">
  <advance width="326"/>
  <unicode hex="002D"/>
  <outline>
    <contour>
      <point x="178" y="178" type="curve"/>
      <point x="216" y="178"/>
      <point x="251" y="182"/>
      <point x="266" y="183" type="curve"/>
      <point x="290" y="185"/>
      <point x="319" y="187"/>
      <point x="329" y="188" type="curve"/>
      <point x="359" y="183"/>
      <point x="365" y="206"/>
      <point x="345" y="226" type="curve"/>
      <point x="330" y="240"/>
      <point x="324" y="241"/>
      <point x="290" y="241" type="curve"/>
      <point x="236" y="241"/>
      <point x="203" y="237"/>
      <point x="158" y="227" type="curve"/>
      <point x="109" y="222"/>
      <point x="99" y="217"/>
      <point x="114" y="197" type="curve"/>
      <point x="119" y="188"/>
      <point x="123" y="183"/>
      <point x="143" y="183" type="curve"/>
      <point x="158" y="178"/>
      <point x="170" y="178"/>
    </contour>
  </outline>
</glyph>
<glyph name="period" format="1">
  <advance width="198"/>
  <unicode hex="002E"/>
  <outline>
    <contour>
      <point x="153" y="52" type="curve"/>
      <point x="202" y="76"/>
      <point x="207" y="110"/>
      <point x="167" y="135" type="curve"/>
      <point x="143" y="145"/>
      <point x="138" y="145"/>
      <point x="114" y="130" type="curve"/>
      <point x="79" y="106"/>
      <point x="69" y="81"/>
      <point x="94" y="57" type="curve"/>
      <point x="114" y="42"/>
      <point x="128" y="42"/>
    </contour>
  </outline>
</glyph>
<glyph name="zero" format="1">
  <advance width="450"/>
  <unicode hex="0030"/>
  <outline>
    <contour>
      <point x="280" y="21" type="curve"/>
      <point x="300" y="21"/>
      <point x="349" y="49"/>
      <point x="369" y="70" type="curve"/>
      <point x="393" y="94"/>
      <point x="413" y="120"/>
      <point x="413" y="125" type="curve"/>
      <point x="413" y="129"/>
      <point x="418" y="129"/>
      <point x="418" y="129" type="curve"/>
      <point x="423" y="129"/>
      <point x="442" y="165"/>
      <point x="442" y="170" type="curve"/>
      <point x="437" y="175"/>
      <point x="442" y="179"/>
      <point x="447" y="184" type="curve"/>
      <point x="452" y="194"/>
      <point x="467" y="229"/>
      <point x="472" y="239" type="curve"/>
      <point x="472" y="244"/>
      <point x="472" y="252"/>
      <point x="476" y="260" type="curve"/>
      <point x="486" y="284"/>
      <point x="506" y="374"/>
      <point x="506" y="399" type="curve"/>
      <point x="506" y="414"/>
      <point x="501" y="434"/>
      <point x="496" y="445" type="curve"/>
      <point x="486" y="474" type="line"/>
      <point x="496" y="474" type="line"/>
      <point x="506" y="469"/>
      <point x="506" y="474"/>
      <point x="506" y="484" type="curve"/>
      <point x="506" y="504"/>
      <point x="457" y="533"/>
      <point x="418" y="533" type="curve"/>
      <point x="408" y="533"/>
      <point x="388" y="533"/>
      <point x="374" y="529" type="curve"/>
      <point x="334" y="519"/>
      <point x="310" y="504"/>
      <point x="276" y="474" type="curve"/>
      <point x="212" y="419"/>
      <point x="158" y="329"/>
      <point x="143" y="244" type="curve"/>
      <point x="133" y="179"/>
      <point x="158" y="104"/>
      <point x="202" y="62" type="curve"/>
      <point x="222" y="44"/>
      <point x="266" y="21"/>
    </contour>
    <contour>
      <point x="277" y="84" type="curve"/>
      <point x="252" y="79"/>
      <point x="248" y="79"/>
      <point x="233" y="93" type="curve"/>
      <point x="229" y="98"/>
      <point x="214" y="114"/>
      <point x="209" y="123" type="curve"/>
      <point x="199" y="142"/>
      <point x="195" y="156"/>
      <point x="195" y="191" type="curve"/>
      <point x="195" y="211"/>
      <point x="195" y="240"/>
      <point x="195" y="245" type="curve"/>
      <point x="199" y="260"/>
      <point x="219" y="308"/>
      <point x="229" y="323" type="curve"/>
      <point x="233" y="333"/>
      <point x="238" y="342"/>
      <point x="238" y="347" type="curve"/>
      <point x="238" y="352"/>
      <point x="257" y="382"/>
      <point x="281" y="406" type="curve"/>
      <point x="310" y="442"/>
      <point x="339" y="460"/>
      <point x="339" y="442" type="curve"/>
      <point x="339" y="435"/>
      <point x="353" y="430"/>
      <point x="363" y="435" type="curve"/>
      <point x="373" y="442"/>
      <point x="406" y="455"/>
      <point x="416" y="455" type="curve"/>
      <point x="425" y="455"/>
      <point x="435" y="450"/>
      <point x="440" y="446" type="curve"/>
      <point x="449" y="435"/>
      <point x="449" y="430"/>
      <point x="449" y="395" type="curve"/>
      <point x="444" y="377"/>
      <point x="444" y="347"/>
      <point x="444" y="333" type="curve"/>
      <point x="444" y="318"/>
      <point x="440" y="294"/>
      <point x="430" y="279" type="curve"/>
      <point x="411" y="225"/>
      <point x="406" y="211"/>
      <point x="392" y="191" type="curve"/>
      <point x="377" y="156"/>
      <point x="339" y="114"/>
      <point x="315" y="98" type="curve"/>
      <point x="305" y="88"/>
      <point x="291" y="84"/>
    </contour>
  </outline>
</glyph>
<glyph name="five" format="1">
  <advance width="450"/>
  <unicode hex="0035"/>
  <outline>
    <contour>
      <point x="167" y="24" type="curve"/>
      <point x="226" y="-15"/>
      <point x="353" y="33"/>
      <point x="415" y="119" type="curve"/>
      <point x="433" y="147"/>
      <point x="434" y="156"/>
      <point x="438" y="186" type="curve"/>
      <point x="448" y="254"/>
      <point x="423" y="323"/>
      <point x="368" y="355" type="curve"/>
      <point x="335" y="375"/>
      <point x="325" y="376"/>
      <point x="292" y="381" type="curve"/>
      <point x="267" y="384"/>
      <point x="268" y="389"/>
      <point x="269" y="399" type="curve"/>
      <point x="270" y="404"/>
      <point x="270" y="409"/>
      <point x="270" y="409" type="curve"/>
      <point x="275" y="403"/>
      <point x="275" y="408"/>
      <point x="282" y="416" type="curve"/>
      <point x="282" y="421"/>
      <point x="288" y="427"/>
      <point x="288" y="427" type="curve"/>
      <point x="293" y="426"/>
      <point x="294" y="431"/>
      <point x="299" y="435" type="curve"/>
      <point x="306" y="450"/>
      <point x="344" y="478"/>
      <point x="372" y="489" type="curve"/>
      <point x="408" y="500"/>
      <point x="443" y="504"/>
      <point x="462" y="492" type="curve"/>
      <point x="485" y="480"/>
      <point x="498" y="502"/>
      <point x="482" y="530" type="curve"/>
      <point x="466" y="551"/>
      <point x="455" y="553"/>
      <point x="416" y="554" type="curve"/>
      <point x="361" y="557"/>
      <point x="308" y="534"/>
      <point x="268" y="490" type="curve"/>
      <point x="237" y="459"/>
      <point x="193" y="385"/>
      <point x="189" y="366" type="curve"/>
      <point x="189" y="356"/>
      <point x="219" y="332"/>
      <point x="229" y="330" type="curve"/>
      <point x="229" y="330"/>
      <point x="249" y="327"/>
      <point x="270" y="329" type="curve"/>
      <point x="290" y="332"/>
      <point x="319" y="328"/>
      <point x="329" y="326" type="curve"/>
      <point x="351" y="317"/>
      <point x="380" y="293"/>
      <point x="387" y="273" type="curve"/>
      <point x="391" y="262"/>
      <point x="393" y="251"/>
      <point x="393" y="251" type="curve"/>
      <point x="403" y="251"/>
      <point x="388" y="183"/>
      <point x="375" y="155" type="curve"/>
      <point x="343" y="113"/>
      <point x="273" y="68"/>
      <point x="217" y="67" type="curve"/>
      <point x="188" y="66"/>
      <point x="168" y="73"/>
      <point x="166" y="84" type="curve"/>
      <point x="163" y="99"/>
      <point x="137" y="103"/>
      <point x="130" y="88" type="curve"/>
      <point x="128" y="79"/>
      <point x="134" y="49"/>
      <point x="140" y="52" type="curve"/>
      <point x="145" y="52"/>
      <point x="145" y="52"/>
      <point x="149" y="46" type="curve"/>
      <point x="149" y="41"/>
      <point x="157" y="31"/>
    </contour>
  </outline>
</glyph>
<glyph name="seven" format="1">
  <advance width="450"/>
  <unicode hex="0037"/>
  <outline>
    <contour>
      <point x="221" y="-18" type="curve"/>
      <point x="243" y="-23"/>
      <point x="279" y="5"/>
      <point x="269" y="19" type="curve"/>
      <point x="266" y="29"/>
      <point x="263" y="35"/>
      <point x="252" y="32" type="curve"/>
      <point x="245" y="33"/>
      <point x="251" y="73"/>
      <point x="259" y="88" type="curve"/>
      <point x="262" y="97"/>
      <point x="269" y="103"/>
      <point x="271" y="110" type="curve"/>
      <point x="283" y="129"/>
      <point x="316" y="197"/>
      <point x="330" y="218" type="curve"/>
      <point x="336" y="226"/>
      <point x="342" y="234"/>
      <point x="347" y="237" type="curve"/>
      <point x="352" y="237"/>
      <point x="388" y="226"/>
      <point x="394" y="214" type="curve"/>
      <point x="398" y="209"/>
      <point x="416" y="206"/>
      <point x="423" y="215" type="curve"/>
      <point x="428" y="217"/>
      <point x="429" y="222"/>
      <point x="428" y="238" type="curve"/>
      <point x="422" y="256"/>
      <point x="407" y="268"/>
      <point x="385" y="278" type="curve"/>
      <point x="367" y="286"/>
      <point x="367" y="291"/>
      <point x="386" y="309" type="curve"/>
      <point x="394" y="321"/>
      <point x="439" y="389"/>
      <point x="441" y="392" type="curve"/>
      <point x="442" y="396"/>
      <point x="449" y="404"/>
      <point x="450" y="409" type="curve"/>
      <point x="457" y="417"/>
      <point x="464" y="421"/>
      <point x="466" y="426" type="curve"/>
      <point x="466" y="426"/>
      <point x="469" y="434"/>
      <point x="476" y="440" type="curve"/>
      <point x="481" y="444"/>
      <point x="493" y="461"/>
      <point x="497" y="476" type="curve"/>
      <point x="501" y="496"/>
      <point x="498" y="501"/>
      <point x="485" y="524" type="curve"/>
      <point x="477" y="537"/>
      <point x="476" y="546"/>
      <point x="471" y="548" type="curve"/>
      <point x="470" y="543"/>
      <point x="465" y="549"/>
      <point x="465" y="549" type="curve"/>
      <point x="456" y="565"/>
      <point x="411" y="564"/>
      <point x="365" y="557" type="curve"/>
      <point x="297" y="540"/>
      <point x="237" y="522"/>
      <point x="234" y="507" type="curve"/>
      <point x="231" y="492"/>
      <point x="235" y="475"/>
      <point x="247" y="473" type="curve"/>
      <point x="261" y="465"/>
      <point x="275" y="469"/>
      <point x="324" y="490" type="curve"/>
      <point x="374" y="509"/>
      <point x="395" y="516"/>
      <point x="417" y="517" type="curve"/>
      <point x="455" y="519"/>
      <point x="451" y="495"/>
      <point x="387" y="405" type="curve"/>
      <point x="369" y="372"/>
      <point x="342" y="337"/>
      <point x="332" y="319" type="curve"/>
      <point x="313" y="295"/>
      <point x="312" y="291"/>
      <point x="294" y="294" type="curve"/>
      <point x="286" y="295"/>
      <point x="275" y="295"/>
      <point x="268" y="295" type="curve"/>
      <point x="253" y="295"/>
      <point x="236" y="296"/>
      <point x="218" y="296" type="curve"/>
      <point x="207" y="298"/>
      <point x="202" y="299"/>
      <point x="207" y="298" type="curve"/>
      <point x="223" y="293"/>
      <point x="222" y="288"/>
      <point x="209" y="285" type="curve"/>
      <point x="197" y="283"/>
      <point x="200" y="268"/>
      <point x="221" y="257" type="curve"/>
      <point x="225" y="252"/>
      <point x="245" y="249"/>
      <point x="257" y="246" type="curve"/>
      <point x="284" y="246"/>
      <point x="284" y="246"/>
      <point x="255" y="198" type="curve"/>
      <point x="210" y="113"/>
      <point x="180" y="45"/>
      <point x="185" y="20" type="curve"/>
      <point x="193" y="1"/>
      <point x="205" y="-15"/>
    </contour>
  </outline>
</glyph>
<glyph name="semicolon" format="2">
  <advance width="198"/>
  <unicode hex="003B"/>
  <outline>
    <contour>
      <point x="59" y="-79" type="curve"/>
      <point x="74" y="-79"/>
      <point x="84" y="-79"/>
      <point x="89" y="-74" type="curve"/>
      <point x="94" y="-69"/>
      <point x="98" y="-65"/>
      <point x="103" y="-65" type="curve"/>
      <point x="108" y="-65"/>
      <point x="147" y="-20"/>
      <point x="152" y="-6" type="curve"/>
      <point x="167" y="29"/>
      <point x="172" y="48"/>
      <point x="167" y="78" type="curve"/>
      <point x="162" y="122"/>
      <point x="152" y="131"/>
      <point x="138" y="117" type="curve"/>
      <point x="133" y="112"/>
      <point x="133" y="102"/>
      <point x="133" y="92" type="curve"/>
      <point x="128" y="68"/>
      <point x="123" y="48"/>
      <point x="118" y="33" type="curve"/>
      <point x="108" y="14"/>
      <point x="74" y="-25"/>
      <point x="54" y="-45" type="curve"/>
      <point x="45" y="-55"/>
      <point x="40" y="-60"/>
      <point x="40" y="-69" type="curve"/>
      <point x="45" y="-79"/>
      <point x="45" y="-79"/>
    </contour>
    <contour>
      <point x="229" y="262" type="curve"/>
      <point x="278" y="286"/>
      <point x="283" y="320"/>
      <point x="243" y="345" type="curve"/>
      <point x="219" y="355"/>
      <point x="214" y="355"/>
      <point x="190" y="340" type="curve"/>
      <point x="155" y="316"/>
      <point x="145" y="291"/>
      <point x="170" y="267" type="curve"/>
      <point x="190" y="252"/>
      <point x="204" y="252"/>
    </contour>
  </outline>
</glyph>
<glyph name="equal" format="2">
  <advance width="446"/>
  <unicode hex="003D"/>
  <outline>
    <contour>
      <point x="241" y="275" type="curve"/>
      <point x="286" y="275"/>
      <point x="348" y="279"/>
      <point x="363" y="280" type="curve"/>
      <point x="394" y="282"/>
      <point x="427" y="284"/>
      <point x="440" y="285" type="curve"/>
      <point x="472" y="280"/>
      <point x="480" y="303"/>
      <point x="456" y="323" type="curve"/>
      <point x="441" y="337"/>
      <point x="435" y="338"/>
      <point x="394" y="338" type="curve"/>
      <point x="333" y="338"/>
      <point x="273" y="334"/>
      <point x="221" y="324" type="curve"/>
      <point x="165" y="319"/>
      <point x="151" y="314"/>
      <point x="170" y="294" type="curve"/>
      <point x="175" y="285"/>
      <point x="179" y="280"/>
      <point x="199" y="280" type="curve"/>
      <point x="221" y="275"/>
      <point x="233" y="275"/>
    </contour>
    <contour>
      <point x="186" y="133" type="curve"/>
      <point x="231" y="133"/>
      <point x="283" y="137"/>
      <point x="298" y="138" type="curve"/>
      <point x="329" y="140"/>
      <point x="372" y="142"/>
      <point x="385" y="143" type="curve"/>
      <point x="415" y="138"/>
      <point x="424" y="161"/>
      <point x="401" y="181" type="curve"/>
      <point x="386" y="195"/>
      <point x="380" y="196"/>
      <point x="339" y="196" type="curve"/>
      <point x="278" y="196"/>
      <point x="218" y="192"/>
      <point x="166" y="182" type="curve"/>
      <point x="109" y="177"/>
      <point x="96" y="172"/>
      <point x="115" y="152" type="curve"/>
      <point x="120" y="143"/>
      <point x="124" y="138"/>
      <point x="145" y="138" type="curve"/>
      <point x="166" y="133"/>
      <point x="178" y="133"/>
    </contour>
  </outline>
</glyph>
<glyph name="greater" format="1">
  <advance width="446"/>
  <unicode hex="003E"/>
  <outline>
    <contour>
      <point x="186" y="43" type="curve"/>
      <point x="192" y="42"/>
      <point x="207" y="50"/>
      <point x="217" y="57" type="curve"/>
      <point x="235" y="66"/>
      <point x="248" y="80"/>
      <point x="307" y="102" type="curve"/>
      <point x="388" y="141"/>
      <point x="416" y="154"/>
      <point x="438" y="170" type="curve"/>
      <point x="441" y="171"/>
      <point x="469" y="188"/>
      <point x="480" y="189" type="curve"/>
      <point x="475" y="219" type="line"/>
      <point x="441" y="265" type="line"/>
      <point x="413" y="302"/>
      <point x="388" y="326"/>
      <point x="341" y="346" type="curve"/>
      <point x="316" y="367"/>
      <point x="297" y="370"/>
      <point x="248" y="387" type="curve"/>
      <point x="203" y="400"/>
      <point x="178" y="393"/>
      <point x="167" y="391" type="curve"/>
      <point x="137" y="377"/>
      <point x="178" y="350"/>
      <point x="229" y="332" type="curve"/>
      <point x="330" y="294"/>
      <point x="392" y="255"/>
      <point x="403" y="228" type="curve"/>
      <point x="405" y="201"/>
      <point x="367" y="192"/>
      <point x="312" y="163" type="curve"/>
      <point x="219" y="117"/>
      <point x="193" y="110"/>
      <point x="159" y="95" type="curve"/>
      <point x="149" y="87"/>
      <point x="144" y="75"/>
      <point x="144" y="75" type="curve"/>
      <point x="140" y="65"/>
      <point x="159" y="64"/>
      <point x="171" y="51" type="curve"/>
      <point x="175" y="46"/>
      <point x="178" y="42"/>
    </contour>
  </outline>
</glyph>
<glyph name="at" format="1">
  <advance width="643"/>
  <unicode hex="0040"/>
  <outline>
    <contour>
      <point x="307" y="-125" type="curve"/>
      <point x="324" y="-125"/>
      <point x="342" y="-122"/>
      <point x="354" y="-117" type="curve"/>
      <point x="365" y="-112"/>
      <point x="370" y="-108"/>
      <point x="370" y="-96" type="curve"/>
      <point x="363" y="-81"/>
      <point x="362" y="-81"/>
      <point x="362" y="-80" type="curve"/>
      <point x="363" y="-68"/>
      <point x="360" y="-67"/>
      <point x="350" y="-64" type="curve"/>
      <point x="299" y="-67"/>
      <point x="260" y="-57"/>
      <point x="230" y="-45" type="curve"/>
      <point x="200" y="-26"/>
      <point x="174" y="0"/>
      <point x="159" y="30" type="curve"/>
      <point x="155" y="38"/>
      <point x="146" y="56"/>
      <point x="151" y="96" type="curve"/>
      <point x="160" y="162"/>
      <point x="192" y="234"/>
      <point x="249" y="302" type="curve"/>
      <point x="281" y="340"/>
      <point x="366" y="408"/>
      <point x="401" y="420" type="curve"/>
      <point x="429" y="432"/>
      <point x="459" y="436"/>
      <point x="488" y="436" type="curve"/>
      <point x="508" y="436"/>
      <point x="528" y="434"/>
      <point x="543" y="428" type="curve"/>
      <point x="614" y="399"/>
      <point x="643" y="329"/>
      <point x="643" y="263" type="curve"/>
      <point x="643" y="250"/>
      <point x="642" y="237"/>
      <point x="641" y="229" type="curve"/>
      <point x="628" y="185"/>
      <point x="609" y="169"/>
      <point x="577" y="135" type="curve"/>
      <point x="563" y="119"/>
      <point x="547" y="113"/>
      <point x="541" y="113" type="curve"/>
      <point x="532" y="113"/>
      <point x="502" y="124"/>
      <point x="504" y="132" type="curve"/>
      <point x="500" y="143"/>
      <point x="504" y="153"/>
      <point x="508" y="165" type="curve"/>
      <point x="510" y="172"/>
      <point x="513" y="184"/>
      <point x="515" y="195" type="curve"/>
      <point x="517" y="203"/>
      <point x="518" y="211"/>
      <point x="520" y="217" type="curve"/>
      <point x="524" y="239"/>
      <point x="524" y="243"/>
      <point x="520" y="263" type="curve"/>
      <point x="512" y="282"/>
      <point x="492" y="310"/>
      <point x="479" y="312" type="curve"/>
      <point x="467" y="320"/>
      <point x="455" y="322"/>
      <point x="443" y="322" type="curve"/>
      <point x="429" y="322"/>
      <point x="415" y="320"/>
      <point x="407" y="316" type="curve"/>
      <point x="368" y="300"/>
      <point x="346" y="283"/>
      <point x="325" y="252" type="curve"/>
      <point x="302" y="220"/>
      <point x="289" y="197"/>
      <point x="281" y="161" type="curve"/>
      <point x="275" y="141"/>
      <point x="271" y="125"/>
      <point x="271" y="112" type="curve"/>
      <point x="271" y="102"/>
      <point x="273" y="91"/>
      <point x="278" y="78" type="curve"/>
      <point x="306" y="40"/>
      <point x="314" y="39"/>
      <point x="352" y="29" type="curve"/>
      <point x="368" y="25"/>
      <point x="413" y="44"/>
      <point x="441" y="71" type="curve"/>
      <point x="455" y="83"/>
      <point x="466" y="95"/>
      <point x="466" y="95" type="curve"/>
      <point x="478" y="88"/>
      <point x="486" y="83"/>
      <point x="485" y="83" type="curve"/>
      <point x="501" y="69"/>
      <point x="541" y="59"/>
      <point x="561" y="59" type="curve"/>
      <point x="589" y="67"/>
      <point x="654" y="134"/>
      <point x="683" y="197" type="curve"/>
      <point x="695" y="223"/>
      <point x="698" y="298"/>
      <point x="691" y="327" type="curve"/>
      <point x="683" y="362"/>
      <point x="666" y="409"/>
      <point x="613" y="451" type="curve"/>
      <point x="585" y="477"/>
      <point x="547" y="495"/>
      <point x="506" y="499" type="curve"/>
      <point x="476" y="501"/>
      <point x="468" y="501"/>
      <point x="463" y="500" type="curve"/>
      <point x="417" y="493"/>
      <point x="353" y="465"/>
      <point x="315" y="436" type="curve"/>
      <point x="237" y="380"/>
      <point x="215" y="346"/>
      <point x="148" y="256" type="curve"/>
      <point x="137" y="240"/>
      <point x="125" y="217"/>
      <point x="125" y="209" type="curve"/>
      <point x="123" y="201"/>
      <point x="121" y="197"/>
      <point x="121" y="193" type="curve"/>
      <point x="106" y="165"/>
      <point x="94" y="98"/>
      <point x="97" y="64" type="curve"/>
      <point x="98" y="39"/>
      <point x="106" y="12"/>
      <point x="117" y="-3" type="curve"/>
      <point x="133" y="-31"/>
      <point x="149" y="-52"/>
      <point x="172" y="-73" type="curve"/>
      <point x="215" y="-107"/>
      <point x="262" y="-125"/>
    </contour>
    <contour>
      <point x="372" y="85" type="curve"/>
      <point x="351" y="75"/>
      <point x="331" y="85"/>
      <point x="322" y="104" type="curve"/>
      <point x="317" y="148"/>
      <point x="367" y="246"/>
      <point x="406" y="262" type="curve"/>
      <point x="422" y="270"/>
      <point x="447" y="266"/>
      <point x="463" y="262" type="curve"/>
      <point x="462" y="262" type="line"/>
      <point x="473" y="255"/>
      <point x="473" y="251"/>
      <point x="473" y="243" type="curve"/>
      <point x="468" y="229"/>
      <point x="467" y="225"/>
      <point x="465" y="221" type="curve"/>
      <point x="461" y="198"/>
      <point x="449" y="174"/>
      <point x="439" y="158" type="curve"/>
      <point x="433" y="147"/>
      <point x="431" y="143"/>
      <point x="431" y="142" type="curve"/>
      <point x="425" y="127"/>
      <point x="391" y="97"/>
    </contour>
  </outline>
</glyph>
<glyph name="A" format="2">
  <advance width="502"/>
  <unicode hex="0041"/>
  <anchor x="483" y="40" name="ogonek"/>
  <anchor x="538" y="785" name="topUC"/>
  <outline>
    <contour>
      <point x="69" y="-33" type="curve"/>
      <point x="85" y="-45" type="line"/>
      <point x="106" y="-13" type="line" smooth="yes"/>
      <point x="134" y="29"/>
      <point x="167" y="105"/>
      <point x="167" y="118" type="curve"/>
      <point x="167" y="118"/>
      <point x="174" y="130"/>
      <point x="183" y="137" type="curve"/>
      <point x="183" y="143"/>
      <point x="202" y="168"/>
      <point x="208" y="187" type="curve"/>
      <point x="222" y="212"/>
      <point x="241" y="230"/>
      <point x="253" y="230" type="curve"/>
      <point x="277" y="237"/>
      <point x="403" y="251"/>
      <point x="428" y="251" type="curve"/>
      <point x="441" y="252" type="line"/>
      <point x="436" y="90" type="line" smooth="yes"/>
      <point x="431" y="-5"/>
      <point x="430" y="6"/>
      <point x="437" y="1" type="curve"/>
      <point x="441" y="-18"/>
      <point x="485" y="-28"/>
      <point x="497" y="-15" type="curve"/>
      <point x="497" y="-9"/>
      <point x="499" y="3"/>
      <point x="498" y="15" type="curve"/>
      <point x="491" y="127"/>
      <point x="518" y="336"/>
      <point x="527" y="445" type="curve"/>
      <point x="534" y="528"/>
      <point x="543" y="604"/>
      <point x="534" y="621" type="curve"/>
      <point x="522" y="651"/>
      <point x="483" y="678"/>
      <point x="459" y="678" type="curve"/>
      <point x="447" y="679"/>
      <point x="435" y="667"/>
      <point x="421" y="648" type="curve"/>
      <point x="385" y="600"/>
      <point x="352" y="551"/>
      <point x="326" y="504" type="curve"/>
      <point x="262" y="395"/>
      <point x="239" y="359"/>
      <point x="221" y="318" type="curve"/>
      <point x="207" y="294"/>
      <point x="189" y="275"/>
      <point x="183" y="269" type="curve"/>
      <point x="171" y="263"/>
      <point x="165" y="257"/>
      <point x="168" y="245" type="curve"/>
      <point x="168" y="239"/>
      <point x="157" y="214"/>
      <point x="110" y="124" type="curve"/>
      <point x="46" y="-3"/>
      <point x="33" y="-14"/>
    </contour>
    <contour>
      <point x="276" y="289" type="curve"/>
      <point x="269" y="295"/>
      <point x="324" y="388"/>
      <point x="330" y="394" type="curve"/>
      <point x="336" y="394"/>
      <point x="349" y="418"/>
      <point x="363" y="443" type="curve"/>
      <point x="404" y="525"/>
      <point x="465" y="600"/>
      <point x="477" y="600" type="curve"/>
      <point x="477" y="600"/>
      <point x="475" y="575"/>
      <point x="474" y="550" type="curve"/>
      <point x="472" y="500"/>
      <point x="452" y="312"/>
      <point x="450" y="305" type="curve"/>
      <point x="450" y="305"/>
      <point x="444" y="305"/>
      <point x="439" y="312" type="curve"/>
      <point x="427" y="317"/>
      <point x="421" y="317"/>
      <point x="338" y="298" type="curve"/>
      <point x="313" y="297"/>
      <point x="276" y="289"/>
    </contour>
  </outline>
</glyph>
<glyph name="F" format="1">
  <advance width="454"/>
  <unicode hex="0046"/>
  <outline>
    <contour>
      <point x="129" y="-19" type="curve"/>
      <point x="135" y="-15"/>
      <point x="135" y="10"/>
      <point x="147" y="42" type="curve"/>
      <point x="147" y="68"/>
      <point x="213" y="236"/>
      <point x="235" y="276" type="curve"/>
      <point x="235" y="287"/>
      <point x="244" y="294"/>
      <point x="244" y="294" type="curve"/>
      <point x="268" y="289"/>
      <point x="390" y="293"/>
      <point x="424" y="296" type="curve"/>
      <point x="483" y="302"/>
      <point x="507" y="306"/>
      <point x="511" y="316" type="curve"/>
      <point x="516" y="327"/>
      <point x="508" y="354"/>
      <point x="498" y="360" type="curve"/>
      <point x="491" y="363"/>
      <point x="465" y="358"/>
      <point x="445" y="354" type="curve"/>
      <point x="380" y="348"/>
      <point x="286" y="342"/>
      <point x="259" y="350" type="curve"/>
      <point x="264" y="356"/>
      <point x="313" y="491"/>
      <point x="325" y="511" type="curve"/>
      <point x="337" y="545"/>
      <point x="353" y="564"/>
      <point x="358" y="564" type="curve"/>
      <point x="358" y="564"/>
      <point x="382" y="572"/>
      <point x="411" y="574" type="curve"/>
      <point x="484" y="584"/>
      <point x="534" y="587"/>
      <point x="592" y="579" type="curve"/>
      <point x="640" y="578"/>
      <point x="646" y="578"/>
      <point x="647" y="590" type="curve"/>
      <point x="649" y="596"/>
      <point x="650" y="606"/>
      <point x="637" y="613" type="curve"/>
      <point x="630" y="618"/>
      <point x="625" y="620"/>
      <point x="630" y="618" type="curve"/>
      <point x="630" y="618"/>
      <point x="633" y="623"/>
      <point x="628" y="629" type="curve"/>
      <point x="620" y="636"/>
      <point x="610" y="636"/>
      <point x="582" y="641" type="curve"/>
      <point x="575" y="636"/>
      <point x="556" y="639"/>
      <point x="533" y="635" type="curve"/>
      <point x="512" y="641"/>
      <point x="468" y="636"/>
      <point x="444" y="634" type="curve"/>
      <point x="375" y="619"/>
      <point x="361" y="622"/>
      <point x="357" y="629" type="curve"/>
      <point x="348" y="642"/>
      <point x="320" y="640"/>
      <point x="320" y="627" type="curve"/>
      <point x="320" y="622"/>
      <point x="313" y="617"/>
      <point x="307" y="613" type="curve"/>
      <point x="299" y="615"/>
      <point x="286" y="611"/>
      <point x="261" y="606" type="curve"/>
      <point x="241" y="601"/>
      <point x="231" y="599"/>
      <point x="222" y="597" type="curve"/>
      <point x="202" y="595"/>
      <point x="189" y="580"/>
      <point x="186" y="559" type="curve"/>
      <point x="186" y="547"/>
      <point x="198" y="543"/>
      <point x="212" y="545" type="curve"/>
      <point x="217" y="546"/>
      <point x="223" y="546"/>
      <point x="239" y="549" type="curve"/>
      <point x="256" y="550"/>
      <point x="266" y="551"/>
      <point x="271" y="552" type="curve"/>
      <point x="276" y="552"/>
      <point x="271" y="538"/>
      <point x="266" y="520" type="curve"/>
      <point x="263" y="510"/>
      <point x="256" y="491"/>
      <point x="254" y="486" type="curve"/>
      <point x="253" y="483"/>
      <point x="225" y="404"/>
      <point x="216" y="377" type="curve"/>
      <point x="203" y="348"/>
      <point x="192" y="335"/>
      <point x="186" y="330" type="curve"/>
      <point x="176" y="318"/>
      <point x="176" y="318"/>
      <point x="178" y="303" type="curve"/>
      <point x="171" y="286"/>
      <point x="170" y="265"/>
      <point x="156" y="240" type="curve"/>
      <point x="130" y="188"/>
      <point x="96" y="70"/>
      <point x="88" y="36" type="curve"/>
      <point x="79" y="7"/>
      <point x="80" y="2"/>
      <point x="96" y="-10" type="curve"/>
      <point x="106" y="-22"/>
      <point x="128" y="-24"/>
    </contour>
  </outline>
</glyph>
<glyph name="I" format="2">
  <advance width="400"/>
  <unicode hex="0049"/>
  <anchor x="173" y="-110" name="bottom"/>
  <anchor x="200" y="40" name="ogonek"/>
  <anchor x="459" y="785" name="topUC"/>
  <outline>
    <contour>
      <point x="192" y="-31" type="curve"/>
      <point x="208" y="-37"/>
      <point x="220" y="-38"/>
      <point x="220" y="-27" type="curve"/>
      <point x="223" y="-14"/>
      <point x="246" y="-13"/>
      <point x="350" y="-9" type="curve"/>
      <point x="424" y="-10"/>
      <point x="443" y="1"/>
      <point x="416" y="37" type="curve"/>
      <point x="409" y="55"/>
      <point x="404" y="55"/>
      <point x="311" y="46" type="curve"/>
      <point x="276" y="43"/>
      <point x="254" y="41"/>
      <point x="254" y="41" type="curve"/>
      <point x="274" y="115"/>
      <point x="291" y="154"/>
      <point x="328" y="284" type="curve"/>
      <point x="329" y="290"/>
      <point x="333" y="307"/>
      <point x="338" y="319" type="curve"/>
      <point x="346" y="337"/>
      <point x="380" y="444"/>
      <point x="392" y="479" type="curve"/>
      <point x="402" y="508"/>
      <point x="411" y="542"/>
      <point x="410" y="548" type="curve"/>
      <point x="415" y="554"/>
      <point x="417" y="559"/>
      <point x="423" y="565" type="curve"/>
      <point x="426" y="570"/>
      <point x="453" y="575"/>
      <point x="499" y="579" type="curve"/>
      <point x="534" y="580"/>
      <point x="569" y="582"/>
      <point x="581" y="585" type="curve"/>
      <point x="604" y="583"/>
      <point x="606" y="599"/>
      <point x="599" y="624" type="curve"/>
      <point x="590" y="643"/>
      <point x="572" y="644"/>
      <point x="497" y="637" type="curve"/>
      <point x="467" y="635"/>
      <point x="439" y="634"/>
      <point x="428" y="641" type="curve"/>
      <point x="416" y="642"/>
      <point x="405" y="639"/>
      <point x="393" y="635" type="curve"/>
      <point x="380" y="624"/>
      <point x="354" y="616"/>
      <point x="332" y="614" type="curve"/>
      <point x="285" y="608"/>
      <point x="225" y="590"/>
      <point x="211" y="578" type="curve"/>
      <point x="204" y="574"/>
      <point x="204" y="568"/>
      <point x="206" y="556" type="curve"/>
      <point x="210" y="543"/>
      <point x="231" y="535"/>
      <point x="238" y="545" type="curve"/>
      <point x="245" y="550"/>
      <point x="331" y="557"/>
      <point x="342" y="556" type="curve"/>
      <point x="347" y="555"/>
      <point x="338" y="514"/>
      <point x="304" y="409" type="curve"/>
      <point x="299" y="388"/>
      <point x="279" y="319"/>
      <point x="271" y="302" type="curve"/>
      <point x="266" y="279"/>
      <point x="228" y="170"/>
      <point x="217" y="134" type="curve"/>
      <point x="208" y="103"/>
      <point x="199" y="74"/>
      <point x="194" y="60" type="curve"/>
      <point x="184" y="40" type="line"/>
      <point x="131" y="39" type="line"/>
      <point x="74" y="38"/>
      <point x="49" y="28"/>
      <point x="48" y="12" type="curve"/>
      <point x="43" y="-5"/>
      <point x="73" y="-20"/>
      <point x="101" y="-16" type="curve"/>
      <point x="148" y="-14"/>
      <point x="182" y="-17"/>
    </contour>
  </outline>
</glyph>
<glyph name="K" format="1">
  <advance width="498"/>
  <unicode hex="004B"/>
  <outline>
    <contour>
      <point x="96" y="-37" type="curve"/>
      <point x="129" y="-61"/>
      <point x="123" y="-61"/>
      <point x="178" y="114" type="curve"/>
      <point x="206" y="213"/>
      <point x="222" y="248"/>
      <point x="223" y="253" type="curve"/>
      <point x="264" y="354" type="line"/>
      <point x="263" y="371"/>
      <point x="339" y="534"/>
      <point x="367" y="593" type="curve"/>
      <point x="378" y="609"/>
      <point x="380" y="620"/>
      <point x="369" y="642" type="curve"/>
      <point x="358" y="665"/>
      <point x="342" y="666"/>
      <point x="325" y="654" type="curve"/>
      <point x="320" y="649"/>
      <point x="314" y="638"/>
      <point x="314" y="638" type="curve"/>
      <point x="314" y="638"/>
      <point x="309" y="616"/>
      <point x="296" y="596" type="curve"/>
      <point x="286" y="574"/>
      <point x="273" y="552"/>
      <point x="273" y="546" type="curve"/>
      <point x="273" y="541"/>
      <point x="273" y="535"/>
      <point x="273" y="535" type="curve"/>
      <point x="267" y="535"/>
      <point x="246" y="481"/>
      <point x="229" y="444" type="curve"/>
      <point x="212" y="399"/>
      <point x="195" y="350"/>
      <point x="187" y="328" type="curve"/>
      <point x="182" y="306"/>
      <point x="171" y="286"/>
      <point x="163" y="269" type="curve"/>
      <point x="163" y="258"/>
      <point x="159" y="236"/>
      <point x="153" y="220" type="curve"/>
      <point x="146" y="209"/>
      <point x="140" y="198"/>
      <point x="140" y="187" type="curve"/>
      <point x="140" y="181"/>
      <point x="127" y="154"/>
      <point x="117" y="128" type="curve"/>
      <point x="110" y="101"/>
      <point x="99" y="73"/>
      <point x="99" y="62" type="curve"/>
      <point x="99" y="57"/>
      <point x="98" y="46"/>
      <point x="92" y="46" type="curve"/>
      <point x="91" y="40"/>
      <point x="86" y="24"/>
      <point x="87" y="7" type="curve"/>
      <point x="79" y="-21"/>
      <point x="79" y="-27"/>
    </contour>
    <contour>
      <point x="449" y="-45" type="curve"/>
      <point x="484" y="-61"/>
      <point x="489" y="-49"/>
      <point x="493" y="-39" type="curve"/>
      <point x="497" y="-34"/>
      <point x="499" y="-16"/>
      <point x="497" y="-9" type="curve"/>
      <point x="495" y="2"/>
      <point x="464" y="20"/>
      <point x="455" y="23" type="curve"/>
      <point x="443" y="23"/>
      <point x="417" y="39"/>
      <point x="387" y="72" type="curve"/>
      <point x="364" y="95"/>
      <point x="344" y="131"/>
      <point x="328" y="166" type="curve"/>
      <point x="308" y="202"/>
      <point x="293" y="246"/>
      <point x="287" y="318" type="curve"/>
      <point x="236" y="334" type="line"/>
      <point x="235" y="264" type="line"/>
      <point x="237" y="248"/>
      <point x="249" y="225"/>
      <point x="258" y="183" type="curve"/>
      <point x="274" y="125"/>
      <point x="312" y="73"/>
      <point x="334" y="42" type="curve"/>
      <point x="358" y="13"/>
      <point x="426" y="-47"/>
    </contour>
    <contour>
      <point x="225" y="326" type="line"/>
      <point x="253" y="271" type="line"/>
      <point x="255" y="277"/>
      <point x="344" y="345"/>
      <point x="364" y="356" type="curve"/>
      <point x="377" y="355"/>
      <point x="386" y="371"/>
      <point x="389" y="378" type="curve"/>
      <point x="394" y="384"/>
      <point x="408" y="393"/>
      <point x="408" y="393" type="curve"/>
      <point x="413" y="391"/>
      <point x="417" y="398"/>
      <point x="423" y="398" type="curve"/>
      <point x="434" y="414"/>
      <point x="474" y="447"/>
      <point x="528" y="482" type="curve"/>
      <point x="566" y="509"/>
      <point x="594" y="531"/>
      <point x="594" y="531" type="curve"/>
      <point x="598" y="539"/>
      <point x="620" y="552"/>
      <point x="645" y="564" type="curve"/>
      <point x="676" y="581"/>
      <point x="680" y="588"/>
      <point x="678" y="601" type="curve"/>
      <point x="680" y="617"/>
      <point x="659" y="646"/>
      <point x="643" y="639" type="curve"/>
      <point x="637" y="640"/>
      <point x="619" y="626"/>
      <point x="596" y="610" type="curve"/>
      <point x="577" y="598"/>
      <point x="537" y="565"/>
      <point x="504" y="548" type="curve"/>
      <point x="381" y="448" type="line"/>
      <point x="324" y="405"/>
      <point x="302" y="383"/>
      <point x="298" y="379" type="curve"/>
    </contour>
    <contour>
      <point x="211" y="-110" type="move" name="bottom"/>
    </contour>
  </outline>
</glyph>
<glyph name="O" format="1">
  <advance width="496"/>
  <unicode hex="004F"/>
  <outline>
    <contour>
      <point x="175" y="-20" type="curve"/>
      <point x="261" y="-87"/>
      <point x="412" y="9"/>
      <point x="505" y="193" type="curve"/>
      <point x="594" y="340"/>
      <point x="597" y="397"/>
      <point x="579" y="514" type="curve"/>
      <point x="562" y="607"/>
      <point x="528" y="647"/>
      <point x="454" y="663" type="curve"/>
      <point x="439" y="669"/>
      <point x="416" y="658"/>
      <point x="389" y="642" type="curve"/>
      <point x="348" y="623"/>
      <point x="321" y="599"/>
      <point x="267" y="543" type="curve"/>
      <point x="230" y="494"/>
      <point x="196" y="440"/>
      <point x="156" y="320" type="curve"/>
      <point x="147" y="274"/>
      <point x="133" y="245"/>
      <point x="134" y="238" type="curve"/>
      <point x="134" y="238"/>
      <point x="137" y="223"/>
      <point x="130" y="216" type="curve"/>
      <point x="124" y="186"/>
      <point x="112" y="97"/>
      <point x="116" y="61" type="curve"/>
      <point x="118" y="32"/>
      <point x="126" y="17"/>
    </contour>
    <contour>
      <point x="239" y="9" type="curve"/>
      <point x="219" y="5"/>
      <point x="197" y="13"/>
      <point x="189" y="26" type="curve"/>
      <point x="171" y="56"/>
      <point x="170" y="44"/>
      <point x="174" y="99" type="curve"/>
      <point x="179" y="186"/>
      <point x="231" y="360"/>
      <point x="267" y="398" type="curve"/>
      <point x="272" y="405"/>
      <point x="272" y="413"/>
      <point x="272" y="413" type="curve"/>
      <point x="271" y="437"/>
      <point x="384" y="574"/>
      <point x="424" y="591" type="curve"/>
      <point x="453" y="604"/>
      <point x="478" y="596"/>
      <point x="492" y="581" type="curve"/>
      <point x="503" y="569"/>
      <point x="512" y="541"/>
      <point x="513" y="518" type="curve"/>
      <point x="514" y="422"/>
      <point x="517" y="411"/>
      <point x="496" y="331" type="curve"/>
      <point x="459" y="202"/>
      <point x="448" y="189"/>
      <point x="379" y="110" type="curve"/>
      <point x="321" y="43"/>
      <point x="285" y="14"/>
    </contour>
    <contour>
      <point x="208" y="-110" type="move" name="bottom"/>
    </contour>
    <contour>
      <point x="248" y="40" type="move" name="ogonek"/>
    </contour>
    <contour>
      <point x="533" y="785" type="move" name="topUC"/>
    </contour>
  </outline>
</glyph>
<glyph name="P" format="1">
  <advance width="464"/>
  <unicode hex="0050"/>
  <outline>
    <contour>
      <point x="110" y="-48" type="curve"/>
      <point x="122" y="-48"/>
      <point x="129" y="-48"/>
      <point x="135" y="-29" type="curve"/>
      <point x="145" y="16"/>
      <point x="183" y="127"/>
      <point x="189" y="139" type="curve"/>
      <point x="189" y="145"/>
      <point x="196" y="167"/>
      <point x="203" y="184" type="curve"/>
      <point x="208" y="203"/>
      <point x="214" y="203"/>
      <point x="253" y="209" type="curve"/>
      <point x="291" y="207"/>
      <point x="365" y="236"/>
      <point x="418" y="260" type="curve"/>
      <point x="437" y="272"/>
      <point x="462" y="292"/>
      <point x="480" y="313" type="curve"/>
      <point x="512" y="343"/>
      <point x="554" y="400"/>
      <point x="554" y="411" type="curve"/>
      <point x="554" y="417"/>
      <point x="562" y="426"/>
      <point x="570" y="432" type="curve"/>
      <point x="575" y="438"/>
      <point x="580" y="462"/>
      <point x="582" y="482" type="curve"/>
      <point x="588" y="519"/>
      <point x="581" y="534"/>
      <point x="570" y="557" type="curve"/>
      <point x="555" y="590"/>
      <point x="519" y="626"/>
      <point x="506" y="626" type="curve"/>
      <point x="499" y="627"/>
      <point x="492" y="628"/>
      <point x="492" y="636" type="curve"/>
      <point x="492" y="641"/>
      <point x="453" y="652"/>
      <point x="436" y="660" type="curve"/>
      <point x="429" y="660"/>
      <point x="396" y="659"/>
      <point x="372" y="661" type="curve"/>
      <point x="323" y="665"/>
      <point x="318" y="665"/>
      <point x="296" y="639" type="curve"/>
      <point x="272" y="619"/>
      <point x="267" y="602"/>
      <point x="277" y="595" type="curve"/>
      <point x="285" y="589"/>
      <point x="275" y="576"/>
      <point x="260" y="535" type="curve"/>
      <point x="245" y="502"/>
      <point x="220" y="426"/>
      <point x="204" y="367" type="curve"/>
      <point x="188" y="335"/>
      <point x="182" y="311"/>
      <point x="176" y="301" type="curve"/>
      <point x="176" y="296"/>
      <point x="170" y="281"/>
      <point x="165" y="259" type="curve"/>
      <point x="159" y="234"/>
      <point x="151" y="218"/>
      <point x="143" y="218" type="curve"/>
      <point x="143" y="209"/>
      <point x="138" y="199"/>
      <point x="138" y="185" type="curve"/>
      <point x="138" y="174"/>
      <point x="129" y="155"/>
      <point x="116" y="104" type="curve"/>
      <point x="77" y="-10"/>
      <point x="77" y="-23"/>
      <point x="90" y="-35" type="curve"/>
      <point x="95" y="-43"/>
      <point x="104" y="-48"/>
    </contour>
    <contour>
      <point x="234" y="262" type="curve"/>
      <point x="229" y="268"/>
      <point x="234" y="272"/>
      <point x="233" y="287" type="curve"/>
      <point x="238" y="302"/>
      <point x="266" y="361"/>
      <point x="290" y="449" type="curve"/>
      <point x="302" y="482"/>
      <point x="322" y="526"/>
      <point x="332" y="545" type="curve"/>
      <point x="348" y="584"/>
      <point x="354" y="590"/>
      <point x="375" y="597" type="curve"/>
      <point x="398" y="601"/>
      <point x="413" y="601"/>
      <point x="443" y="596" type="curve"/>
      <point x="481" y="585"/>
      <point x="512" y="552"/>
      <point x="519" y="517" type="curve"/>
      <point x="525" y="493"/>
      <point x="509" y="449"/>
      <point x="497" y="430" type="curve"/>
      <point x="489" y="413"/>
      <point x="477" y="389"/>
      <point x="473" y="383" type="curve"/>
      <point x="446" y="349"/>
      <point x="416" y="324"/>
      <point x="403" y="315" type="curve"/>
      <point x="377" y="299"/>
      <point x="350" y="285"/>
      <point x="323" y="276" type="curve"/>
      <point x="282" y="260"/>
      <point x="239" y="257"/>
    </contour>
  </outline>
</glyph>
<glyph name="S" format="1">
  <advance width="486"/>
  <unicode hex="0053"/>
  <outline>
    <contour>
      <point x="254" y="-50" type="curve"/>
      <point x="300" y="-52"/>
      <point x="368" y="-45"/>
      <point x="383" y="-36" type="curve"/>
      <point x="392" y="-32"/>
      <point x="397" y="-26"/>
      <point x="412" y="-22" type="curve"/>
      <point x="428" y="-23"/>
      <point x="456" y="5"/>
      <point x="466" y="27" type="curve"/>
      <point x="473" y="52"/>
      <point x="470" y="90"/>
      <point x="446" y="124" type="curve"/>
      <point x="434" y="150"/>
      <point x="385" y="189"/>
      <point x="317" y="227" type="curve"/>
      <point x="265" y="258"/>
      <point x="227" y="294"/>
      <point x="221" y="316" type="curve"/>
      <point x="212" y="337"/>
      <point x="222" y="377"/>
      <point x="245" y="408" type="curve"/>
      <point x="271" y="453"/>
      <point x="291" y="484"/>
      <point x="318" y="500" type="curve"/>
      <point x="330" y="505"/>
      <point x="340" y="514"/>
      <point x="341" y="520" type="curve"/>
      <point x="344" y="526"/>
      <point x="481" y="610"/>
      <point x="487" y="609" type="curve"/>
      <point x="492" y="608"/>
      <point x="491" y="614"/>
      <point x="491" y="614" type="curve"/>
      <point x="491" y="620"/>
      <point x="576" y="636"/>
      <point x="591" y="632" type="curve"/>
      <point x="618" y="628"/>
      <point x="607" y="588"/>
      <point x="565" y="526" type="curve"/>
      <point x="531" y="488"/>
      <point x="529" y="478"/>
      <point x="529" y="468" type="curve"/>
      <point x="527" y="442"/>
      <point x="538" y="442"/>
      <point x="575" y="458" type="curve"/>
      <point x="625" y="486"/>
      <point x="671" y="565"/>
      <point x="658" y="614" type="curve"/>
      <point x="651" y="661"/>
      <point x="612" y="691"/>
      <point x="562" y="694" type="curve"/>
      <point x="562" y="694" type="line" smooth="yes"/>
      <point x="562" y="694" type="line"/>
      <point x="526" y="694"/>
      <point x="473" y="675"/>
      <point x="384" y="632" type="curve"/>
      <point x="357" y="607"/>
      <point x="331" y="600"/>
      <point x="325" y="596" type="curve"/>
      <point x="325" y="596"/>
      <point x="320" y="597"/>
      <point x="319" y="591" type="curve"/>
      <point x="319" y="591"/>
      <point x="304" y="576"/>
      <point x="293" y="566" type="curve"/>
      <point x="264" y="547"/>
      <point x="193" y="465"/>
      <point x="177" y="428" type="curve"/>
      <point x="151" y="379"/>
      <point x="160" y="305"/>
      <point x="192" y="276" type="curve"/>
      <point x="209" y="244"/>
      <point x="270" y="198"/>
      <point x="302" y="183" type="curve"/>
      <point x="321" y="174"/>
      <point x="336" y="166"/>
      <point x="356" y="157" type="curve"/>
      <point x="393" y="121"/>
      <point x="397" y="121"/>
      <point x="403" y="105" type="curve"/>
      <point x="425" y="70"/>
      <point x="413" y="51"/>
      <point x="364" y="31" type="curve"/>
      <point x="292" y="-2"/>
      <point x="198" y="13"/>
      <point x="173" y="59" type="curve"/>
      <point x="162" y="81"/>
      <point x="158" y="84"/>
      <point x="143" y="74" type="curve"/>
      <point x="128" y="67"/>
      <point x="128" y="67"/>
      <point x="138" y="47" type="curve"/>
      <point x="145" y="28"/>
      <point x="168" y="-5"/>
      <point x="198" y="-24" type="curve"/>
      <point x="213" y="-25"/>
      <point x="216" y="-32"/>
      <point x="214" y="-38" type="curve"/>
      <point x="214" y="-38"/>
      <point x="230" y="-43"/>
    </contour>
    <contour>
      <point x="244" y="-110" type="move" name="bottom"/>
    </contour>
    <contour>
      <point x="576" y="785" type="move" name="topUC"/>
    </contour>
  </outline>
</glyph>
<glyph name="W" format="1">
  <advance width="720"/>
  <unicode hex="0057"/>
  <outline>
    <contour>
      <point x="498" y="-53" type="curve"/>
      <point x="511" y="-53"/>
      <point x="561" y="-27"/>
      <point x="611" y="36" type="curve"/>
      <point x="646" y="81"/>
      <point x="741" y="254"/>
      <point x="741" y="267" type="curve"/>
      <point x="741" y="278"/>
      <point x="757" y="298"/>
      <point x="772" y="326" type="curve"/>
      <point x="800" y="387"/>
      <point x="862" y="552"/>
      <point x="875" y="595" type="curve"/>
      <point x="876" y="611"/>
      <point x="870" y="623"/>
      <point x="865" y="628" type="curve"/>
      <point x="853" y="638"/>
      <point x="840" y="637"/>
      <point x="833" y="632" type="curve"/>
      <point x="812" y="620"/>
      <point x="800" y="583"/>
      <point x="763" y="476" type="curve"/>
      <point x="727" y="391"/>
      <point x="667" y="255"/>
      <point x="618" y="163" type="curve"/>
      <point x="589" y="109"/>
      <point x="568" y="77"/>
      <point x="529" y="27" type="curve"/>
      <point x="519" y="15"/>
      <point x="502" y="19"/>
      <point x="499" y="30" type="curve"/>
      <point x="494" y="42"/>
      <point x="492" y="62"/>
      <point x="493" y="99" type="curve"/>
      <point x="494" y="179"/>
      <point x="526" y="300"/>
      <point x="543" y="386" type="curve"/>
      <point x="547" y="408"/>
      <point x="557" y="447"/>
      <point x="571" y="483" type="curve"/>
      <point x="579" y="519"/>
      <point x="591" y="552"/>
      <point x="593" y="561" type="curve"/>
      <point x="598" y="573"/>
      <point x="603" y="592"/>
      <point x="601" y="599" type="curve"/>
      <point x="590" y="625"/>
      <point x="575" y="632"/>
      <point x="554" y="633" type="curve"/>
      <point x="542" y="628"/>
      <point x="517" y="580"/>
      <point x="483" y="520" type="curve"/>
      <point x="462" y="481"/>
      <point x="437" y="432"/>
      <point x="415" y="393" type="curve"/>
      <point x="365" y="296"/>
      <point x="310" y="193"/>
      <point x="256" y="103" type="curve"/>
      <point x="241" y="71"/>
      <point x="220" y="49"/>
      <point x="209" y="52" type="curve"/>
      <point x="203" y="54"/>
      <point x="221" y="182"/>
      <point x="232" y="247" type="curve"/>
      <point x="252" y="380"/>
      <point x="277" y="471"/>
      <point x="304" y="537" type="curve"/>
      <point x="322" y="580"/>
      <point x="310" y="607"/>
      <point x="297" y="621" type="curve"/>
      <point x="283" y="640"/>
      <point x="249" y="642"/>
      <point x="248" y="599" type="curve"/>
      <point x="239" y="570"/>
      <point x="231" y="532"/>
      <point x="220" y="506" type="curve"/>
      <point x="203" y="415"/>
      <point x="179" y="325"/>
      <point x="167" y="240" type="curve"/>
      <point x="157" y="182"/>
      <point x="140" y="45"/>
      <point x="144" y="8" type="curve"/>
      <point x="138" y="-17"/>
      <point x="149" y="-30"/>
      <point x="155" y="-37" type="curve"/>
      <point x="175" y="-55"/>
      <point x="206" y="-53"/>
      <point x="235" y="-25" type="curve"/>
      <point x="264" y="1"/>
      <point x="293" y="55"/>
      <point x="311" y="75" type="curve"/>
      <point x="339" y="122"/>
      <point x="386" y="201"/>
      <point x="414" y="263" type="curve"/>
      <point x="433" y="298"/>
      <point x="471" y="387"/>
      <point x="481" y="388" type="curve"/>
      <point x="490" y="389"/>
      <point x="446" y="272"/>
      <point x="437" y="156" type="curve"/>
      <point x="433" y="84"/>
      <point x="434" y="53"/>
      <point x="438" y="10" type="curve"/>
      <point x="441" y="-6"/>
      <point x="454" y="-25"/>
      <point x="460" y="-31" type="curve"/>
      <point x="465" y="-44"/>
      <point x="480" y="-54"/>
    </contour>
    <contour>
      <point x="630" y="785" type="move" name="topUC"/>
    </contour>
  </outline>
</glyph>
<glyph name="X" format="1">
  <advance width="524"/>
  <unicode hex="0058"/>
  <outline>
    <contour>
      <point x="65" y="-47" type="curve"/>
      <point x="68" y="-48"/>
      <point x="75" y="-50"/>
      <point x="80" y="-47" type="curve"/>
      <point x="91" y="-50"/>
      <point x="103" y="-47"/>
      <point x="109" y="-36" type="curve"/>
      <point x="116" y="-21"/>
      <point x="274" y="151"/>
      <point x="311" y="186" type="curve"/>
      <point x="313" y="191"/>
      <point x="379" y="250"/>
      <point x="384" y="254" type="curve"/>
      <point x="386" y="261"/>
      <point x="395" y="268"/>
      <point x="397" y="274" type="curve"/>
      <point x="404" y="277"/>
      <point x="412" y="288"/>
      <point x="421" y="298" type="curve"/>
      <point x="429" y="308"/>
      <point x="472" y="349"/>
      <point x="501" y="374" type="curve"/>
      <point x="511" y="382"/>
      <point x="580" y="461"/>
      <point x="599" y="484" type="curve"/>
      <point x="601" y="495"/>
      <point x="611" y="509"/>
      <point x="625" y="523" type="curve"/>
      <point x="672" y="591"/>
      <point x="672" y="641"/>
      <point x="633" y="643" type="curve"/>
      <point x="622" y="642"/>
      <point x="620" y="634"/>
      <point x="607" y="606" type="curve"/>
      <point x="589" y="568"/>
      <point x="542" y="513"/>
      <point x="489" y="450" type="curve"/>
      <point x="468" y="425"/>
      <point x="393" y="350"/>
      <point x="390" y="346" type="curve"/>
      <point x="377" y="330"/>
      <point x="365" y="319"/>
      <point x="357" y="309" type="curve"/>
      <point x="323" y="276"/>
      <point x="243" y="198"/>
      <point x="225" y="184" type="curve"/>
      <point x="215" y="170"/>
      <point x="204" y="161"/>
      <point x="203" y="156" type="curve"/>
      <point x="202" y="152"/>
      <point x="174" y="129"/>
      <point x="153" y="108" type="curve"/>
      <point x="83" y="42"/>
      <point x="76" y="39"/>
      <point x="63" y="13" type="curve"/>
      <point x="57" y="-2"/>
      <point x="51" y="-13"/>
      <point x="59" y="-26" type="curve"/>
      <point x="62" y="-41"/>
      <point x="65" y="-47"/>
    </contour>
    <contour>
      <point x="492" y="-27" type="curve"/>
      <point x="521" y="-31"/>
      <point x="553" y="-17"/>
      <point x="549" y="-2" type="curve"/>
      <point x="548" y="17"/>
      <point x="544" y="42"/>
      <point x="522" y="37" type="curve"/>
      <point x="519" y="33"/>
      <point x="504" y="34"/>
      <point x="501" y="37" type="curve"/>
      <point x="485" y="46"/>
      <point x="463" y="77"/>
      <point x="448" y="109" type="curve"/>
      <point x="419" y="167"/>
      <point x="407" y="202"/>
      <point x="392" y="266" type="curve"/>
      <point x="366" y="356" type="line" smooth="yes"/>
      <point x="362" y="373"/>
      <point x="356" y="392"/>
      <point x="357" y="399" type="curve"/>
      <point x="358" y="406"/>
      <point x="354" y="428"/>
      <point x="353" y="439" type="curve"/>
      <point x="350" y="443"/>
      <point x="351" y="450"/>
      <point x="353" y="456" type="curve"/>
      <point x="350" y="468"/>
      <point x="342" y="544"/>
      <point x="345" y="550" type="curve"/>
      <point x="341" y="554"/>
      <point x="339" y="564"/>
      <point x="339" y="582" type="curve"/>
      <point x="339" y="632"/>
      <point x="306" y="667"/>
      <point x="276" y="646" type="curve"/>
      <point x="272" y="642"/>
      <point x="266" y="636"/>
      <point x="263" y="628" type="curve"/>
      <point x="263" y="628"/>
      <point x="262" y="621"/>
      <point x="266" y="618" type="curve"/>
      <point x="268" y="607"/>
      <point x="272" y="569"/>
      <point x="277" y="521" type="curve"/>
      <point x="281" y="475"/>
      <point x="290" y="441"/>
      <point x="290" y="441" type="curve"/>
      <point x="293" y="434"/>
      <point x="297" y="430"/>
      <point x="293" y="426" type="curve"/>
      <point x="293" y="426"/>
      <point x="287" y="424"/>
      <point x="289" y="419" type="curve"/>
      <point x="292" y="416"/>
      <point x="301" y="378"/>
      <point x="308" y="331" type="curve"/>
      <point x="323" y="219"/>
      <point x="363" y="119"/>
      <point x="412" y="51" type="curve"/>
      <point x="442" y="-4"/>
      <point x="466" y="-25"/>
    </contour>
  </outline>
</glyph>
<glyph name="Z" format="1">
  <advance width="522"/>
  <unicode hex="005A"/>
  <outline>
    <contour>
      <point x="122" y="-36" type="curve"/>
      <point x="158" y="-38"/>
      <point x="224" y="-37"/>
      <point x="274" y="-29" type="curve"/>
      <point x="330" y="-23"/>
      <point x="384" y="-19"/>
      <point x="402" y="-20" type="curve"/>
      <point x="434" y="-22"/>
      <point x="486" y="-10"/>
      <point x="501" y="-9" type="curve"/>
      <point x="518" y="4"/>
      <point x="520" y="18"/>
      <point x="502" y="24" type="curve"/>
      <point x="488" y="43"/>
      <point x="483" y="42"/>
      <point x="473" y="42" type="curve"/>
      <point x="435" y="42"/>
      <point x="370" y="37"/>
      <point x="301" y="33" type="curve"/>
      <point x="247" y="30"/>
      <point x="240" y="21"/>
      <point x="195" y="19" type="curve"/>
      <point x="140" y="16"/>
      <point x="137" y="26"/>
      <point x="151" y="43" type="curve"/>
      <point x="188" y="78"/>
      <point x="226" y="112"/>
      <point x="263" y="144" type="curve"/>
      <point x="322" y="194"/>
      <point x="377" y="245"/>
      <point x="452" y="315" type="curve"/>
      <point x="527" y="384"/>
      <point x="608" y="479"/>
      <point x="632" y="524" type="curve"/>
      <point x="647" y="564"/>
      <point x="659" y="582"/>
      <point x="645" y="613" type="curve"/>
      <point x="627" y="657"/>
      <point x="558" y="656"/>
      <point x="486" y="663" type="curve"/>
      <point x="449" y="667"/>
      <point x="363" y="665"/>
      <point x="333" y="660" type="curve"/>
      <point x="302" y="655"/>
      <point x="276" y="654"/>
      <point x="266" y="649" type="curve"/>
      <point x="260" y="643"/>
      <point x="252" y="636"/>
      <point x="258" y="623" type="curve"/>
      <point x="268" y="615"/>
      <point x="267" y="609"/>
      <point x="262" y="602" type="curve"/>
      <point x="262" y="596"/>
      <point x="279" y="586"/>
      <point x="288" y="589" type="curve"/>
      <point x="347" y="599"/>
      <point x="406" y="609"/>
      <point x="489" y="603" type="curve"/>
      <point x="558" y="598"/>
      <point x="590" y="596"/>
      <point x="578" y="557" type="curve"/>
      <point x="571" y="530"/>
      <point x="531" y="481"/>
      <point x="485" y="433" type="curve"/>
      <point x="439" y="385"/>
      <point x="415" y="360"/>
      <point x="336" y="292" type="curve"/>
      <point x="182" y="155"/>
      <point x="127" y="95"/>
      <point x="82" y="46" type="curve"/>
      <point x="69" y="32"/>
      <point x="60" y="11"/>
      <point x="63" y="-7" type="curve"/>
      <point x="68" y="-34"/>
      <point x="94" y="-34"/>
    </contour>
    <contour>
      <point x="220" y="-110" type="move" name="bottom"/>
    </contour>
    <contour>
      <point x="504" y="785" type="move" name="topUC"/>
    </contour>
  </outline>
</glyph>
<glyph name="bracketright" format="2">
  <advance width="330"/>
  <unicode hex="005D"/>
  <outline>
    <contour>
      <point x="120" y="-111" type="curve"/>
      <point x="139" y="-116"/>
      <point x="92" y="-104"/>
      <point x="155" y="-111" type="curve"/>
      <point x="208" y="-115"/>
      <point x="214" y="-115"/>
      <point x="214" y="-72" type="curve"/>
      <point x="214" y="-64"/>
      <point x="214" y="-52"/>
      <point x="218" y="-52" type="curve"/>
      <point x="218" y="-52"/>
      <point x="221" y="-48"/>
      <point x="217" y="-48" type="curve"/>
      <point x="217" y="-48"/>
      <point x="216" y="-39"/>
      <point x="220" y="-32" type="curve"/>
      <point x="227" y="-27"/>
      <point x="225" y="-17"/>
      <point x="225" y="-11" type="curve"/>
      <point x="225" y="-5"/>
      <point x="234" y="0"/>
      <point x="234" y="4" type="curve"/>
      <point x="237" y="10"/>
      <point x="244" y="43"/>
      <point x="250" y="74" type="curve"/>
      <point x="261" y="108"/>
      <point x="268" y="139"/>
      <point x="268" y="144" type="curve"/>
      <point x="278" y="163"/>
      <point x="295" y="228"/>
      <point x="295" y="234" type="curve"/>
      <point x="295" y="234"/>
      <point x="297" y="249"/>
      <point x="301" y="262" type="curve"/>
      <point x="303" y="270"/>
      <point x="314" y="300"/>
      <point x="326" y="318" type="curve"/>
      <point x="328" y="339"/>
      <point x="335" y="368"/>
      <point x="340" y="379" type="curve"/>
      <point x="342" y="388"/>
      <point x="348" y="400"/>
      <point x="348" y="400" type="curve"/>
      <point x="348" y="404"/>
      <point x="364" y="437"/>
      <point x="378" y="484" type="curve"/>
      <point x="385" y="502"/>
      <point x="388" y="517"/>
      <point x="388" y="522" type="curve"/>
      <point x="388" y="528"/>
      <point x="393" y="529"/>
      <point x="393" y="529" type="curve"/>
      <point x="398" y="529"/>
      <point x="407" y="555"/>
      <point x="405" y="566" type="curve"/>
      <point x="405" y="572"/>
      <point x="410" y="573"/>
      <point x="410" y="573" type="curve"/>
      <point x="417" y="574"/>
      <point x="417" y="578"/>
      <point x="417" y="582" type="curve"/>
      <point x="415" y="591"/>
      <point x="453" y="669"/>
      <point x="465" y="686" type="curve"/>
      <point x="473" y="696"/>
      <point x="473" y="696"/>
      <point x="463" y="715" type="curve"/>
      <point x="463" y="728"/>
      <point x="451" y="736"/>
      <point x="447" y="736" type="curve"/>
      <point x="433" y="746"/>
      <point x="382" y="735"/>
      <point x="361" y="730" type="curve"/>
      <point x="357" y="730"/>
      <point x="347" y="735"/>
      <point x="289" y="728" type="curve"/>
      <point x="218" y="719"/>
      <point x="162" y="708"/>
      <point x="163" y="690" type="curve"/>
      <point x="164" y="681"/>
      <point x="170" y="674"/>
      <point x="176" y="675" type="curve"/>
      <point x="180" y="675"/>
      <point x="180" y="675"/>
      <point x="184" y="671" type="curve"/>
      <point x="185" y="667"/>
      <point x="187" y="667"/>
      <point x="313" y="675" type="curve"/>
      <point x="351" y="678"/>
      <point x="381" y="680"/>
      <point x="381" y="680" type="curve"/>
      <point x="381" y="680"/>
      <point x="374" y="646"/>
      <point x="359" y="617" type="curve"/>
      <point x="330" y="524"/>
      <point x="287" y="400"/>
      <point x="270" y="344" type="curve"/>
      <point x="268" y="324"/>
      <point x="256" y="302"/>
      <point x="253" y="282" type="curve"/>
      <point x="250" y="266"/>
      <point x="236" y="230"/>
      <point x="228" y="203" type="curve"/>
      <point x="222" y="170"/>
      <point x="204" y="128"/>
      <point x="202" y="107" type="curve"/>
      <point x="194" y="81"/>
      <point x="186" y="54"/>
      <point x="182" y="43" type="curve"/>
      <point x="183" y="35"/>
      <point x="178" y="22"/>
      <point x="170" y="16" type="curve"/>
      <point x="170" y="11"/>
      <point x="168" y="-9"/>
      <point x="165" y="-25" type="curve"/>
      <point x="155" y="-52" type="line"/>
      <point x="119" y="-55" type="line" smooth="yes"/>
      <point x="104" y="-56"/>
      <point x="89" y="-53"/>
      <point x="85" y="-53" type="curve"/>
      <point x="71" y="-49"/>
      <point x="-25" y="-64"/>
      <point x="-35" y="-77" type="curve"/>
      <point x="-47" y="-82" type="line"/>
      <point x="-33" y="-92" type="line"/>
      <point x="-27" y="-100"/>
      <point x="-18" y="-104"/>
      <point x="-18" y="-104" type="curve"/>
      <point x="-12" y="-103"/>
      <point x="10" y="-110"/>
      <point x="30" y="-108" type="curve"/>
      <point x="52" y="-112"/>
      <point x="77" y="-110"/>
      <point x="87" y="-109" type="curve"/>
      <point x="100" y="-112"/>
      <point x="115" y="-111"/>
    </contour>
  </outline>
</glyph>
<glyph name="underscore" format="1">
  <advance width="446"/>
  <unicode hex="005F"/>
  <outline>
    <contour>
      <point x="117" y="-8" type="curve"/>
      <point x="155" y="-8"/>
      <point x="310" y="-4"/>
      <point x="325" y="-3" type="curve"/>
      <point x="349" y="-1"/>
      <point x="378" y="1"/>
      <point x="388" y="2" type="curve"/>
      <point x="418" y="-3"/>
      <point x="424" y="20"/>
      <point x="404" y="40" type="curve"/>
      <point x="389" y="54"/>
      <point x="383" y="55"/>
      <point x="349" y="55" type="curve"/>
      <point x="295" y="55"/>
      <point x="142" y="51"/>
      <point x="97" y="41" type="curve"/>
      <point x="48" y="36"/>
      <point x="38" y="31"/>
      <point x="53" y="11" type="curve"/>
      <point x="58" y="2"/>
      <point x="62" y="-3"/>
      <point x="82" y="-3" type="curve"/>
      <point x="97" y="-8"/>
      <point x="109" y="-8"/>
    </contour>
  </outline>
</glyph>
<glyph name="grave" format="1">
  <advance width="353"/>
  <unicode hex="0060"/>
  <outline>
    <contour>
      <point x="347" y="441" type="curve"/>
      <point x="358" y="444"/>
      <point x="368" y="461"/>
      <point x="367" y="467" type="curve"/>
      <point x="367" y="482"/>
      <point x="329" y="577"/>
      <point x="310" y="587" type="curve"/>
      <point x="297" y="601"/>
      <point x="285" y="590"/>
      <point x="268" y="575" type="curve"/>
      <point x="251" y="552"/>
      <point x="303" y="490"/>
      <point x="320" y="457" type="curve"/>
      <point x="328" y="434"/>
      <point x="331" y="429"/>
    </contour>
    <contour>
      <point x="379" y="560" type="move" name="_top"/>
    </contour>
  </outline>
</glyph>
<glyph name="a" format="1">
  <advance width="437"/>
  <unicode hex="0061"/>
  <outline>
    <contour>
      <point x="107" y="36" type="curve"/>
      <point x="152" y="7"/>
      <point x="220" y="39"/>
      <point x="315" y="135" type="curve"/>
      <point x="323" y="143"/>
      <point x="342" y="166"/>
      <point x="347" y="173" type="curve"/>
      <point x="348" y="166"/>
      <point x="359" y="137"/>
      <point x="365" y="129" type="curve"/>
      <point x="397" y="67"/>
      <point x="435" y="41"/>
      <point x="479" y="47" type="curve"/>
      <point x="492" y="50"/>
      <point x="497" y="58"/>
      <point x="497" y="71" type="curve"/>
      <point x="497" y="85"/>
      <point x="486" y="91"/>
      <point x="475" y="93" type="curve"/>
      <point x="456" y="96"/>
      <point x="432" y="111"/>
      <point x="425" y="126" type="curve"/>
      <point x="407" y="155"/>
      <point x="394" y="195"/>
      <point x="412" y="248" type="curve"/>
      <point x="430" y="298" type="line"/>
      <point x="393" y="331" type="line" smooth="yes"/>
      <point x="373" y="349"/>
      <point x="352" y="368"/>
      <point x="347" y="374" type="curve"/>
      <point x="326" y="391"/>
      <point x="293" y="386"/>
      <point x="265" y="367" type="curve"/>
      <point x="237" y="350"/>
      <point x="178" y="288"/>
      <point x="178" y="276" type="curve"/>
      <point x="178" y="270" type="line"/>
      <point x="173" y="270"/>
      <point x="168" y="264"/>
      <point x="168" y="259" type="curve"/>
      <point x="162" y="254"/>
      <point x="151" y="232"/>
      <point x="140" y="221" type="curve"/>
      <point x="102" y="151"/>
      <point x="75" y="85"/>
      <point x="86" y="74" type="curve"/>
      <point x="91" y="68"/>
      <point x="91" y="62"/>
      <point x="91" y="57" type="curve"/>
      <point x="91" y="52"/>
      <point x="102" y="47"/>
    </contour>
    <contour>
      <point x="143" y="92" type="curve"/>
      <point x="143" y="92"/>
      <point x="154" y="122"/>
      <point x="168" y="149" type="curve"/>
      <point x="219" y="245"/>
      <point x="289" y="325"/>
      <point x="316" y="325" type="curve"/>
      <point x="326" y="325"/>
      <point x="343" y="316"/>
      <point x="357" y="285" type="curve"/>
      <point x="335" y="249" type="line"/>
      <point x="307" y="209"/>
      <point x="256" y="159"/>
      <point x="211" y="120" type="curve"/>
      <point x="178" y="93"/>
      <point x="143" y="82"/>
    </contour>
    <contour>
      <point x="452" y="40" type="move" name="ogonek"/>
    </contour>
    <contour>
      <point x="423" y="560" type="move" name="top"/>
    </contour>
  </outline>
</glyph>
<glyph name="g" format="2">
  <advance width="355"/>
  <unicode hex="0067"/>
  <anchor x="381" y="560" name="top"/>
  <outline>
    <contour>
      <point x="205" y="-191" type="curve"/>
      <point x="231" y="-177"/>
      <point x="262" y="-125"/>
      <point x="295" y="-12" type="curve"/>
      <point x="311" y="50" type="line" smooth="yes"/>
      <point x="322" y="92"/>
      <point x="339" y="147"/>
      <point x="346" y="187" type="curve"/>
      <point x="353" y="217"/>
      <point x="368" y="232"/>
      <point x="380" y="249" type="curve"/>
      <point x="393" y="266"/>
      <point x="395" y="282"/>
      <point x="386" y="302" type="curve"/>
      <point x="379" y="320"/>
      <point x="368" y="338"/>
      <point x="351" y="355" type="curve"/>
      <point x="324" y="378"/>
      <point x="318" y="382"/>
      <point x="296" y="385" type="curve"/>
      <point x="272" y="392"/>
      <point x="261" y="388"/>
      <point x="251" y="383" type="curve"/>
      <point x="209" y="370"/>
      <point x="144" y="296"/>
      <point x="120" y="247" type="curve"/>
      <point x="102" y="202"/>
      <point x="95" y="150"/>
      <point x="104" y="130" type="curve"/>
      <point x="116" y="100"/>
      <point x="116" y="100"/>
      <point x="144" y="85" type="curve"/>
      <point x="173" y="76"/>
      <point x="211" y="78"/>
      <point x="219" y="88" type="curve"/>
      <point x="253" y="102"/>
      <point x="271" y="130"/>
      <point x="301" y="149" type="curve"/>
      <point x="295" y="149" type="line"/>
      <point x="290" y="143"/>
      <point x="283" y="132"/>
      <point x="279" y="116" type="curve"/>
      <point x="267" y="85"/>
      <point x="250" y="22"/>
      <point x="236" y="-27" type="curve"/>
      <point x="217" y="-86"/>
      <point x="205" y="-109"/>
      <point x="183" y="-126" type="curve"/>
      <point x="173" y="-133"/>
      <point x="164" y="-136"/>
      <point x="139" y="-124" type="curve"/>
      <point x="130" y="-122"/>
      <point x="108" y="-90"/>
      <point x="103" y="-76" type="curve"/>
      <point x="99" y="-64"/>
      <point x="77" y="-58"/>
      <point x="71" y="-63" type="curve"/>
      <point x="62" y="-68"/>
      <point x="82" y="-125"/>
      <point x="94" y="-142" type="curve"/>
      <point x="123" y="-184"/>
      <point x="168" y="-206"/>
    </contour>
    <contour>
      <point x="169" y="129" type="curve"/>
      <point x="156" y="134"/>
      <point x="159" y="177"/>
      <point x="173" y="217" type="curve"/>
      <point x="179" y="234"/>
      <point x="189" y="253"/>
      <point x="198" y="265" type="curve"/>
      <point x="225" y="299"/>
      <point x="258" y="325"/>
      <point x="283" y="329" type="curve"/>
      <point x="300" y="332"/>
      <point x="304" y="326"/>
      <point x="305" y="305" type="curve"/>
      <point x="308" y="272"/>
      <point x="299" y="235"/>
      <point x="276" y="203" type="curve"/>
      <point x="242" y="150"/>
      <point x="209" y="130"/>
    </contour>
  </outline>
</glyph>
<glyph name="m" format="1">
  <advance width="560"/>
  <unicode hex="006D"/>
  <outline>
    <contour>
      <point x="551" y="42" type="curve"/>
      <point x="570" y="35"/>
      <point x="596" y="32"/>
      <point x="616" y="44" type="curve"/>
      <point x="637" y="57"/>
      <point x="631" y="75"/>
      <point x="611" y="78" type="curve"/>
      <point x="592" y="81"/>
      <point x="581" y="84"/>
      <point x="577" y="89" type="curve"/>
      <point x="572" y="95"/>
      <point x="571" y="143"/>
      <point x="569" y="170" type="curve"/>
      <point x="569" y="212"/>
      <point x="572" y="224"/>
      <point x="556" y="239" type="curve"/>
      <point x="532" y="277"/>
      <point x="493" y="262"/>
      <point x="441" y="222" type="curve"/>
      <point x="426" y="210"/>
      <point x="383" y="173"/>
      <point x="383" y="173" type="curve"/>
      <point x="383" y="173"/>
      <point x="401" y="227"/>
      <point x="403" y="236" type="curve"/>
      <point x="406" y="249"/>
      <point x="405" y="266"/>
      <point x="396" y="275" type="curve"/>
      <point x="375" y="296"/>
      <point x="372" y="303"/>
      <point x="350" y="303" type="curve"/>
      <point x="323" y="295"/>
      <point x="257" y="256"/>
      <point x="215" y="216" type="curve"/>
      <point x="194" y="200"/>
      <point x="175" y="178"/>
      <point x="173" y="185" type="curve"/>
      <point x="173" y="190"/>
      <point x="195" y="253"/>
      <point x="206" y="276" type="curve"/>
      <point x="217" y="303" type="line" smooth="yes"/>
      <point x="221" y="313"/>
      <point x="226" y="326"/>
      <point x="225" y="342" type="curve"/>
      <point x="224" y="363"/>
      <point x="211" y="375"/>
      <point x="196" y="378" type="curve"/>
      <point x="182" y="381"/>
      <point x="162" y="370"/>
      <point x="162" y="350" type="curve"/>
      <point x="162" y="345"/>
      <point x="161" y="333"/>
      <point x="152" y="308" type="curve"/>
      <point x="115" y="222"/>
      <point x="124" y="239"/>
      <point x="114" y="200" type="curve"/>
      <point x="100" y="134"/>
      <point x="85" y="95"/>
      <point x="96" y="73" type="curve"/>
      <point x="102" y="51"/>
      <point x="118" y="43"/>
      <point x="135" y="43" type="curve"/>
      <point x="140" y="43"/>
      <point x="166" y="87"/>
      <point x="193" y="110" type="curve"/>
      <point x="219" y="136"/>
      <point x="251" y="164"/>
      <point x="261" y="180" type="curve"/>
      <point x="277" y="190"/>
      <point x="288" y="206"/>
      <point x="293" y="206" type="curve"/>
      <point x="299" y="217"/>
      <point x="327" y="231"/>
      <point x="338" y="232" type="curve"/>
      <point x="344" y="233"/>
      <point x="344" y="227"/>
      <point x="313" y="155" type="curve"/>
      <point x="290" y="89" type="line"/>
      <point x="287" y="79"/>
      <point x="288" y="72"/>
      <point x="295" y="66" type="curve"/>
      <point x="306" y="57" type="line" smooth="yes"/>
      <point x="329" y="38"/>
      <point x="344" y="61"/>
      <point x="365" y="83" type="curve"/>
      <point x="424" y="147"/>
      <point x="489" y="198"/>
      <point x="506" y="198" type="curve"/>
      <point x="516" y="198"/>
      <point x="513" y="174"/>
      <point x="512" y="134" type="curve"/>
      <point x="511" y="64"/>
      <point x="540" y="46"/>
    </contour>
  </outline>
</glyph>
<glyph name="n" format="1">
  <advance width="450"/>
  <unicode hex="006E"/>
  <outline>
    <contour>
      <point x="454" y="46" type="curve"/>
      <point x="475" y="51"/>
      <point x="478" y="67"/>
      <point x="462" y="83" type="curve"/>
      <point x="450" y="94"/>
      <point x="437" y="126"/>
      <point x="448" y="126" type="curve"/>
      <point x="448" y="126"/>
      <point x="448" y="126"/>
      <point x="448" y="131" type="curve"/>
      <point x="443" y="131"/>
      <point x="443" y="136"/>
      <point x="443" y="136" type="curve"/>
      <point x="453" y="142"/>
      <point x="454" y="205"/>
      <point x="447" y="232" type="curve"/>
      <point x="445" y="237"/>
      <point x="445" y="243"/>
      <point x="445" y="248" type="curve"/>
      <point x="440" y="264"/>
      <point x="404" y="296"/>
      <point x="388" y="296" type="curve"/>
      <point x="383" y="296"/>
      <point x="369" y="290"/>
      <point x="358" y="285" type="curve"/>
      <point x="337" y="280"/>
      <point x="275" y="237"/>
      <point x="266" y="227" type="curve"/>
      <point x="250" y="216"/>
      <point x="210" y="189"/>
      <point x="210" y="189" type="curve"/>
      <point x="210" y="195"/>
      <point x="215" y="205"/>
      <point x="224" y="227" type="curve"/>
      <point x="262" y="290"/>
      <point x="266" y="317"/>
      <point x="242" y="349" type="curve"/>
      <point x="230" y="365"/>
      <point x="214" y="370"/>
      <point x="203" y="360" type="curve"/>
      <point x="203" y="360" type="line" smooth="yes"/>
      <point x="203" y="360" type="line"/>
      <point x="198" y="360"/>
      <point x="192" y="354"/>
      <point x="194" y="349" type="curve"/>
      <point x="191" y="317"/>
      <point x="186" y="301"/>
      <point x="167" y="269" type="curve"/>
      <point x="158" y="248"/>
      <point x="144" y="216"/>
      <point x="141" y="200" type="curve"/>
      <point x="130" y="184"/>
      <point x="127" y="168"/>
      <point x="121" y="168" type="curve"/>
      <point x="116" y="157"/>
      <point x="104" y="104"/>
      <point x="104" y="94" type="curve"/>
      <point x="106" y="88"/>
      <point x="117" y="78"/>
      <point x="127" y="67" type="curve"/>
      <point x="140" y="56"/>
      <point x="145" y="51"/>
      <point x="156" y="56" type="curve"/>
      <point x="167" y="56"/>
      <point x="166" y="73"/>
      <point x="195" y="105" type="curve"/>
      <point x="250" y="153"/>
      <point x="325" y="198"/>
      <point x="362" y="221" type="curve"/>
      <point x="383" y="233"/>
      <point x="394" y="231"/>
      <point x="396" y="205" type="curve"/>
      <point x="396" y="189"/>
      <point x="398" y="173"/>
      <point x="393" y="168" type="curve"/>
      <point x="387" y="157"/>
      <point x="391" y="110"/>
      <point x="399" y="83" type="curve"/>
      <point x="411" y="56"/>
      <point x="427" y="46"/>
    </contour>
    <contour>
      <point x="99" y="560" type="move" name="apostrophe"/>
    </contour>
    <contour>
      <point x="184" y="-110" type="move" name="bottom"/>
    </contour>
    <contour>
      <point x="429" y="560" type="move" name="top"/>
    </contour>
  </outline>
</glyph>
<glyph name="p" format="1">
  <advance width="378"/>
  <unicode hex="0070"/>
  <outline>
    <contour>
      <point x="61" y="-224" type="curve"/>
      <point x="77" y="-224"/>
      <point x="90" y="-205"/>
      <point x="92" y="-171" type="curve"/>
      <point x="92" y="-164"/>
      <point x="92" y="-144"/>
      <point x="98" y="-142" type="curve"/>
      <point x="103" y="-142"/>
      <point x="109" y="-123"/>
      <point x="109" y="-107" type="curve"/>
      <point x="114" y="-96"/>
      <point x="119" y="-70"/>
      <point x="119" y="-59" type="curve"/>
      <point x="125" y="-49"/>
      <point x="125" y="-28"/>
      <point x="125" y="-28" type="curve"/>
      <point x="119" y="-22"/>
      <point x="125" y="-17"/>
      <point x="125" y="-17" type="curve"/>
      <point x="134" y="-17"/>
      <point x="151" y="40"/>
      <point x="151" y="52" type="curve"/>
      <point x="151" y="56"/>
      <point x="155" y="62"/>
      <point x="158" y="65" type="curve"/>
      <point x="166" y="58"/>
      <point x="172" y="57"/>
      <point x="188" y="57" type="curve"/>
      <point x="220" y="57"/>
      <point x="278" y="78"/>
      <point x="278" y="83" type="curve"/>
      <point x="278" y="89"/>
      <point x="283" y="89"/>
      <point x="283" y="89" type="curve"/>
      <point x="299" y="83"/>
      <point x="352" y="115"/>
      <point x="368" y="136" type="curve"/>
      <point x="373" y="147"/>
      <point x="378" y="157"/>
      <point x="384" y="157" type="curve"/>
      <point x="396" y="168"/>
      <point x="415" y="210"/>
      <point x="415" y="235" type="curve"/>
      <point x="415" y="311"/>
      <point x="355" y="362"/>
      <point x="246" y="311" type="curve"/>
      <point x="241" y="309"/>
      <point x="262" y="328"/>
      <point x="262" y="358" type="curve"/>
      <point x="267" y="387"/>
      <point x="262" y="393"/>
      <point x="251" y="411" type="curve"/>
      <point x="236" y="422"/>
      <point x="228" y="430"/>
      <point x="215" y="417" type="curve"/>
      <point x="205" y="406"/>
      <point x="204" y="405"/>
      <point x="204" y="400" type="curve"/>
      <point x="204" y="387"/>
      <point x="199" y="358"/>
      <point x="183" y="321" type="curve"/>
      <point x="152" y="242"/>
      <point x="93" y="68"/>
      <point x="86" y="30" type="curve"/>
      <point x="86" y="25"/>
      <point x="79" y="4"/>
      <point x="79" y="-6" type="curve"/>
      <point x="72" y="-12"/>
      <point x="67" y="-22"/>
      <point x="67" y="-28" type="curve"/>
      <point x="67" y="-43"/>
      <point x="62" y="-65"/>
      <point x="56" y="-75" type="curve"/>
      <point x="56" y="-82"/>
      <point x="51" y="-102"/>
      <point x="51" y="-107" type="curve"/>
      <point x="51" y="-118"/>
      <point x="46" y="-142"/>
      <point x="40" y="-165" type="curve"/>
      <point x="33" y="-200"/>
      <point x="35" y="-209"/>
      <point x="40" y="-216" type="curve"/>
      <point x="46" y="-228"/>
      <point x="56" y="-224"/>
    </contour>
    <contour>
      <point x="182" y="110" type="curve"/>
      <point x="164" y="110"/>
      <point x="190" y="191"/>
      <point x="222" y="225" type="curve"/>
      <point x="265" y="267"/>
      <point x="327" y="292"/>
      <point x="344" y="265" type="curve"/>
      <point x="367" y="229"/>
      <point x="341" y="186"/>
      <point x="306" y="156" type="curve"/>
      <point x="280" y="134"/>
      <point x="198" y="110"/>
    </contour>
  </outline>
</glyph>
<glyph name="s" format="2">
  <advance width="341"/>
  <unicode hex="0073"/>
  <anchor x="131" y="-110" name="bottom"/>
  <anchor x="389" y="603" name="top"/>
  <outline>
    <contour>
      <point x="161" y="-4" type="curve"/>
      <point x="189" y="-9"/>
      <point x="258" y="-4"/>
      <point x="279" y="6" type="curve"/>
      <point x="315" y="22"/>
      <point x="326" y="40"/>
      <point x="302" y="80" type="curve"/>
      <point x="297" y="98"/>
      <point x="274" y="119"/>
      <point x="205" y="171" type="curve"/>
      <point x="182" y="190"/>
      <point x="177" y="190"/>
      <point x="182" y="206" type="curve"/>
      <point x="182" y="216"/>
      <point x="186" y="232"/>
      <point x="189" y="235" type="curve"/>
      <point x="200" y="251"/>
      <point x="242" y="313"/>
      <point x="242" y="303" type="curve"/>
      <point x="247" y="303"/>
      <point x="247" y="303"/>
      <point x="252" y="313" type="curve"/>
      <point x="268" y="328"/>
      <point x="320" y="353"/>
      <point x="349" y="366" type="curve"/>
      <point x="360" y="366"/>
      <point x="360" y="366"/>
      <point x="360" y="358" type="curve"/>
      <point x="360" y="348"/>
      <point x="335" y="303"/>
      <point x="326" y="303" type="curve"/>
      <point x="326" y="303"/>
      <point x="320" y="297"/>
      <point x="320" y="292" type="curve"/>
      <point x="320" y="282"/>
      <point x="326" y="279"/>
      <point x="326" y="279" type="curve"/>
      <point x="331" y="279"/>
      <point x="331" y="274"/>
      <point x="335" y="269" type="curve"/>
      <point x="339" y="251"/>
      <point x="360" y="256"/>
      <point x="385" y="274" type="curve"/>
      <point x="394" y="282"/>
      <point x="400" y="292"/>
      <point x="400" y="297" type="curve"/>
      <point x="400" y="303"/>
      <point x="405" y="303"/>
      <point x="405" y="303" type="curve"/>
      <point x="418" y="303"/>
      <point x="423" y="342"/>
      <point x="423" y="366" type="curve"/>
      <point x="418" y="380"/>
      <point x="400" y="405"/>
      <point x="381" y="416" type="curve"/>
      <point x="365" y="425"/>
      <point x="344" y="425"/>
      <point x="320" y="416" type="curve"/>
      <point x="320" y="416" type="line" smooth="yes"/>
      <point x="320" y="416" type="line"/>
      <point x="284" y="405"/>
      <point x="213" y="358"/>
      <point x="177" y="324" type="curve"/>
      <point x="150" y="297"/>
      <point x="126" y="245"/>
      <point x="126" y="222" type="curve"/>
      <point x="126" y="200"/>
      <point x="140" y="166"/>
      <point x="150" y="166" type="curve"/>
      <point x="150" y="166"/>
      <point x="150" y="166"/>
      <point x="150" y="161" type="curve"/>
      <point x="145" y="154"/>
      <point x="171" y="133"/>
      <point x="200" y="109" type="curve"/>
      <point x="213" y="103"/>
      <point x="229" y="93"/>
      <point x="229" y="87" type="curve"/>
      <point x="234" y="87"/>
      <point x="242" y="80"/>
      <point x="247" y="80" type="curve"/>
      <point x="252" y="74"/>
      <point x="258" y="69"/>
      <point x="252" y="69" type="curve"/>
      <point x="247" y="58"/>
      <point x="195" y="51"/>
      <point x="171" y="51" type="curve"/>
      <point x="98" y="58"/>
      <point x="103" y="58"/>
      <point x="103" y="40" type="curve"/>
      <point x="110" y="28"/>
      <point x="136" y="6"/>
    </contour>
  </outline>
</glyph>
<glyph name="t" format="1">
  <advance width="331"/>
  <unicode hex="0074"/>
  <outline>
    <contour>
      <point x="179" y="7" type="curve"/>
      <point x="213" y="0"/>
      <point x="265" y="3"/>
      <point x="325" y="41" type="curve"/>
      <point x="367" y="65"/>
      <point x="367" y="81"/>
      <point x="367" y="97" type="curve"/>
      <point x="361" y="113"/>
      <point x="352" y="118"/>
      <point x="346" y="107" type="curve"/>
      <point x="346" y="107"/>
      <point x="331" y="97"/>
      <point x="319" y="91" type="curve"/>
      <point x="306" y="83"/>
      <point x="288" y="75"/>
      <point x="274" y="69" type="curve"/>
      <point x="255" y="63"/>
      <point x="215" y="61"/>
      <point x="200" y="63" type="curve"/>
      <point x="172" y="66"/>
      <point x="168" y="76"/>
      <point x="173" y="109" type="curve"/>
      <point x="181" y="161"/>
      <point x="194" y="217"/>
      <point x="213" y="273" type="curve"/>
      <point x="229" y="300"/>
      <point x="239" y="326"/>
      <point x="245" y="331" type="curve"/>
      <point x="250" y="342"/>
      <point x="253" y="347"/>
      <point x="264" y="350" type="curve"/>
      <point x="275" y="353"/>
      <point x="276" y="352"/>
      <point x="293" y="353" type="curve"/>
      <point x="303" y="353"/>
      <point x="327" y="353"/>
      <point x="359" y="358" type="curve"/>
      <point x="410" y="358"/>
      <point x="414" y="360"/>
      <point x="410" y="392" type="curve"/>
      <point x="407" y="414"/>
      <point x="391" y="425"/>
      <point x="353" y="419" type="curve"/>
      <point x="291" y="409"/>
      <point x="282" y="410"/>
      <point x="303" y="440" type="curve"/>
      <point x="315" y="463"/>
      <point x="330" y="485"/>
      <point x="341" y="508" type="curve"/>
      <point x="353" y="526"/>
      <point x="350" y="528"/>
      <point x="340" y="542" type="curve"/>
      <point x="320" y="559"/>
      <point x="309" y="558"/>
      <point x="297" y="548" type="curve"/>
      <point x="285" y="538"/>
      <point x="277" y="523"/>
      <point x="271" y="514" type="curve"/>
      <point x="257" y="492"/>
      <point x="254" y="484"/>
      <point x="245" y="467" type="curve"/>
      <point x="236" y="451"/>
      <point x="232" y="439"/>
      <point x="225" y="425" type="curve"/>
      <point x="222" y="416"/>
      <point x="216" y="411"/>
      <point x="211" y="409" type="curve"/>
      <point x="204" y="407"/>
      <point x="160" y="405"/>
      <point x="150" y="407" type="curve"/>
      <point x="144" y="407"/>
      <point x="128" y="387"/>
      <point x="128" y="376" type="curve"/>
      <point x="128" y="371"/>
      <point x="134" y="360"/>
      <point x="144" y="358" type="curve"/>
      <point x="184" y="347" type="line"/>
      <point x="157" y="289" type="line"/>
      <point x="147" y="259"/>
      <point x="131" y="217"/>
      <point x="125" y="196" type="curve"/>
      <point x="116" y="161"/>
      <point x="112" y="77"/>
      <point x="120" y="71" type="curve"/>
      <point x="120" y="71"/>
      <point x="125" y="66"/>
      <point x="125" y="63" type="curve"/>
      <point x="131" y="43"/>
      <point x="157" y="11"/>
    </contour>
    <contour>
      <point x="164" y="-110" type="move" name="bottom"/>
    </contour>
    <contour>
      <point x="321" y="560" type="move" name="caronalt"/>
    </contour>
  </outline>
</glyph>
<glyph name="w" format="2">
  <advance width="517"/>
  <unicode hex="0077"/>
  <anchor x="463" y="560" name="top"/>
  <outline>
    <contour>
      <point x="177" y="45" type="curve"/>
      <point x="201" y="45"/>
      <point x="258" y="86"/>
      <point x="277" y="120" type="curve"/>
      <point x="286" y="136"/>
      <point x="296" y="136"/>
      <point x="301" y="136" type="curve"/>
      <point x="301" y="136"/>
      <point x="306" y="126"/>
      <point x="306" y="115" type="curve"/>
      <point x="306" y="91"/>
      <point x="316" y="72"/>
      <point x="337" y="61" type="curve"/>
      <point x="364" y="40"/>
      <point x="417" y="51"/>
      <point x="459" y="93" type="curve"/>
      <point x="470" y="104"/>
      <point x="481" y="109"/>
      <point x="514" y="149" type="curve"/>
      <point x="524" y="165"/>
      <point x="540" y="181"/>
      <point x="546" y="186" type="curve"/>
      <point x="556" y="197"/>
      <point x="576" y="247"/>
      <point x="582" y="269" type="curve"/>
      <point x="582" y="285"/>
      <point x="582" y="295"/>
      <point x="576" y="301" type="curve"/>
      <point x="566" y="311"/>
      <point x="559" y="315"/>
      <point x="549" y="310" type="curve"/>
      <point x="536" y="303"/>
      <point x="534" y="299"/>
      <point x="526" y="288" type="curve"/>
      <point x="521" y="282"/>
      <point x="517" y="276"/>
      <point x="517" y="271" type="curve"/>
      <point x="517" y="260"/>
      <point x="464" y="178"/>
      <point x="440" y="154" type="curve"/>
      <point x="412" y="125"/>
      <point x="389" y="114"/>
      <point x="373" y="114" type="curve"/>
      <point x="362" y="114"/>
      <point x="354" y="114"/>
      <point x="354" y="141" type="curve"/>
      <point x="354" y="173"/>
      <point x="370" y="242"/>
      <point x="386" y="274" type="curve"/>
      <point x="402" y="306"/>
      <point x="402" y="327"/>
      <point x="386" y="343" type="curve"/>
      <point x="370" y="354"/>
      <point x="357" y="354"/>
      <point x="348" y="348" type="curve"/>
      <point x="342" y="344"/>
      <point x="337" y="329"/>
      <point x="330" y="308" type="curve"/>
      <point x="316" y="269"/>
      <point x="308" y="247"/>
      <point x="267" y="188" type="curve"/>
      <point x="204" y="97"/>
      <point x="183" y="125"/>
      <point x="189" y="162" type="curve"/>
      <point x="194" y="189"/>
      <point x="199" y="258"/>
      <point x="204" y="269" type="curve"/>
      <point x="215" y="285"/>
      <point x="220" y="343"/>
      <point x="209" y="354" type="curve"/>
      <point x="199" y="370"/>
      <point x="177" y="370"/>
      <point x="167" y="359" type="curve"/>
      <point x="162" y="354"/>
      <point x="156" y="338"/>
      <point x="151" y="316" type="curve"/>
      <point x="140" y="274"/>
      <point x="144" y="274"/>
      <point x="139" y="263" type="curve"/>
      <point x="134" y="237"/>
      <point x="128" y="215"/>
      <point x="128" y="173" type="curve"/>
      <point x="123" y="109"/>
      <point x="146" y="45"/>
    </contour>
  </outline>
</glyph>
<glyph name="x" format="1">
  <advance width="343"/>
  <unicode hex="0078"/>
  <outline>
    <contour>
      <point x="391" y="3" type="curve"/>
      <point x="407" y="3"/>
      <point x="407" y="30"/>
      <point x="391" y="46" type="curve"/>
      <point x="381" y="51"/>
      <point x="375" y="56"/>
      <point x="370" y="56" type="curve"/>
      <point x="365" y="56"/>
      <point x="306" y="99"/>
      <point x="295" y="115" type="curve"/>
      <point x="285" y="120"/>
      <point x="274" y="142"/>
      <point x="269" y="152" type="curve"/>
      <point x="253" y="179" type="line"/>
      <point x="279" y="200" type="line" smooth="yes"/>
      <point x="322" y="237"/>
      <point x="338" y="248"/>
      <point x="375" y="275" type="curve"/>
      <point x="402" y="290"/>
      <point x="407" y="296"/>
      <point x="407" y="312" type="curve"/>
      <point x="407" y="333"/>
      <point x="381" y="360"/>
      <point x="365" y="349" type="curve"/>
      <point x="354" y="344"/>
      <point x="301" y="306"/>
      <point x="295" y="301" type="curve"/>
      <point x="295" y="301"/>
      <point x="285" y="290"/>
      <point x="269" y="275" type="curve"/>
      <point x="237" y="253"/>
      <point x="221" y="248"/>
      <point x="221" y="269" type="curve"/>
      <point x="221" y="285"/>
      <point x="189" y="349"/>
      <point x="178" y="349" type="curve"/>
      <point x="162" y="360"/>
      <point x="157" y="354"/>
      <point x="147" y="344" type="curve"/>
      <point x="147" y="344" type="line" smooth="yes"/>
      <point x="147" y="344" type="line"/>
      <point x="136" y="328"/>
      <point x="136" y="328"/>
      <point x="152" y="306" type="curve"/>
      <point x="157" y="290"/>
      <point x="168" y="264"/>
      <point x="178" y="243" type="curve"/>
      <point x="189" y="205" type="line"/>
      <point x="125" y="142" type="line" smooth="yes"/>
      <point x="88" y="110"/>
      <point x="56" y="72"/>
      <point x="56" y="72" type="curve"/>
      <point x="56" y="56"/>
      <point x="83" y="35"/>
      <point x="99" y="35" type="curve"/>
      <point x="109" y="35"/>
      <point x="125" y="51"/>
      <point x="162" y="88" type="curve"/>
      <point x="189" y="115"/>
      <point x="216" y="136"/>
      <point x="216" y="136" type="curve"/>
      <point x="221" y="136"/>
      <point x="226" y="131"/>
      <point x="226" y="126" type="curve"/>
      <point x="226" y="120"/>
      <point x="232" y="115"/>
      <point x="232" y="115" type="curve"/>
      <point x="237" y="115"/>
      <point x="237" y="115"/>
      <point x="237" y="110" type="curve"/>
      <point x="237" y="94"/>
      <point x="311" y="30"/>
      <point x="338" y="19" type="curve"/>
      <point x="349" y="14"/>
      <point x="365" y="9"/>
      <point x="370" y="9" type="curve"/>
      <point x="375" y="3"/>
      <point x="386" y="3"/>
    </contour>
  </outline>
</glyph>
<glyph name="braceleft" format="1">
  <advance width="330"/>
  <unicode hex="007B"/>
  <outline>
    <contour>
      <point x="176" y="-127" type="curve"/>
      <point x="191" y="-137"/>
      <point x="228" y="-138"/>
      <point x="259" y="-121" type="curve"/>
      <point x="288" y="-112"/>
      <point x="294" y="-101"/>
      <point x="279" y="-88" type="curve"/>
      <point x="270" y="-76"/>
      <point x="266" y="-76"/>
      <point x="243" y="-82" type="curve"/>
      <point x="211" y="-87"/>
      <point x="198" y="-81"/>
      <point x="198" y="-70" type="curve"/>
      <point x="198" y="-66"/>
      <point x="203" y="-46"/>
      <point x="208" y="-18" type="curve"/>
      <point x="213" y="1"/>
      <point x="220" y="27"/>
      <point x="227" y="37" type="curve"/>
      <point x="227" y="48"/>
      <point x="236" y="72"/>
      <point x="246" y="92" type="curve"/>
      <point x="278" y="163"/>
      <point x="284" y="186"/>
      <point x="275" y="208" type="curve"/>
      <point x="275" y="221"/>
      <point x="265" y="236"/>
      <point x="265" y="241" type="curve"/>
      <point x="253" y="256"/>
      <point x="253" y="256"/>
      <point x="276" y="270" type="curve"/>
      <point x="307" y="297"/>
      <point x="327" y="331"/>
      <point x="345" y="381" type="curve"/>
      <point x="364" y="427"/>
      <point x="364" y="438"/>
      <point x="370" y="498" type="curve"/>
      <point x="376" y="556"/>
      <point x="376" y="561"/>
      <point x="390" y="597" type="curve"/>
      <point x="393" y="622"/>
      <point x="404" y="635"/>
      <point x="426" y="663" type="curve"/>
      <point x="452" y="686"/>
      <point x="473" y="696"/>
      <point x="498" y="702" type="curve"/>
      <point x="518" y="702"/>
      <point x="527" y="707"/>
      <point x="534" y="707" type="curve"/>
      <point x="540" y="711"/>
      <point x="523" y="743"/>
      <point x="514" y="747" type="curve"/>
      <point x="504" y="753"/>
      <point x="474" y="754"/>
      <point x="447" y="744" type="curve"/>
      <point x="432" y="736"/>
      <point x="411" y="728"/>
      <point x="392" y="704" type="curve"/>
      <point x="343" y="657"/>
      <point x="327" y="623"/>
      <point x="321" y="546" type="curve"/>
      <point x="316" y="480"/>
      <point x="309" y="446"/>
      <point x="293" y="404" type="curve"/>
      <point x="274" y="344"/>
      <point x="225" y="294"/>
      <point x="195" y="294" type="curve"/>
      <point x="178" y="299"/>
      <point x="158" y="288"/>
      <point x="153" y="272" type="curve"/>
      <point x="146" y="251"/>
      <point x="153" y="243"/>
      <point x="173" y="243" type="curve"/>
      <point x="204" y="237"/>
      <point x="223" y="222"/>
      <point x="223" y="201" type="curve"/>
      <point x="223" y="187"/>
      <point x="211" y="155"/>
      <point x="196" y="127" type="curve"/>
      <point x="180" y="94"/>
      <point x="153" y="12"/>
      <point x="149" y="-4" type="curve"/>
      <point x="148" y="-13"/>
      <point x="148" y="-24"/>
      <point x="141" y="-30" type="curve"/>
      <point x="141" y="-30"/>
      <point x="141" y="-45"/>
      <point x="141" y="-58" type="curve"/>
      <point x="140" y="-80"/>
      <point x="140" y="-91"/>
      <point x="151" y="-106" type="curve"/>
      <point x="158" y="-115"/>
      <point x="167" y="-119"/>
      <point x="167" y="-119" type="curve"/>
      <point x="167" y="-115"/>
      <point x="171" y="-119"/>
    </contour>
  </outline>
</glyph>
<glyph name="bar" format="1">
  <advance width="330"/>
  <unicode hex="007C"/>
  <outline>
    <contour>
      <point x="150" y="-140" type="curve"/>
      <point x="160" y="-135"/>
      <point x="160" y="-129"/>
      <point x="160" y="-97" type="curve"/>
      <point x="160" y="-60"/>
      <point x="221" y="134"/>
      <point x="243" y="208" type="curve"/>
      <point x="253" y="235"/>
      <point x="259" y="256"/>
      <point x="259" y="261" type="curve"/>
      <point x="259" y="261"/>
      <point x="259" y="272"/>
      <point x="264" y="272" type="curve"/>
      <point x="269" y="277"/>
      <point x="269" y="283"/>
      <point x="269" y="288" type="curve"/>
      <point x="269" y="293"/>
      <point x="301" y="368"/>
      <point x="312" y="389" type="curve"/>
      <point x="317" y="405"/>
      <point x="323" y="416"/>
      <point x="323" y="421" type="curve"/>
      <point x="323" y="426"/>
      <point x="388" y="573"/>
      <point x="399" y="600" type="curve"/>
      <point x="436" y="679"/>
      <point x="442" y="685"/>
      <point x="442" y="711" type="curve"/>
      <point x="442" y="727"/>
      <point x="442" y="738"/>
      <point x="431" y="748" type="curve"/>
      <point x="420" y="759"/>
      <point x="415" y="764"/>
      <point x="415" y="764" type="curve"/>
      <point x="410" y="764"/>
      <point x="403" y="763"/>
      <point x="399" y="759" type="curve"/>
      <point x="388" y="759"/>
      <point x="383" y="754"/>
      <point x="383" y="743" type="curve"/>
      <point x="383" y="727"/>
      <point x="259" y="405"/>
      <point x="237" y="363" type="curve"/>
      <point x="237" y="357"/>
      <point x="232" y="352"/>
      <point x="232" y="347" type="curve"/>
      <point x="232" y="341"/>
      <point x="227" y="331"/>
      <point x="227" y="325" type="curve"/>
      <point x="221" y="320"/>
      <point x="216" y="304"/>
      <point x="216" y="293" type="curve"/>
      <point x="216" y="283"/>
      <point x="211" y="272"/>
      <point x="206" y="272" type="curve"/>
      <point x="200" y="261"/>
      <point x="128" y="41"/>
      <point x="123" y="14" type="curve"/>
      <point x="123" y="4"/>
      <point x="118" y="-12"/>
      <point x="112" y="-28" type="curve"/>
      <point x="96" y="-103"/>
      <point x="112" y="-150"/>
    </contour>
  </outline>
</glyph>
<glyph name="exclamdown" format="1">
  <advance width="210"/>
  <unicode hex="00A1"/>
  <outline>
    <contour>
      <point x="25" y="-227" type="curve"/>
      <point x="30" y="-227"/>
      <point x="36" y="-227"/>
      <point x="41" y="-223" type="curve"/>
      <point x="52" y="-225"/>
      <point x="57" y="-220"/>
      <point x="59" y="-209" type="curve"/>
      <point x="60" y="-193"/>
      <point x="121" y="-42"/>
      <point x="146" y="0" type="curve"/>
      <point x="146" y="6"/>
      <point x="151" y="9"/>
      <point x="151" y="14" type="curve"/>
      <point x="151" y="20"/>
      <point x="159" y="29"/>
      <point x="159" y="35" type="curve"/>
      <point x="165" y="40"/>
      <point x="170" y="56"/>
      <point x="170" y="67" type="curve"/>
      <point x="170" y="77"/>
      <point x="178" y="88"/>
      <point x="183" y="88" type="curve"/>
      <point x="189" y="99"/>
      <point x="210" y="146"/>
      <point x="217" y="172" type="curve"/>
      <point x="217" y="182"/>
      <point x="223" y="198"/>
      <point x="231" y="214" type="curve"/>
      <point x="250" y="289"/>
      <point x="237" y="336"/>
      <point x="199" y="329" type="curve"/>
      <point x="189" y="324"/>
      <point x="189" y="325"/>
      <point x="186" y="293" type="curve"/>
      <point x="184" y="264"/>
      <point x="174" y="226"/>
      <point x="149" y="155" type="curve"/>
      <point x="136" y="128"/>
      <point x="130" y="107"/>
      <point x="130" y="102" type="curve"/>
      <point x="130" y="102"/>
      <point x="130" y="91"/>
      <point x="125" y="91" type="curve"/>
      <point x="120" y="86"/>
      <point x="119" y="80"/>
      <point x="117" y="75" type="curve"/>
      <point x="117" y="70"/>
      <point x="98" y="31"/>
      <point x="86" y="11" type="curve"/>
      <point x="79" y="-5"/>
      <point x="73" y="-16"/>
      <point x="73" y="-21" type="curve"/>
      <point x="73" y="-26"/>
      <point x="57" y="-53"/>
      <point x="44" y="-78" type="curve"/>
      <point x="23" y="-116"/>
      <point x="3" y="-148"/>
      <point x="1" y="-174" type="curve"/>
      <point x="1" y="-190"/>
      <point x="1" y="-201"/>
      <point x="11" y="-211" type="curve"/>
      <point x="20" y="-222"/>
      <point x="25" y="-227"/>
    </contour>
    <contour>
      <point x="239" y="406" type="curve"/>
      <point x="263" y="396"/>
      <point x="268" y="396"/>
      <point x="292" y="411" type="curve"/>
      <point x="327" y="435"/>
      <point x="337" y="460"/>
      <point x="312" y="484" type="curve"/>
      <point x="292" y="499"/>
      <point x="278" y="499"/>
      <point x="253" y="489" type="curve"/>
      <point x="204" y="465"/>
      <point x="199" y="431"/>
    </contour>
  </outline>
</glyph>
<glyph name="cent" format="1">
  <advance width="450"/>
  <unicode hex="00A2"/>
  <outline>
    <contour>
      <point x="214" y="-54" type="curve"/>
      <point x="226" y="-51"/>
      <point x="228" y="-45"/>
      <point x="230" y="-13" type="curve"/>
      <point x="235" y="23"/>
      <point x="295" y="140"/>
      <point x="324" y="214" type="curve"/>
      <point x="339" y="236"/>
      <point x="345" y="256"/>
      <point x="345" y="261" type="curve"/>
      <point x="345" y="261"/>
      <point x="346" y="272"/>
      <point x="351" y="272" type="curve"/>
      <point x="356" y="277"/>
      <point x="360" y="283"/>
      <point x="360" y="288" type="curve"/>
      <point x="361" y="293"/>
      <point x="399" y="363"/>
      <point x="411" y="384" type="curve"/>
      <point x="421" y="400"/>
      <point x="427" y="410"/>
      <point x="427" y="415" type="curve"/>
      <point x="427" y="420"/>
      <point x="487" y="511"/>
      <point x="501" y="536" type="curve"/>
      <point x="543" y="612"/>
      <point x="551" y="616"/>
      <point x="556" y="642" type="curve"/>
      <point x="557" y="657"/>
      <point x="556" y="669"/>
      <point x="549" y="681" type="curve"/>
      <point x="540" y="690"/>
      <point x="535" y="695"/>
      <point x="535" y="695" type="curve"/>
      <point x="530" y="697"/>
      <point x="523" y="697"/>
      <point x="519" y="693" type="curve"/>
      <point x="508" y="695"/>
      <point x="503" y="690"/>
      <point x="499" y="680" type="curve"/>
      <point x="498" y="664"/>
      <point x="371" y="405"/>
      <point x="344" y="363" type="curve"/>
      <point x="344" y="357"/>
      <point x="339" y="355"/>
      <point x="338" y="351" type="curve"/>
      <point x="338" y="346"/>
      <point x="329" y="336"/>
      <point x="329" y="330" type="curve"/>
      <point x="322" y="326"/>
      <point x="317" y="310"/>
      <point x="317" y="299" type="curve"/>
      <point x="316" y="289"/>
      <point x="307" y="278"/>
      <point x="302" y="278" type="curve"/>
      <point x="295" y="267"/>
      <point x="223" y="129"/>
      <point x="214" y="103" type="curve"/>
      <point x="213" y="93"/>
      <point x="209" y="76"/>
      <point x="197" y="59" type="curve"/>
      <point x="175" y="-14"/>
      <point x="176" y="-62"/>
    </contour>
    <contour>
      <point x="334" y="186" type="curve"/>
      <point x="344" y="192"/>
      <point x="393" y="203"/>
      <point x="398" y="203" type="curve"/>
      <point x="402" y="202"/>
      <point x="409" y="207"/>
      <point x="414" y="207" type="curve"/>
      <point x="414" y="214"/>
      <point x="433" y="228"/>
      <point x="455" y="239" type="curve"/>
      <point x="488" y="257"/>
      <point x="492" y="274"/>
      <point x="471" y="283" type="curve"/>
      <point x="461" y="285"/>
      <point x="442" y="285"/>
      <point x="417" y="269" type="curve"/>
      <point x="379" y="253"/>
      <point x="286" y="241"/>
      <point x="276" y="246" type="curve"/>
      <point x="271" y="251"/>
      <point x="264" y="282"/>
      <point x="270" y="296" type="curve"/>
      <point x="275" y="314"/>
      <point x="296" y="378"/>
      <point x="332" y="415" type="curve"/>
      <point x="350" y="441"/>
      <point x="372" y="464"/>
      <point x="383" y="464" type="curve"/>
      <point x="383" y="464"/>
      <point x="407" y="452"/>
      <point x="410" y="442" type="curve"/>
      <point x="411" y="417"/>
      <point x="435" y="407"/>
      <point x="446" y="419" type="curve"/>
      <point x="454" y="428"/>
      <point x="473" y="443"/>
      <point x="474" y="448" type="curve"/>
      <point x="483" y="474"/>
      <point x="428" y="521"/>
      <point x="388" y="524" type="curve"/>
      <point x="377" y="525"/>
      <point x="360" y="521"/>
      <point x="351" y="517" type="curve"/>
      <point x="328" y="505"/>
      <point x="312" y="500"/>
      <point x="312" y="500" type="curve"/>
      <point x="300" y="493"/>
      <point x="255" y="426"/>
      <point x="241" y="397" type="curve"/>
      <point x="207" y="313"/>
      <point x="204" y="252"/>
      <point x="226" y="221" type="curve"/>
      <point x="234" y="205"/>
      <point x="253" y="192"/>
      <point x="258" y="192" type="curve"/>
      <point x="297" y="178"/>
      <point x="317" y="178"/>
    </contour>
  </outline>
</glyph>
<glyph name="sterling" format="1">
  <advance width="450"/>
  <unicode hex="00A3"/>
  <outline>
    <contour>
      <point x="439" y="-48" type="curve"/>
      <point x="500" y="-13"/>
      <point x="520" y="38"/>
      <point x="474" y="38" type="curve"/>
      <point x="464" y="38"/>
      <point x="456" y="33"/>
      <point x="450" y="33" type="curve"/>
      <point x="450" y="26"/>
      <point x="444" y="19"/>
      <point x="439" y="19" type="curve"/>
      <point x="436" y="9"/>
      <point x="407" y="-1"/>
      <point x="374" y="-1" type="curve"/>
      <point x="356" y="-1"/>
      <point x="332" y="4"/>
      <point x="314" y="16" type="curve"/>
      <point x="292" y="19"/>
      <point x="267" y="33"/>
      <point x="252" y="38" type="curve"/>
      <point x="216" y="50" type="line"/>
      <point x="214" y="75" type="line"/>
      <point x="218" y="121"/>
      <point x="234" y="208"/>
      <point x="236" y="229" type="curve"/>
      <point x="249" y="274"/>
      <point x="303" y="436"/>
      <point x="333" y="496" type="curve"/>
      <point x="347" y="522"/>
      <point x="360" y="544"/>
      <point x="360" y="544" type="curve"/>
      <point x="360" y="544"/>
      <point x="371" y="552"/>
      <point x="383" y="572" type="curve"/>
      <point x="411" y="594"/>
      <point x="433" y="610"/>
      <point x="448" y="604" type="curve"/>
      <point x="467" y="599"/>
      <point x="482" y="560"/>
      <point x="480" y="538" type="curve"/>
      <point x="476" y="496"/>
      <point x="501" y="488"/>
      <point x="529" y="502" type="curve"/>
      <point x="547" y="516"/>
      <point x="552" y="522"/>
      <point x="554" y="533" type="curve"/>
      <point x="554" y="538"/>
      <point x="556" y="548"/>
      <point x="551" y="552" type="curve"/>
      <point x="551" y="552"/>
      <point x="545" y="565"/>
      <point x="541" y="578" type="curve"/>
      <point x="539" y="599"/>
      <point x="503" y="646"/>
      <point x="501" y="633" type="curve"/>
      <point x="478" y="655"/>
      <point x="439" y="666"/>
      <point x="403" y="655" type="curve"/>
      <point x="349" y="646"/>
      <point x="297" y="565"/>
      <point x="245" y="459" type="curve"/>
      <point x="205" y="375"/>
      <point x="177" y="260"/>
      <point x="171" y="208" type="curve"/>
      <point x="159" y="133"/>
      <point x="151" y="102"/>
      <point x="143" y="75" type="curve"/>
      <point x="135" y="60"/>
      <point x="137" y="60"/>
      <point x="73" y="54" type="curve"/>
      <point x="36" y="50"/>
      <point x="24" y="38"/>
      <point x="24" y="16" type="curve"/>
      <point x="24" y="-13"/>
      <point x="105" y="-31"/>
      <point x="160" y="-13" type="curve"/>
      <point x="180" y="-7"/>
      <point x="187" y="-7"/>
      <point x="216" y="-13" type="curve"/>
      <point x="230" y="-17"/>
      <point x="258" y="-17"/>
      <point x="267" y="-23" type="curve"/>
      <point x="277" y="-23"/>
      <point x="292" y="-31"/>
      <point x="296" y="-35" type="curve"/>
      <point x="338" y="-63"/>
      <point x="399" y="-68"/>
    </contour>
    <contour>
      <point x="341" y="283" type="curve"/>
      <point x="365" y="285"/>
      <point x="394" y="287"/>
      <point x="404" y="288" type="curve"/>
      <point x="434" y="283"/>
      <point x="440" y="306"/>
      <point x="420" y="326" type="curve"/>
      <point x="405" y="340"/>
      <point x="399" y="341"/>
      <point x="365" y="341" type="curve"/>
      <point x="311" y="341"/>
      <point x="168" y="347"/>
      <point x="123" y="337" type="curve"/>
      <point x="74" y="332"/>
      <point x="64" y="327"/>
      <point x="79" y="307" type="curve"/>
      <point x="84" y="298"/>
      <point x="88" y="293"/>
      <point x="108" y="293" type="curve"/>
      <point x="123" y="288"/>
      <point x="135" y="288"/>
      <point x="143" y="288" type="curve"/>
      <point x="181" y="288"/>
      <point x="326" y="282"/>
    </contour>
  </outline>
</glyph>
<glyph name="brokenbar" format="2">
  <advance width="330"/>
  <unicode hex="00A6"/>
  <outline>
    <contour>
      <point x="297" y="356" type="curve"/>
      <point x="303" y="370"/>
      <point x="308" y="382"/>
      <point x="312" y="389" type="curve"/>
      <point x="317" y="405"/>
      <point x="323" y="416"/>
      <point x="323" y="421" type="curve"/>
      <point x="323" y="426"/>
      <point x="388" y="573"/>
      <point x="399" y="600" type="curve"/>
      <point x="436" y="679"/>
      <point x="442" y="685"/>
      <point x="442" y="711" type="curve"/>
      <point x="442" y="727"/>
      <point x="442" y="738"/>
      <point x="431" y="748" type="curve"/>
      <point x="420" y="759"/>
      <point x="415" y="764"/>
      <point x="415" y="764" type="curve"/>
      <point x="410" y="764"/>
      <point x="403" y="763"/>
      <point x="399" y="759" type="curve"/>
      <point x="388" y="759"/>
      <point x="383" y="754"/>
      <point x="383" y="743" type="curve"/>
      <point x="383" y="729"/>
      <point x="284" y="470"/>
      <point x="247" y="385" type="curve"/>
      <point x="230" y="365"/>
      <point x="290" y="329"/>
    </contour>
    <contour>
      <point x="150" y="-140" type="curve"/>
      <point x="160" y="-135"/>
      <point x="160" y="-129"/>
      <point x="160" y="-97" type="curve"/>
      <point x="160" y="-60"/>
      <point x="221" y="134"/>
      <point x="243" y="208" type="curve"/>
      <point x="245" y="213" type="line"/>
      <point x="256" y="230"/>
      <point x="197" y="263"/>
      <point x="195" y="242" type="curve"/>
      <point x="173" y="180"/>
      <point x="127" y="36"/>
      <point x="123" y="14" type="curve"/>
      <point x="123" y="4"/>
      <point x="118" y="-12"/>
      <point x="112" y="-28" type="curve"/>
      <point x="96" y="-103"/>
      <point x="112" y="-150"/>
    </contour>
  </outline>
</glyph>
<glyph name="section" format="2">
  <advance width="385"/>
  <unicode hex="00A7"/>
  <outline>
    <contour>
      <point x="331" y="189" type="curve"/>
      <point x="410" y="208"/>
      <point x="420" y="244"/>
      <point x="373" y="321" type="curve"/>
      <point x="351" y="341"/>
      <point x="341" y="363"/>
      <point x="341" y="363" type="curve"/>
      <point x="331" y="364"/>
      <point x="313" y="399"/>
      <point x="313" y="418" type="curve"/>
      <point x="313" y="440"/>
      <point x="307" y="445"/>
      <point x="331" y="474" type="curve"/>
      <point x="354" y="507"/>
      <point x="408" y="544"/>
      <point x="423" y="544" type="curve"/>
      <point x="437" y="547"/>
      <point x="437" y="542"/>
      <point x="423" y="525" type="curve"/>
      <point x="417" y="510"/>
      <point x="421" y="500"/>
      <point x="426" y="480" type="curve"/>
      <point x="436" y="458"/>
      <point x="467" y="447"/>
      <point x="470" y="469" type="curve"/>
      <point x="470" y="474"/>
      <point x="479" y="488"/>
      <point x="484" y="503" type="curve"/>
      <point x="489" y="525"/>
      <point x="493" y="540"/>
      <point x="493" y="550" type="curve"/>
      <point x="489" y="572"/>
      <point x="468" y="598"/>
      <point x="454" y="603" type="curve"/>
      <point x="444" y="606"/>
      <point x="415" y="605"/>
      <point x="400" y="605" type="curve"/>
      <point x="364" y="588"/>
      <point x="318" y="552"/>
      <point x="283" y="513" type="curve"/>
      <point x="265" y="488"/>
      <point x="250" y="456"/>
      <point x="258" y="432" type="curve"/>
      <point x="258" y="400"/>
      <point x="282" y="353"/>
      <point x="326" y="303" type="curve"/>
      <point x="331" y="288"/>
      <point x="336" y="273"/>
      <point x="344" y="271" type="curve"/>
      <point x="339" y="244"/>
      <point x="277" y="220"/>
      <point x="248" y="247" type="curve"/>
      <point x="233" y="252"/>
      <point x="227" y="254"/>
      <point x="216" y="253" type="curve"/>
      <point x="207" y="248"/>
      <point x="207" y="243"/>
      <point x="216" y="224" type="curve"/>
      <point x="236" y="193"/>
      <point x="280" y="176"/>
    </contour>
    <contour>
      <point x="255" y="9" type="curve"/>
      <point x="334" y="24"/>
      <point x="344" y="59"/>
      <point x="297" y="140" type="curve"/>
      <point x="278" y="155"/>
      <point x="265" y="177"/>
      <point x="265" y="177" type="curve"/>
      <point x="255" y="186"/>
      <point x="237" y="221"/>
      <point x="237" y="240" type="curve"/>
      <point x="237" y="262"/>
      <point x="236" y="267"/>
      <point x="255" y="291" type="curve"/>
      <point x="274" y="311"/>
      <point x="297" y="338"/>
      <point x="320" y="349" type="curve"/>
      <point x="288" y="405" type="line"/>
      <point x="262" y="383"/>
      <point x="232" y="361"/>
      <point x="209" y="327" type="curve"/>
      <point x="189" y="308"/>
      <point x="174" y="278"/>
      <point x="182" y="254" type="curve"/>
      <point x="182" y="222"/>
      <point x="206" y="168"/>
      <point x="250" y="125" type="curve"/>
      <point x="255" y="110"/>
      <point x="266" y="95"/>
      <point x="268" y="90" type="curve"/>
      <point x="263" y="66"/>
      <point x="202" y="42"/>
      <point x="172" y="62" type="curve"/>
      <point x="157" y="67"/>
      <point x="151" y="75"/>
      <point x="140" y="74" type="curve"/>
      <point x="131" y="67"/>
      <point x="131" y="62"/>
      <point x="140" y="45" type="curve"/>
      <point x="160" y="10"/>
      <point x="204" y="-3"/>
    </contour>
  </outline>
</glyph>
<glyph name="dieresis" format="1">
  <advance width="353"/>
  <unicode hex="00A8"/>
  <outline>
    <contour>
      <point x="262" y="450" type="curve"/>
      <point x="273" y="435"/>
      <point x="289" y="436"/>
      <point x="309" y="463" type="curve"/>
      <point x="326" y="485"/>
      <point x="331" y="496"/>
      <point x="319" y="515" type="curve"/>
      <point x="312" y="536"/>
      <point x="297" y="545"/>
      <point x="281" y="534" type="curve"/>
      <point x="276" y="533"/>
      <point x="271" y="525"/>
      <point x="267" y="522" type="curve"/>
      <point x="257" y="514"/>
      <point x="249" y="489"/>
      <point x="247" y="482" type="curve"/>
      <point x="245" y="476"/>
      <point x="252" y="459"/>
    </contour>
    <contour>
      <point x="390" y="450" type="curve"/>
      <point x="401" y="435"/>
      <point x="417" y="436"/>
      <point x="437" y="463" type="curve"/>
      <point x="454" y="485"/>
      <point x="459" y="496"/>
      <point x="447" y="515" type="curve"/>
      <point x="440" y="536"/>
      <point x="425" y="545"/>
      <point x="409" y="534" type="curve"/>
      <point x="404" y="533"/>
      <point x="399" y="525"/>
      <point x="395" y="522" type="curve"/>
      <point x="385" y="514"/>
      <point x="377" y="489"/>
      <point x="375" y="482" type="curve"/>
      <point x="373" y="476"/>
      <point x="380" y="459"/>
    </contour>
    <contour>
      <point x="379" y="560" type="move" name="_top"/>
    </contour>
  </outline>
</glyph>
<glyph name="copyright" format="1">
  <advance width="496"/>
  <unicode hex="00A9"/>
  <outline>
    <contour>
      <point x="354" y="92" type="curve"/>
      <point x="379" y="90"/>
      <point x="420" y="102"/>
      <point x="429" y="115" type="curve"/>
      <point x="431" y="117"/>
      <point x="433" y="119"/>
      <point x="437" y="123" type="curve"/>
      <point x="481" y="138"/>
      <point x="548" y="210"/>
      <point x="542" y="213" type="curve"/>
      <point x="537" y="214"/>
      <point x="539" y="216"/>
      <point x="539" y="216" type="curve"/>
      <point x="550" y="218"/>
      <point x="572" y="242"/>
      <point x="569" y="245" type="curve"/>
      <point x="565" y="247"/>
      <point x="571" y="249"/>
      <point x="571" y="249" type="curve"/>
      <point x="576" y="250"/>
      <point x="586" y="329"/>
      <point x="579" y="339" type="curve"/>
      <point x="578" y="341"/>
      <point x="580" y="348"/>
      <point x="578" y="352" type="curve"/>
      <point x="583" y="357"/>
      <point x="574" y="404"/>
      <point x="556" y="432" type="curve"/>
      <point x="556" y="440"/>
      <point x="539" y="458"/>
      <point x="534" y="477" type="curve"/>
      <point x="475" y="561"/>
      <point x="403" y="590"/>
      <point x="318" y="548" type="curve"/>
      <point x="287" y="532"/>
      <point x="228" y="497"/>
      <point x="221" y="487" type="curve"/>
      <point x="218" y="486"/>
      <point x="221" y="480"/>
      <point x="218" y="480" type="curve"/>
      <point x="207" y="474"/>
      <point x="151" y="355"/>
      <point x="163" y="329" type="curve"/>
      <point x="163" y="329"/>
      <point x="166" y="323"/>
      <point x="161" y="319" type="curve"/>
      <point x="160" y="315"/>
      <point x="158" y="277"/>
      <point x="160" y="270" type="curve"/>
      <point x="162" y="269"/>
      <point x="161" y="262"/>
      <point x="163" y="260" type="curve"/>
      <point x="169" y="239"/>
      <point x="168" y="219"/>
      <point x="183" y="193" type="curve"/>
      <point x="207" y="124"/>
      <point x="267" y="90"/>
    </contour>
    <contour>
      <point x="288" y="153" type="curve"/>
      <point x="263" y="159"/>
      <point x="227" y="211"/>
      <point x="225" y="221" type="curve"/>
      <point x="227" y="225"/>
      <point x="217" y="245"/>
      <point x="219" y="262" type="curve"/>
      <point x="201" y="290"/>
      <point x="204" y="302"/>
      <point x="222" y="360" type="curve"/>
      <point x="233" y="405"/>
      <point x="258" y="472"/>
      <point x="346" y="498" type="curve"/>
      <point x="358" y="503"/>
      <point x="408" y="522"/>
      <point x="472" y="473" type="curve"/>
      <point x="509" y="421"/>
      <point x="510" y="418"/>
      <point x="510" y="409" type="curve"/>
      <point x="509" y="403"/>
      <point x="518" y="391"/>
      <point x="519" y="389" type="curve"/>
      <point x="533" y="362"/>
      <point x="524" y="286"/>
      <point x="506" y="270" type="curve"/>
      <point x="501" y="268"/>
      <point x="498" y="258"/>
      <point x="500" y="252" type="curve"/>
      <point x="501" y="233"/>
      <point x="444" y="188"/>
      <point x="413" y="174" type="curve"/>
      <point x="358" y="143"/>
      <point x="309" y="135"/>
    </contour>
    <contour>
      <point x="354" y="218" type="curve"/>
      <point x="364" y="222"/>
      <point x="394" y="229"/>
      <point x="399" y="229" type="curve"/>
      <point x="403" y="229"/>
      <point x="410" y="232"/>
      <point x="415" y="232" type="curve"/>
      <point x="432" y="239"/>
      <point x="451" y="258"/>
      <point x="453" y="282" type="curve"/>
      <point x="443" y="284"/>
      <point x="447" y="307"/>
      <point x="432" y="295" type="curve"/>
      <point x="381" y="256"/>
      <point x="353" y="253"/>
      <point x="329" y="261" type="curve"/>
      <point x="325" y="263"/>
      <point x="322" y="281"/>
      <point x="325" y="295" type="curve"/>
      <point x="328" y="307"/>
      <point x="332" y="349"/>
      <point x="349" y="369" type="curve"/>
      <point x="356" y="392"/>
      <point x="388" y="432"/>
      <point x="416" y="392" type="curve"/>
      <point x="417" y="375"/>
      <point x="434" y="366"/>
      <point x="440" y="378" type="curve"/>
      <point x="444" y="386"/>
      <point x="454" y="395"/>
      <point x="455" y="398" type="curve"/>
      <point x="461" y="416"/>
      <point x="426" y="448"/>
      <point x="392" y="450" type="curve"/>
      <point x="392" y="450"/>
      <point x="380" y="448"/>
      <point x="371" y="445" type="curve"/>
      <point x="348" y="437"/>
      <point x="343" y="434"/>
      <point x="343" y="434" type="curve"/>
      <point x="339" y="429"/>
      <point x="303" y="387"/>
      <point x="296" y="358" type="curve"/>
      <point x="271" y="307"/>
      <point x="269" y="264"/>
      <point x="284" y="241" type="curve"/>
      <point x="292" y="231"/>
      <point x="302" y="222"/>
      <point x="305" y="222" type="curve"/>
      <point x="336" y="213"/>
      <point x="343" y="213"/>
    </contour>
  </outline>
</glyph>
<glyph name="ordfeminine" format="2">
  <advance width="350"/>
  <unicode hex="00AA"/>
  <outline>
    <contour>
      <point x="229" y="324" type="curve"/>
      <point x="266" y="324"/>
      <point x="312" y="356"/>
      <point x="371" y="422" type="curve"/>
      <point x="375" y="427"/>
      <point x="383" y="435"/>
      <point x="389" y="444" type="curve"/>
      <point x="392" y="434"/>
      <point x="398" y="422"/>
      <point x="401" y="417" type="curve"/>
      <point x="425" y="369"/>
      <point x="461" y="338"/>
      <point x="497" y="343" type="curve"/>
      <point x="510" y="346"/>
      <point x="517" y="355"/>
      <point x="517" y="366" type="curve"/>
      <point x="517" y="379"/>
      <point x="505" y="384"/>
      <point x="494" y="387" type="curve"/>
      <point x="481" y="389"/>
      <point x="467" y="398"/>
      <point x="463" y="406" type="curve"/>
      <point x="453" y="427"/>
      <point x="443" y="453"/>
      <point x="443" y="480" type="curve"/>
      <point x="443" y="493"/>
      <point x="445" y="508"/>
      <point x="450" y="524" type="curve"/>
      <point x="463" y="568" type="line"/>
      <point x="432" y="599" type="line"/>
      <point x="396" y="638" type="line"/>
      <point x="377" y="656"/>
      <point x="346" y="651"/>
      <point x="322" y="633" type="curve"/>
      <point x="300" y="616"/>
      <point x="251" y="560"/>
      <point x="251" y="549" type="curve"/>
      <point x="251" y="543" type="line"/>
      <point x="247" y="541"/>
      <point x="243" y="537"/>
      <point x="243" y="534" type="curve"/>
      <point x="244" y="535" type="line"/>
      <point x="238" y="525" type="line"/>
      <point x="233" y="516"/>
      <point x="227" y="505"/>
      <point x="221" y="499" type="curve"/>
      <point x="192" y="437"/>
      <point x="170" y="378"/>
      <point x="180" y="368" type="curve"/>
      <point x="179" y="368" type="line"/>
      <point x="182" y="364"/>
      <point x="182" y="358"/>
      <point x="182" y="354" type="curve"/>
      <point x="182" y="353"/>
      <point x="185" y="350"/>
      <point x="189" y="346" type="curve"/>
      <point x="195" y="334" type="line"/>
      <point x="197" y="333" type="line"/>
      <point x="205" y="327"/>
      <point x="215" y="324"/>
    </contour>
    <contour>
      <point x="235" y="383" type="curve"/>
      <point x="236" y="387"/>
      <point x="247" y="420"/>
      <point x="254" y="435" type="curve"/>
      <point x="295" y="518"/>
      <point x="347" y="591"/>
      <point x="367" y="591" type="curve"/>
      <point x="372" y="591"/>
      <point x="382" y="582"/>
      <point x="394" y="556" type="curve"/>
      <point x="377" y="527" type="line"/>
      <point x="353" y="492"/>
      <point x="309" y="440"/>
      <point x="280" y="410" type="curve"/>
      <point x="259" y="391"/>
      <point x="237" y="380"/>
    </contour>
  </outline>
</glyph>
<glyph name="logicalnot" format="1">
  <advance width="465"/>
  <unicode hex="00AC"/>
  <outline>
    <contour>
      <point x="478" y="137" type="curve"/>
      <point x="492" y="152"/>
      <point x="493" y="158"/>
      <point x="493" y="192" type="curve"/>
      <point x="493" y="220"/>
      <point x="492" y="241"/>
      <point x="490" y="263" type="curve"/>
      <point x="497" y="270"/>
      <point x="494" y="283"/>
      <point x="482" y="296" type="curve"/>
      <point x="467" y="310"/>
      <point x="461" y="311"/>
      <point x="427" y="311" type="curve"/>
      <point x="373" y="311"/>
      <point x="220" y="307"/>
      <point x="175" y="297" type="curve"/>
      <point x="126" y="292"/>
      <point x="116" y="287"/>
      <point x="131" y="267" type="curve"/>
      <point x="136" y="258"/>
      <point x="140" y="253"/>
      <point x="160" y="253" type="curve"/>
      <point x="175" y="248"/>
      <point x="187" y="248"/>
      <point x="195" y="248" type="curve"/>
      <point x="233" y="248"/>
      <point x="388" y="252"/>
      <point x="403" y="253" type="curve"/>
      <point x="432" y="255" type="line"/>
      <point x="435" y="216" type="line"/>
      <point x="440" y="153" type="line"/>
      <point x="435" y="123"/>
      <point x="458" y="117"/>
    </contour>
  </outline>
</glyph>
<glyph name="registered" format="2">
  <advance width="496"/>
  <unicode hex="00AE"/>
  <outline>
    <contour>
      <point x="354" y="92" type="curve"/>
      <point x="379" y="90"/>
      <point x="420" y="102"/>
      <point x="429" y="115" type="curve"/>
      <point x="431" y="117"/>
      <point x="433" y="119"/>
      <point x="437" y="123" type="curve"/>
      <point x="481" y="138"/>
      <point x="548" y="210"/>
      <point x="542" y="213" type="curve"/>
      <point x="537" y="214"/>
      <point x="539" y="216"/>
      <point x="539" y="216" type="curve"/>
      <point x="550" y="218"/>
      <point x="572" y="242"/>
      <point x="569" y="245" type="curve"/>
      <point x="565" y="247"/>
      <point x="571" y="249"/>
      <point x="571" y="249" type="curve"/>
      <point x="576" y="250"/>
      <point x="586" y="329"/>
      <point x="579" y="339" type="curve"/>
      <point x="578" y="341"/>
      <point x="580" y="348"/>
      <point x="578" y="352" type="curve"/>
      <point x="583" y="357"/>
      <point x="574" y="404"/>
      <point x="556" y="432" type="curve"/>
      <point x="556" y="440"/>
      <point x="539" y="458"/>
      <point x="534" y="477" type="curve"/>
      <point x="475" y="561"/>
      <point x="403" y="590"/>
      <point x="318" y="548" type="curve"/>
      <point x="287" y="532"/>
      <point x="228" y="497"/>
      <point x="221" y="487" type="curve"/>
      <point x="218" y="486"/>
      <point x="221" y="480"/>
      <point x="218" y="480" type="curve"/>
      <point x="207" y="474"/>
      <point x="151" y="355"/>
      <point x="163" y="329" type="curve"/>
      <point x="163" y="329"/>
      <point x="166" y="323"/>
      <point x="161" y="319" type="curve"/>
      <point x="160" y="315"/>
      <point x="158" y="277"/>
      <point x="160" y="270" type="curve"/>
      <point x="162" y="269"/>
      <point x="161" y="262"/>
      <point x="163" y="260" type="curve"/>
      <point x="169" y="239"/>
      <point x="168" y="219"/>
      <point x="183" y="193" type="curve"/>
      <point x="207" y="124"/>
      <point x="267" y="90"/>
    </contour>
    <contour>
      <point x="307" y="221" type="curve"/>
      <point x="311" y="235"/>
      <point x="313" y="249"/>
      <point x="313" y="254" type="curve"/>
      <point x="321" y="275" type="line"/>
      <point x="335" y="274"/>
      <point x="335" y="273"/>
      <point x="335" y="273" type="curve"/>
      <point x="355" y="256"/>
      <point x="366" y="249"/>
      <point x="375" y="241" type="curve"/>
      <point x="384" y="232"/>
      <point x="388" y="227"/>
      <point x="404" y="224" type="curve"/>
      <point x="422" y="211"/>
      <point x="422" y="211"/>
      <point x="431" y="230" type="curve"/>
      <point x="435" y="254"/>
      <point x="428" y="253"/>
      <point x="417" y="250" type="curve"/>
      <point x="407" y="254"/>
      <point x="383" y="281"/>
      <point x="381" y="289" type="curve"/>
      <point x="393" y="302" type="line"/>
      <point x="416" y="318"/>
      <point x="434" y="339"/>
      <point x="443" y="356" type="curve"/>
      <point x="457" y="375"/>
      <point x="457" y="380"/>
      <point x="457" y="396" type="curve"/>
      <point x="456" y="406"/>
      <point x="449" y="422"/>
      <point x="438" y="432" type="curve"/>
      <point x="438" y="436"/>
      <point x="418" y="446"/>
      <point x="400" y="448" type="curve"/>
      <point x="394" y="453"/>
      <point x="388" y="453"/>
      <point x="372" y="455" type="curve"/>
      <point x="343" y="457"/>
      <point x="331" y="455"/>
      <point x="331" y="447" type="curve"/>
      <point x="317" y="437"/>
      <point x="319" y="432"/>
      <point x="323" y="426" type="curve"/>
      <point x="331" y="418"/>
      <point x="326" y="414"/>
      <point x="326" y="398" type="curve"/>
      <point x="296" y="358"/>
      <point x="293" y="329"/>
      <point x="291" y="317" type="curve"/>
      <point x="288" y="317"/>
      <point x="287" y="306"/>
      <point x="287" y="295" type="curve"/>
      <point x="279" y="274"/>
      <point x="272" y="253"/>
      <point x="269" y="239" type="curve"/>
      <point x="263" y="214"/>
      <point x="298" y="197"/>
    </contour>
    <contour>
      <point x="288" y="153" type="curve"/>
      <point x="263" y="159"/>
      <point x="227" y="211"/>
      <point x="225" y="221" type="curve"/>
      <point x="227" y="225"/>
      <point x="217" y="245"/>
      <point x="219" y="262" type="curve"/>
      <point x="201" y="290"/>
      <point x="204" y="302"/>
      <point x="222" y="360" type="curve"/>
      <point x="233" y="405"/>
      <point x="258" y="472"/>
      <point x="346" y="498" type="curve"/>
      <point x="358" y="503"/>
      <point x="408" y="522"/>
      <point x="472" y="473" type="curve"/>
      <point x="509" y="421"/>
      <point x="510" y="418"/>
      <point x="510" y="409" type="curve"/>
      <point x="509" y="403"/>
      <point x="518" y="391"/>
      <point x="519" y="389" type="curve"/>
      <point x="533" y="362"/>
      <point x="524" y="286"/>
      <point x="506" y="270" type="curve"/>
      <point x="501" y="268"/>
      <point x="498" y="258"/>
      <point x="500" y="252" type="curve"/>
      <point x="501" y="233"/>
      <point x="444" y="188"/>
      <point x="413" y="174" type="curve"/>
      <point x="358" y="143"/>
      <point x="309" y="135"/>
    </contour>
    <contour>
      <point x="343" y="315" type="curve"/>
      <point x="335" y="317"/>
      <point x="352" y="371"/>
      <point x="356" y="384" type="curve"/>
      <point x="365" y="388"/>
      <point x="367" y="405"/>
      <point x="369" y="410" type="curve"/>
      <point x="378" y="419"/>
      <point x="381" y="421"/>
      <point x="382" y="422" type="curve"/>
      <point x="397" y="417"/>
      <point x="406" y="415"/>
      <point x="411" y="410" type="curve"/>
      <point x="416" y="406"/>
      <point x="417" y="403"/>
      <point x="414" y="397" type="curve"/>
      <point x="414" y="380"/>
      <point x="413" y="378"/>
      <point x="410" y="373" type="curve"/>
      <point x="398" y="357"/>
      <point x="394" y="353"/>
      <point x="390" y="351" type="curve"/>
      <point x="384" y="339"/>
      <point x="365" y="321"/>
    </contour>
  </outline>
</glyph>
<glyph name="macron" format="2">
  <advance width="353"/>
  <unicode hex="00AF"/>
  <anchor x="379" y="560" name="_top"/>
  <outline>
    <contour>
      <point x="301" y="461" type="curve"/>
      <point x="336" y="461"/>
      <point x="371" y="465"/>
      <point x="383" y="465" type="curve"/>
      <point x="407" y="465"/>
      <point x="433" y="467"/>
      <point x="443" y="468" type="curve"/>
      <point x="472" y="465"/>
      <point x="476" y="486"/>
      <point x="459" y="506" type="curve"/>
      <point x="444" y="517"/>
      <point x="438" y="518"/>
      <point x="407" y="518" type="curve"/>
      <point x="356" y="518"/>
      <point x="326" y="514"/>
      <point x="281" y="507" type="curve"/>
      <point x="235" y="502"/>
      <point x="228" y="497"/>
      <point x="240" y="477" type="curve"/>
      <point x="245" y="468"/>
      <point x="249" y="465"/>
      <point x="269" y="465" type="curve"/>
      <point x="281" y="461"/>
      <point x="293" y="461"/>
    </contour>
  </outline>
</glyph>
<glyph name="degree" format="2">
  <advance width="283"/>
  <unicode hex="00B0"/>
  <outline>
    <contour>
      <point x="333" y="426" type="curve"/>
      <point x="372" y="426"/>
      <point x="400" y="457"/>
      <point x="411" y="470" type="curve"/>
      <point x="446" y="510"/>
      <point x="470" y="533"/>
      <point x="470" y="602" type="curve"/>
      <point x="470" y="685"/>
      <point x="407" y="724"/>
      <point x="335" y="724" type="curve"/>
      <point x="323" y="724"/>
      <point x="312" y="719"/>
      <point x="292" y="710" type="curve"/>
      <point x="273" y="694"/>
      <point x="253" y="683"/>
      <point x="236" y="651" type="curve"/>
      <point x="219" y="627"/>
      <point x="207" y="582"/>
      <point x="207" y="562" type="curve"/>
      <point x="210" y="549"/>
      <point x="214" y="511"/>
      <point x="225" y="491" type="curve"/>
      <point x="237" y="469"/>
      <point x="257" y="426"/>
    </contour>
    <contour>
      <point x="322" y="478" type="curve"/>
      <point x="283" y="478"/>
      <point x="275" y="527"/>
      <point x="275" y="554" type="curve"/>
      <point x="275" y="620"/>
      <point x="292" y="671"/>
      <point x="362" y="671" type="curve"/>
      <point x="393" y="671"/>
      <point x="404" y="644"/>
      <point x="405" y="591" type="curve"/>
      <point x="406" y="526"/>
      <point x="346" y="478"/>
    </contour>
  </outline>
</glyph>
<glyph name="twosuperior" format="1">
  <advance width="320"/>
  <unicode hex="00B2"/>
  <outline>
    <contour>
      <point x="211" y="345" type="curve"/>
      <point x="223" y="341"/>
      <point x="299" y="361"/>
      <point x="317" y="368" type="curve"/>
      <point x="338" y="375"/>
      <point x="357" y="379"/>
      <point x="373" y="377" type="curve"/>
      <point x="379" y="377" type="line"/>
      <point x="381" y="377"/>
      <point x="384" y="378"/>
      <point x="386" y="378" type="curve"/>
      <point x="396" y="378"/>
      <point x="404" y="378"/>
      <point x="408" y="380" type="curve"/>
      <point x="414" y="382"/>
      <point x="429" y="383"/>
      <point x="437" y="383" type="curve"/>
      <point x="484" y="374"/>
      <point x="499" y="379"/>
      <point x="477" y="399" type="curve"/>
      <point x="475" y="401"/>
      <point x="472" y="406"/>
      <point x="471" y="408" type="curve"/>
      <point x="469" y="412"/>
      <point x="466" y="414"/>
      <point x="460" y="416" type="curve"/>
      <point x="459" y="416"/>
      <point x="457" y="416"/>
      <point x="456" y="417" type="curve"/>
      <point x="455" y="417"/>
      <point x="452" y="419"/>
      <point x="451" y="419" type="curve"/>
      <point x="433" y="425"/>
      <point x="405" y="428"/>
      <point x="394" y="425" type="curve"/>
      <point x="381" y="429"/>
      <point x="301" y="419"/>
      <point x="272" y="408" type="curve"/>
      <point x="269" y="407"/>
      <point x="267" y="407"/>
      <point x="266" y="406" type="curve"/>
      <point x="263" y="408" type="line"/>
      <point x="259" y="408"/>
      <point x="327" y="479"/>
      <point x="340" y="487" type="curve"/>
      <point x="352" y="498"/>
      <point x="425" y="578"/>
      <point x="434" y="591" type="curve"/>
      <point x="451" y="615"/>
      <point x="458" y="635"/>
      <point x="458" y="652" type="curve"/>
      <point x="458" y="662"/>
      <point x="455" y="672"/>
      <point x="449" y="682" type="curve"/>
      <point x="449" y="681" type="line"/>
      <point x="440" y="701"/>
      <point x="415" y="726"/>
      <point x="399" y="728" type="curve"/>
      <point x="399" y="728"/>
      <point x="387" y="731"/>
      <point x="377" y="732" type="curve"/>
      <point x="351" y="743"/>
      <point x="308" y="727"/>
      <point x="271" y="704" type="curve"/>
      <point x="244" y="688" type="line"/>
      <point x="253" y="671" type="line"/>
      <point x="262" y="660" type="line"/>
      <point x="270" y="650"/>
      <point x="268" y="653"/>
      <point x="268" y="653" type="curve"/>
      <point x="280" y="650"/>
      <point x="285" y="652"/>
      <point x="293" y="656" type="curve"/>
      <point x="299" y="660"/>
      <point x="304" y="661"/>
      <point x="310" y="662" type="curve"/>
      <point x="332" y="677"/>
      <point x="350" y="681"/>
      <point x="366" y="681" type="curve"/>
      <point x="375" y="681"/>
      <point x="384" y="680"/>
      <point x="393" y="678" type="curve"/>
      <point x="392" y="678" type="line"/>
      <point x="409" y="672"/>
      <point x="410" y="671"/>
      <point x="407" y="662" type="curve"/>
      <point x="389" y="626" type="line"/>
      <point x="381" y="616"/>
      <point x="370" y="599"/>
      <point x="366" y="590" type="curve"/>
      <point x="347" y="573" type="line"/>
      <point x="341" y="570"/>
      <point x="335" y="562"/>
      <point x="335" y="562" type="curve"/>
      <point x="334" y="557"/>
      <point x="314" y="534"/>
      <point x="291" y="511" type="curve"/>
      <point x="280" y="498"/>
      <point x="271" y="489"/>
      <point x="264" y="482" type="curve"/>
      <point x="243" y="460" type="line"/>
      <point x="244" y="460" type="line"/>
      <point x="234" y="450" type="line"/>
      <point x="223" y="439" type="line"/>
      <point x="225" y="439" type="line"/>
      <point x="221" y="437" type="line"/>
      <point x="211" y="429" type="line"/>
      <point x="210" y="424"/>
      <point x="198" y="398"/>
      <point x="197" y="399" type="curve"/>
      <point x="192" y="399"/>
      <point x="182" y="379"/>
      <point x="182" y="371" type="curve"/>
      <point x="187" y="361"/>
      <point x="204" y="348"/>
    </contour>
  </outline>
</glyph>
<glyph name="acute" format="1">
  <advance width="353"/>
  <unicode hex="00B4"/>
  <outline>
    <contour>
      <point x="347" y="444" type="curve"/>
      <point x="363" y="432"/>
      <point x="367" y="436"/>
      <point x="380" y="457" type="curve"/>
      <point x="401" y="486"/>
      <point x="482" y="534"/>
      <point x="473" y="557" type="curve"/>
      <point x="460" y="578"/>
      <point x="447" y="594"/>
      <point x="432" y="585" type="curve"/>
      <point x="413" y="578"/>
      <point x="336" y="495"/>
      <point x="334" y="483" type="curve"/>
      <point x="333" y="477"/>
      <point x="337" y="453"/>
    </contour>
    <contour>
      <point x="381" y="560" type="move" name="_top"/>
    </contour>
  </outline>
</glyph>
<glyph name="mu" format="2">
  <advance width="370"/>
  <unicode hex="00B5"/>
  <outline>
    <contour>
      <point x="69" y="-173" type="curve"/>
      <point x="74" y="-167"/>
      <point x="81" y="-153"/>
      <point x="133" y="3" type="curve"/>
      <point x="144" y="43" type="line"/>
      <point x="167" y="19"/>
      <point x="192" y="25"/>
      <point x="233" y="51" type="curve"/>
      <point x="252" y="60"/>
      <point x="273" y="79"/>
      <point x="279" y="85" type="curve"/>
      <point x="287" y="91"/>
      <point x="297" y="102"/>
      <point x="301" y="112" type="curve"/>
      <point x="302" y="104"/>
      <point x="300" y="80"/>
      <point x="303" y="70" type="curve"/>
      <point x="311" y="39"/>
      <point x="325" y="15"/>
      <point x="339" y="2" type="curve"/>
      <point x="359" y="-12"/>
      <point x="389" y="-4"/>
      <point x="394" y="15" type="curve"/>
      <point x="395" y="31"/>
      <point x="395" y="42"/>
      <point x="381" y="52" type="curve"/>
      <point x="361" y="69"/>
      <point x="352" y="91"/>
      <point x="352" y="115" type="curve"/>
      <point x="353" y="141"/>
      <point x="359" y="163"/>
      <point x="385" y="218" type="curve"/>
      <point x="416" y="290"/>
      <point x="421" y="329"/>
      <point x="407" y="341" type="curve"/>
      <point x="400" y="346"/>
      <point x="400" y="356"/>
      <point x="395" y="355" type="curve"/>
      <point x="379" y="354" type="line"/>
      <point x="376" y="360"/>
      <point x="364" y="352"/>
      <point x="359" y="345" type="curve"/>
      <point x="343" y="335"/>
      <point x="339" y="323"/>
      <point x="342" y="307" type="curve"/>
      <point x="340" y="281"/>
      <point x="336" y="263"/>
      <point x="325" y="237" type="curve"/>
      <point x="270" y="106"/>
      <point x="205" y="86"/>
      <point x="187" y="97" type="curve"/>
      <point x="158" y="107"/>
      <point x="186" y="183"/>
      <point x="214" y="252" type="curve"/>
      <point x="238" y="298"/>
      <point x="249" y="332"/>
      <point x="241" y="345" type="curve"/>
      <point x="238" y="363"/>
      <point x="224" y="372"/>
      <point x="204" y="365" type="curve"/>
      <point x="200" y="359"/>
      <point x="186" y="336"/>
      <point x="158" y="281" type="curve"/>
      <point x="134" y="228"/>
      <point x="124" y="193"/>
      <point x="118" y="162" type="curve"/>
      <point x="97" y="51"/>
      <point x="37" y="-102"/>
      <point x="36" y="-133" type="curve"/>
      <point x="36" y="-145"/>
      <point x="54" y="-168"/>
    </contour>
  </outline>
</glyph>
<glyph name="paragraph" format="2">
  <advance width="424"/>
  <unicode hex="00B6"/>
  <outline>
    <contour>
      <point x="181" y="-47" type="curve"/>
      <point x="204" y="-54"/>
      <point x="206" y="-54"/>
      <point x="215" y="-40" type="curve"/>
      <point x="234" y="12"/>
      <point x="266" y="92"/>
      <point x="266" y="102" type="curve"/>
      <point x="269" y="109"/>
      <point x="271" y="124"/>
      <point x="275" y="138" type="curve"/>
      <point x="298" y="175"/>
      <point x="331" y="268"/>
      <point x="343" y="292" type="curve"/>
      <point x="349" y="315"/>
      <point x="361" y="339"/>
      <point x="366" y="349" type="curve"/>
      <point x="374" y="370"/>
      <point x="384" y="392"/>
      <point x="394" y="412" type="curve"/>
      <point x="399" y="430"/>
      <point x="419" y="468"/>
      <point x="430" y="497" type="curve"/>
      <point x="447" y="526"/>
      <point x="459" y="548"/>
      <point x="461" y="553" type="curve"/>
      <point x="468" y="575"/>
      <point x="509" y="561"/>
      <point x="513" y="562" type="curve"/>
      <point x="513" y="558"/>
      <point x="508" y="537"/>
      <point x="501" y="515" type="curve"/>
      <point x="487" y="492"/>
      <point x="472" y="458"/>
      <point x="463" y="439" type="curve"/>
      <point x="458" y="422"/>
      <point x="450" y="392"/>
      <point x="445" y="385" type="curve"/>
      <point x="434" y="363"/>
      <point x="427" y="346"/>
      <point x="431" y="346" type="curve"/>
      <point x="431" y="346"/>
      <point x="427" y="339"/>
      <point x="420" y="330" type="curve"/>
      <point x="416" y="321"/>
      <point x="410" y="303"/>
      <point x="403" y="291" type="curve"/>
      <point x="401" y="280"/>
      <point x="398" y="268"/>
      <point x="398" y="264" type="curve"/>
      <point x="392" y="264"/>
      <point x="388" y="245"/>
      <point x="384" y="234" type="curve"/>
      <point x="380" y="218"/>
      <point x="371" y="200"/>
      <point x="366" y="190" type="curve"/>
      <point x="361" y="181"/>
      <point x="357" y="171"/>
      <point x="357" y="168" type="curve"/>
      <point x="357" y="168"/>
      <point x="354" y="158"/>
      <point x="349" y="142" type="curve"/>
      <point x="345" y="136"/>
      <point x="334" y="120"/>
      <point x="334" y="109" type="curve"/>
      <point x="333" y="106"/>
      <point x="332" y="92"/>
      <point x="326" y="88" type="curve"/>
      <point x="321" y="82"/>
      <point x="315" y="68"/>
      <point x="308" y="55" type="curve"/>
      <point x="303" y="27"/>
      <point x="303" y="27"/>
      <point x="306" y="16" type="curve"/>
      <point x="313" y="6"/>
      <point x="323" y="6"/>
      <point x="330" y="2" type="curve"/>
      <point x="349" y="2" type="line"/>
      <point x="361" y="44" type="line"/>
      <point x="375" y="68"/>
      <point x="386" y="102"/>
      <point x="395" y="120" type="curve"/>
      <point x="398" y="138"/>
      <point x="415" y="181"/>
      <point x="429" y="214" type="curve"/>
      <point x="445" y="245"/>
      <point x="458" y="280"/>
      <point x="460" y="292" type="curve"/>
      <point x="466" y="303"/>
      <point x="473" y="315"/>
      <point x="473" y="315" type="curve"/>
      <point x="473" y="315"/>
      <point x="482" y="346"/>
      <point x="500" y="379" type="curve"/>
      <point x="514" y="418"/>
      <point x="530" y="454"/>
      <point x="535" y="464" type="curve"/>
      <point x="549" y="487"/>
      <point x="566" y="526"/>
      <point x="573" y="537" type="curve"/>
      <point x="581" y="548"/>
      <point x="579" y="552"/>
      <point x="581" y="562" type="curve"/>
      <point x="587" y="593"/>
      <point x="543" y="607"/>
      <point x="456" y="614" type="curve"/>
      <point x="421" y="609"/>
      <point x="385" y="607"/>
      <point x="375" y="607" type="curve"/>
      <point x="312" y="582"/>
      <point x="290" y="573"/>
      <point x="230" y="530" type="curve"/>
      <point x="190" y="500"/>
      <point x="179" y="451"/>
      <point x="166" y="409" type="curve"/>
      <point x="157" y="344"/>
      <point x="183" y="309"/>
      <point x="219" y="296" type="curve"/>
      <point x="258" y="289"/>
      <point x="271" y="294"/>
      <point x="286" y="291" type="curve"/>
      <point x="286" y="291"/>
      <point x="276" y="268"/>
      <point x="271" y="243" type="curve"/>
      <point x="264" y="234"/>
      <point x="254" y="214"/>
      <point x="248" y="200" type="curve"/>
      <point x="243" y="190"/>
      <point x="240" y="171"/>
      <point x="235" y="158" type="curve"/>
      <point x="221" y="136"/>
      <point x="196" y="73"/>
      <point x="184" y="30" type="curve"/>
      <point x="179" y="16"/>
      <point x="173" y="2"/>
      <point x="173" y="-2" type="curve"/>
      <point x="161" y="-18"/>
      <point x="165" y="-33"/>
    </contour>
  </outline>
</glyph>
<glyph name="cedilla" format="1">
  <advance width="353"/>
  <unicode hex="00B8"/>
  <outline>
    <contour>
      <point x="160" y="-178" type="curve"/>
      <point x="200" y="-170"/>
      <point x="226" y="-142"/>
      <point x="214" y="-94" type="curve"/>
      <point x="207" y="-68"/>
      <point x="180" y="-44"/>
      <point x="161" y="-17" type="curve"/>
      <point x="161" y="0"/>
      <point x="184" y="14"/>
      <point x="217" y="30" type="curve"/>
      <point x="184" y="53" type="line"/>
      <point x="88" y="5"/>
      <point x="101" y="-14"/>
      <point x="117" y="-37" type="curve"/>
      <point x="132" y="-51"/>
      <point x="145" y="-69"/>
      <point x="155" y="-81" type="curve"/>
      <point x="169" y="-97"/>
      <point x="177" y="-110"/>
      <point x="168" y="-125" type="curve"/>
      <point x="154" y="-153"/>
      <point x="106" y="-132"/>
      <point x="74" y="-122" type="curve"/>
      <point x="46" y="-113"/>
      <point x="30" y="-155"/>
      <point x="61" y="-165" type="curve"/>
      <point x="73" y="-169"/>
      <point x="129" y="-184"/>
    </contour>
    <contour>
      <point x="136" y="-110" type="move" name="_bottom"/>
    </contour>
  </outline>
</glyph>
<glyph name="ordmasculine" format="1">
  <advance width="283"/>
  <unicode hex="00BA"/>
  <outline>
    <contour>
      <point x="250" y="313" type="curve"/>
      <point x="278" y="315"/>
      <point x="294" y="322"/>
      <point x="316" y="339" type="curve"/>
      <point x="315" y="339" type="line"/>
      <point x="346" y="361"/>
      <point x="367" y="376"/>
      <point x="394" y="418" type="curve"/>
      <point x="437" y="489"/>
      <point x="439" y="531"/>
      <point x="436" y="566" type="curve"/>
      <point x="433" y="597"/>
      <point x="419" y="614"/>
      <point x="396" y="627" type="curve"/>
      <point x="379" y="646"/>
      <point x="373" y="644"/>
      <point x="347" y="636" type="curve"/>
      <point x="348" y="636" type="line"/>
      <point x="322" y="629"/>
      <point x="304" y="619"/>
      <point x="278" y="594" type="curve"/>
      <point x="258" y="575"/>
      <point x="231" y="536"/>
      <point x="221" y="518" type="curve"/>
      <point x="206" y="491"/>
      <point x="194" y="452"/>
      <point x="193" y="439" type="curve"/>
      <point x="194" y="436"/>
      <point x="196" y="431"/>
      <point x="196" y="431" type="curve"/>
      <point x="190" y="429" type="line"/>
      <point x="190" y="428"/>
      <point x="188" y="427"/>
      <point x="188" y="426" type="curve"/>
      <point x="190" y="427" type="line"/>
      <point x="187" y="424"/>
      <point x="186" y="423"/>
      <point x="191" y="418" type="curve"/>
      <point x="189" y="419" type="line"/>
      <point x="189" y="419"/>
      <point x="191" y="408"/>
      <point x="189" y="401" type="curve"/>
      <point x="185" y="377"/>
      <point x="191" y="358"/>
      <point x="209" y="337" type="curve"/>
      <point x="225" y="321"/>
      <point x="233" y="313"/>
    </contour>
    <contour>
      <point x="260" y="364" type="curve"/>
      <point x="250" y="364"/>
      <point x="244" y="375"/>
      <point x="244" y="391" type="curve"/>
      <point x="244" y="399"/>
      <point x="248" y="414"/>
      <point x="252" y="427" type="curve"/>
      <point x="275" y="484"/>
      <point x="299" y="534"/>
      <point x="328" y="562" type="curve"/>
      <point x="346" y="580"/>
      <point x="363" y="582"/>
      <point x="374" y="575" type="curve"/>
      <point x="373" y="575" type="line"/>
      <point x="376" y="572"/>
      <point x="377" y="559"/>
      <point x="377" y="545" type="curve"/>
      <point x="377" y="533"/>
      <point x="376" y="520"/>
      <point x="373" y="511" type="curve"/>
      <point x="359" y="466"/>
      <point x="345" y="441"/>
      <point x="321" y="411" type="curve"/>
      <point x="294" y="378"/>
      <point x="273" y="364"/>
    </contour>
  </outline>
</glyph>
<glyph name="onehalf" format="2">
  <advance width="800"/>
  <unicode hex="00BD"/>
  <outline>
    <contour>
      <point x="236" y="-14" type="curve"/>
      <point x="245" y="-13"/>
      <point x="249" y="-8"/>
      <point x="260" y="18" type="curve"/>
      <point x="276" y="50"/>
      <point x="394" y="195"/>
      <point x="439" y="249" type="curve"/>
      <point x="461" y="268"/>
      <point x="473" y="285"/>
      <point x="473" y="290" type="curve"/>
      <point x="473" y="290"/>
      <point x="476" y="296"/>
      <point x="477" y="295" type="curve"/>
      <point x="485" y="298"/>
      <point x="490" y="300"/>
      <point x="493" y="304" type="curve"/>
      <point x="494" y="309"/>
      <point x="549" y="361"/>
      <point x="566" y="378" type="curve"/>
      <point x="573" y="392"/>
      <point x="580" y="397"/>
      <point x="586" y="398" type="curve"/>
      <point x="588" y="403"/>
      <point x="696" y="504"/>
      <point x="715" y="525" type="curve"/>
      <point x="774" y="579"/>
      <point x="781" y="582"/>
      <point x="792" y="605" type="curve"/>
      <point x="800" y="618"/>
      <point x="802" y="627"/>
      <point x="795" y="640" type="curve"/>
      <point x="789" y="653"/>
      <point x="788" y="659"/>
      <point x="788" y="659" type="curve"/>
      <point x="783" y="661"/>
      <point x="776" y="661"/>
      <point x="772" y="659" type="curve"/>
      <point x="764" y="663"/>
      <point x="758" y="662"/>
      <point x="753" y="652" type="curve"/>
      <point x="746" y="638"/>
      <point x="525" y="412"/>
      <point x="490" y="382" type="curve"/>
      <point x="489" y="376"/>
      <point x="482" y="373"/>
      <point x="481" y="368" type="curve"/>
      <point x="479" y="362"/>
      <point x="475" y="359"/>
      <point x="472" y="353" type="curve"/>
      <point x="463" y="351"/>
      <point x="452" y="342"/>
      <point x="448" y="331" type="curve"/>
      <point x="445" y="321"/>
      <point x="437" y="312"/>
      <point x="432" y="314" type="curve"/>
      <point x="427" y="304"/>
      <point x="284" y="149"/>
      <point x="269" y="125" type="curve"/>
      <point x="266" y="116"/>
      <point x="256" y="107"/>
      <point x="244" y="97" type="curve"/>
      <point x="201" y="36"/>
      <point x="200" y="-8"/>
    </contour>
    <component base="one.numerator" xOffset="-10"/>
    <component base="two.denominator" xOffset="420"/>
  </outline>
</glyph>
<glyph name="AE" format="2">
  <advance width="784"/>
  <unicode hex="00C6"/>
  <anchor x="717" y="785" name="topUC"/>
  <outline>
    <contour>
      <point x="551" y="-48" type="curve"/>
      <point x="596" y="-48"/>
      <point x="608" y="-42"/>
      <point x="658" y="-20" type="curve"/>
      <point x="724" y="6"/>
      <point x="752" y="16"/>
      <point x="752" y="30" type="curve"/>
      <point x="753" y="36"/>
      <point x="726" y="66"/>
      <point x="722" y="66" type="curve"/>
      <point x="712" y="66"/>
      <point x="707" y="62"/>
      <point x="702" y="55" type="curve"/>
      <point x="697" y="55"/>
      <point x="678" y="50"/>
      <point x="672" y="50" type="curve"/>
      <point x="663" y="45"/>
      <point x="641" y="36"/>
      <point x="617" y="22" type="curve"/>
      <point x="559" y="7"/>
      <point x="514" y="8"/>
      <point x="487" y="13" type="curve"/>
      <point x="444" y="33"/>
      <point x="445" y="52"/>
      <point x="455" y="88" type="curve"/>
      <point x="466" y="150"/>
      <point x="477" y="187"/>
      <point x="500" y="238" type="curve"/>
      <point x="527" y="297"/>
      <point x="523" y="315"/>
      <point x="531" y="297" type="curve"/>
      <point x="545" y="294"/>
      <point x="745" y="335"/>
      <point x="764" y="355" type="curve"/>
      <point x="777" y="361"/>
      <point x="774" y="376"/>
      <point x="750" y="381" type="curve"/>
      <point x="743" y="385"/>
      <point x="728" y="391"/>
      <point x="706" y="385" type="curve"/>
      <point x="676" y="385"/>
      <point x="597" y="376"/>
      <point x="565" y="371" type="curve"/>
      <point x="553" y="376"/>
      <point x="559" y="391"/>
      <point x="572" y="409" type="curve"/>
      <point x="587" y="430"/>
      <point x="599" y="446"/>
      <point x="599" y="459" type="curve"/>
      <point x="600" y="468"/>
      <point x="660" y="569"/>
      <point x="666" y="569" type="curve"/>
      <point x="666" y="569"/>
      <point x="682" y="569"/>
      <point x="701" y="575" type="curve"/>
      <point x="715" y="575"/>
      <point x="768" y="587"/>
      <point x="817" y="587" type="curve"/>
      <point x="861" y="587"/>
      <point x="906" y="587"/>
      <point x="906" y="594" type="curve"/>
      <point x="906" y="594"/>
      <point x="904" y="614"/>
      <point x="894" y="624" type="curve"/>
      <point x="877" y="632"/>
      <point x="862" y="642"/>
      <point x="833" y="642" type="curve"/>
      <point x="786" y="646"/>
      <point x="721" y="644"/>
      <point x="709" y="636" type="curve"/>
      <point x="680" y="634"/>
      <point x="647" y="625"/>
      <point x="623" y="616" type="curve"/>
      <point x="585" y="624"/>
      <point x="551" y="628"/>
      <point x="536" y="635" type="curve"/>
      <point x="511" y="647"/>
      <point x="501" y="640"/>
      <point x="472" y="612" type="curve"/>
      <point x="454" y="593"/>
      <point x="438" y="575"/>
      <point x="430" y="561" type="curve"/>
      <point x="416" y="546"/>
      <point x="397" y="521"/>
      <point x="376" y="503" type="curve"/>
      <point x="361" y="481"/>
      <point x="343" y="454"/>
      <point x="335" y="448" type="curve"/>
      <point x="327" y="436"/>
      <point x="320" y="429"/>
      <point x="300" y="392" type="curve"/>
      <point x="279" y="369"/>
      <point x="225" y="284"/>
      <point x="223" y="278" type="curve"/>
      <point x="223" y="272"/>
      <point x="217" y="272"/>
      <point x="204" y="265" type="curve"/>
      <point x="186" y="265"/>
      <point x="169" y="247"/>
      <point x="183" y="241" type="curve"/>
      <point x="196" y="228"/>
      <point x="194" y="216"/>
      <point x="180" y="203" type="curve"/>
      <point x="167" y="197"/>
      <point x="105" y="99"/>
      <point x="103" y="93" type="curve"/>
      <point x="103" y="93"/>
      <point x="96" y="81"/>
      <point x="88" y="72" type="curve"/>
      <point x="55" y="33"/>
      <point x="48" y="8"/>
      <point x="73" y="-4" type="curve"/>
      <point x="84" y="-14"/>
      <point x="91" y="-13"/>
      <point x="103" y="-13" type="curve"/>
      <point x="109" y="-13"/>
      <point x="121" y="-1"/>
      <point x="149" y="41" type="curve"/>
      <point x="170" y="66"/>
      <point x="190" y="103"/>
      <point x="204" y="129" type="curve"/>
      <point x="219" y="157"/>
      <point x="240" y="182"/>
      <point x="244" y="188" type="curve"/>
      <point x="261" y="209" type="line"/>
      <point x="328" y="205"/>
      <point x="380" y="202"/>
      <point x="405" y="206" type="curve"/>
      <point x="417" y="206" type="line"/>
      <point x="411" y="195"/>
      <point x="405" y="173"/>
      <point x="401" y="150" type="curve"/>
      <point x="376" y="55"/>
      <point x="381" y="12"/>
      <point x="422" y="-19" type="curve"/>
      <point x="456" y="-46"/>
      <point x="498" y="-48"/>
    </contour>
    <contour>
      <point x="298" y="261" type="curve"/>
      <point x="288" y="267"/>
      <point x="304" y="308"/>
      <point x="364" y="387" type="curve"/>
      <point x="387" y="419"/>
      <point x="408" y="451"/>
      <point x="414" y="458" type="curve"/>
      <point x="428" y="479"/>
      <point x="501" y="558"/>
      <point x="507" y="551" type="curve"/>
      <point x="530" y="551"/>
      <point x="549" y="549"/>
      <point x="567" y="547" type="curve"/>
      <point x="557" y="518"/>
      <point x="533" y="471"/>
      <point x="498" y="409" type="curve"/>
      <point x="492" y="391"/>
      <point x="481" y="381"/>
      <point x="479" y="376" type="curve"/>
      <point x="479" y="371"/>
      <point x="475" y="361"/>
      <point x="464" y="343" type="curve"/>
      <point x="458" y="329"/>
      <point x="458" y="318"/>
      <point x="458" y="318" type="curve"/>
      <point x="457" y="315"/>
      <point x="450" y="294"/>
      <point x="446" y="291" type="curve"/>
      <point x="440" y="285"/>
      <point x="438" y="278"/>
      <point x="435" y="266" type="curve"/>
      <point x="421" y="266"/>
      <point x="400" y="267"/>
      <point x="375" y="265" type="curve"/>
      <point x="338" y="266"/>
      <point x="298" y="261"/>
    </contour>
  </outline>
</glyph>
